<?xml version="1.0" encoding="UTF-8"?>
<svg id="Ikony" xmlns="http://www.w3.org/2000/svg" viewBox="0 0 24 24">
  <defs>
    <style>
      .cls-1 {
        fill: #010101;
      }
    </style>
  </defs>
  <path class="cls-1" d="m16.1,20.43c0,.41-.34.75-.75.75H5.07c-1.19,0-2.15-.96-2.15-2.15v-.57c0-3.59,2.81-6.39,6.39-6.39h2.77c.41,0,.75.34.75.75s-.34.75-.75.75h-2.77c-2.74,0-4.89,2.15-4.89,4.89v.57c0,.36.29.65.65.65h10.28c.41,0,.75.34.75.75ZM7.26,6.45c0-2.46,1.99-4.45,4.45-4.45s4.45,1.99,4.45,4.45-1.99,4.45-4.45,4.45-4.45-1.99-4.45-4.45Zm1.5,0c0,1.62,1.32,2.95,2.95,2.95s2.95-1.32,2.95-2.95-1.32-2.95-2.95-2.95-2.95,1.32-2.95,2.95Zm12.1,6.8c-.29-.29-.77-.29-1.06,0l-3.3,3.3-1.68-1.68c-.29-.29-.77-.29-1.06,0s-.29.77,0,1.06l2.21,2.21c.15.15.34.22.53.22s.38-.07.53-.22l3.83-3.83c.29-.29.29-.77,0-1.06Z"/>
</svg>