<?xml version="1.0" encoding="utf-8"?>
<svg version="1.1" xmlns:xlink="http://www.w3.org/1999/xlink" width="84px" height="91px" xmlns="http://www.w3.org/2000/svg">
  <g transform="matrix(1 0 0 1 -758 -13940 )">
    <path d="M 63.8411 25.531200000000002  C 63.06570000000001 25.2396  62.673500000000004 24.3746  62.96510000000001 23.599200000000003  C 63.2568 22.823799999999995  64.1218 22.4316  64.8972 22.7232  L 73.0997 25.8083  C 74.6726 26.3999  75.7848 27.818599999999996  75.9839 29.4873  L 78.7848 52.9719  C 82.3223 54.542100000000005  84.29039999999999 58.495400000000004  83.2571 62.351600000000005  L 79.116 77.8064  C 77.9726 82.0737  73.5867 84.6063  69.3193 83.4636  L 68.5423 86.3634  C 67.6847 89.5641  64.3946 91.4636  61.193799999999996 90.606  L 57.3301 89.5707  C 54.1293 88.7131  52.22990000000001 85.423  53.087500000000006 82.2222  L 53.8645 79.3225  L 30.6819 73.1107  L 29.9056 76.0079  C 29.0479 79.2087  25.7579 81.1082  22.5571 80.2505  L 18.6934 79.2152  C 15.4926 78.3576  13.5931 75.0676  14.450800000000001 71.8668  L 15.2271 68.9696  L 15.2262 68.9694  C 10.9585 67.8258  8.4258 63.439099999999996  9.5694 59.171400000000006  L 13.7105 43.7166  C 14.854 39.4489  19.2407 36.9162  23.508399999999998 38.0597  L 75.6514 52.0314  L 73.005 29.8426  C 72.9386 29.286399999999997  72.5679 28.813400000000005  72.0436 28.6162  L 63.8411 25.531200000000002  Z M 80.3594 61.575100000000006  C 81.0741 58.9078  79.4912 56.1661  76.8238 55.4514  L 22.732 40.9575  C 20.0647 40.2428  17.323 41.8257  16.6083 44.4931  L 12.467199999999998 59.947900000000004  C 11.752500000000001 62.6152  13.3354 65.3569  16.0037 66.0712  L 31.4583 70.2129  L 70.0945 80.5655  C 72.7619 81.2802  75.5036 79.6973  76.2183 77.0299  L 80.3594 61.575100000000006  Z M 42.47890000000001 18.0655  L 42.6796 4.02105  C 42.7316 0.38726  37.8961 -0.9083399999999999  36.1242 2.26454  L 29.275799999999997 14.527799999999997  C 29.1239 14.799800000000001  28.762799999999995 14.868099999999998  28.522 14.670400000000003  L 17.6667 5.756869999999999  C 14.858099999999999 3.4506400000000004  10.830300000000003 6.423369999999999  12.206199999999999 9.787  L 17.524 22.787199999999995  C 17.642 23.0756  17.4703 23.4005  17.1655 23.465500000000002  L 3.672459999999999 26.343  C 0.09152000000000003 27.106700000000004  -0.06081000000000003 32.161  3.4676299999999998 33.1389  L 13.600200000000001 35.9472  C 14.398499999999999 36.1685  15.225000000000001 35.7006  15.446300000000003 34.9023  C 15.6676 34.104  15.1998 33.2774  14.4014 33.0562  L 4.2689 30.2479  C 4.1051 30.2025  4.0297 30.1289  3.9866200000000003 30.0659  C 3.934850000000001 29.990099999999998  3.8987800000000004 29.8798  3.902659999999999 29.751  C 3.9065499999999997 29.622100000000003  3.9491899999999998 29.514199999999995  4.0054 29.441700000000004  C 4.052199999999999 29.3814  4.1319 29.312500000000004  4.2982 29.277  L 17.7912 26.3996  C 19.9246 25.944599999999998  21.1266 23.670300000000005  20.3007 21.6514  L 14.9829 8.6511  C 14.9193 8.4957  14.930599999999998 8.3913  14.9539 8.3184  C 14.981699999999998 8.231  15.046 8.1353  15.148700000000002 8.0595  C 15.2515 7.98369  15.361799999999999 7.950490000000001  15.453499999999998 7.94965  C 15.5301 7.94894  15.633199999999997 7.9688300000000005  15.762899999999998 8.0754  L 26.6182 16.9889  C 28.304000000000006 18.3732  30.8315 17.8949  31.8951 15.990500000000003  L 38.7435 3.7272499999999997  C 38.8253 3.5806500000000003  38.914 3.5244600000000004  38.9856 3.4971400000000004  C 39.0712 3.46445  39.1861 3.4550200000000006  39.3094 3.4880699999999996  C 39.4328 3.5211200000000002  39.5275 3.5867199999999992  39.5853 3.65784  C 39.6336 3.7172799999999993  39.6823 3.81027  39.68 3.97818  L 39.4792 18.0226  C 39.448 20.2037  41.3979 21.8817  43.5499 21.5258  L 57.5866 19.2045  C 57.7507 19.1773  57.8498 19.2111  57.9161 19.2499  C 57.99510000000001 19.2961  58.07399999999999 19.3793  58.125299999999996 19.4953  C 58.17659999999999 19.6112  58.1853 19.7255  58.166399999999996 19.8151  C 58.1506 19.8903  58.109 19.9863  57.9787 20.0897  L 47.5693 28.337099999999996  C 46.9199 28.8516  46.8106 29.795  47.325100000000006 30.4443  C 47.8396 31.093600000000002  48.783 31.203000000000003  49.4323 30.688499999999998  L 59.8417 22.4411  C 62.6738 20.1971  60.662000000000006 15.655100000000001  57.0971 16.2447  L 43.06040000000001 18.566  C 42.753 18.6168  42.4745 18.3771  42.47890000000001 18.0655  Z M 66.421 82.6891  L 56.7617 80.1009  L 55.9853 82.9987  C 55.5565 84.5991  56.50619999999999 86.2441  58.1066 86.6729  L 61.970299999999995 87.7082  C 63.5707 88.137  65.2157 87.1873  65.6445 85.5869  L 66.421 82.6891  Z M 34.8255 57.6585  C 33.6819 61.92620000000001  29.2952 64.4589  25.0275 63.31529999999999  C 20.7598 62.17180000000001  18.2271 57.7851  19.3706 53.5174  C 20.5142 49.2496  24.900900000000004 46.717  29.168599999999998 47.8605  C 33.4363 49.00410000000001  35.969 53.39079999999999  34.8255 57.6585  Z M 67.8053 58.2121  C 72.0731 59.3556  74.6057 63.7423  73.4622 68.01  C 72.3186 72.2778  67.9319 74.8104  63.664199999999994 73.6669  C 59.396499999999996 72.5234  56.8638 68.1367  58.007400000000004 63.8689  C 59.1509 59.60119999999999  63.5376 57.0686  67.8053 58.2121  Z M 18.1249 69.746  L 17.3486 72.6432  C 16.9197 74.2436  17.8695 75.8886  19.4699 76.3175  L 23.3336 77.3527  C 24.934 77.7816  26.579 76.8318  27.007800000000003 75.2314  L 27.784100000000002 72.3342  L 18.1249 69.746  Z M 22.2684 54.29379999999999  C 21.5537 56.9612  23.1366 59.70290000000001  25.804 60.4176  C 28.4713 61.1323  31.212999999999997 59.54939999999999  31.927699999999998 56.882  C 32.6424 54.21469999999999  31.0595 51.473  28.3921 50.7583  C 25.7248 50.0436  22.9831 51.6265  22.2684 54.29379999999999  Z M 64.4407 70.7691  C 67.108 71.4838  69.8497 69.9009  70.5644 67.2336  C 71.2791 64.5663  69.6962 61.8246  67.0289 61.109899999999996  C 64.3615 60.3952  61.6198 61.9781  60.90510000000001 64.6454  C 60.1904 67.3127  61.773300000000006 70.0544  64.4407 70.7691  Z " fill-rule="nonzero" fill="#000000" stroke="none" transform="matrix(1 0 0 1 758 13940 )" />
  </g>
</svg>