<?xml version="1.0" encoding="UTF-8"?>
<svg id="Ikony" xmlns="http://www.w3.org/2000/svg" viewBox="0 0 24 24">
  <path d="m22.25,12c0,5.65-4.6,10.25-10.25,10.25-.41,0-.75-.34-.75-.75s.34-.75.75-.75c4.83,0,8.75-3.92,8.75-8.75S16.83,3.25,12,3.25c-.41,0-.75-.34-.75-.75s.34-.75.75-.75c5.65,0,10.25,4.6,10.25,10.25Zm-10.75,4.45c-.31.21-.67.31-1.03.31-.3,0-.6-.07-.88-.22-.6-.32-.98-.95-.98-1.64v-5.8c0-.69.38-1.31.98-1.64.61-.32,1.34-.29,1.91.09l4.35,2.91c.52.35.83.92.83,1.55,0,.62-.31,1.2-.83,1.54l-4.35,2.89Zm-.83-1.25l4.35-2.89c.14-.09.16-.23.16-.3,0-.07-.02-.21-.16-.3l-4.35-2.9c-.07-.05-.14-.06-.2-.06-.08,0-.14.03-.17.04-.06.03-.19.12-.19.32v5.8c0,.19.13.29.19.32.06.03.21.09.37-.02Zm-7.46-.32c-.41,0-.75.34-.75.75s.34.75.75.75.75-.34.75-.75-.34-.75-.75-.75Zm5.13,5.13c-.41,0-.75.34-.75.75s.34.75.75.75.75-.34.75-.75-.34-.75-.75-.75Zm-3.06-2.03c-.41,0-.75.34-.75.75s.34.75.75.75.75-.34.75-.75-.34-.75-.75-.75Zm-1.86-5.96c0-.41-.34-.75-.75-.75s-.75.34-.75.75.34.75.75.75.75-.34.75-.75Zm-.2-4.42c-.41,0-.75.34-.75.75s.34.75.75.75.75-.34.75-.75-.34-.75-.75-.75Zm2.06-1.56c.41,0,.75-.34.75-.75s-.34-.75-.75-.75-.75.34-.75.75.34.75.75.75Zm3.09-2.04c.41,0,.75-.34.75-.75s-.34-.75-.75-.75-.75.34-.75.75.34.75.75.75Z"/>
</svg>