<?xml version="1.0" encoding="UTF-8"?>
<svg id="Ikony" xmlns="http://www.w3.org/2000/svg" viewBox="0 0 24 24">
  <path d="m4.74,11.07h4.51c.96,0,1.75-.79,1.75-1.75v-4.51c0-.96-.79-1.75-1.75-1.75h-4.51c-.96,0-1.75.79-1.75,1.75v4.51c0,.96.79,1.75,1.75,1.75Zm-.25-6.26c0-.14.11-.25.25-.25h4.51c.14,0,.25.11.25.25v4.51c0,.14-.11.25-.25.25h-4.51c-.14,0-.25-.11-.25-.25v-4.51Zm16.51,0v5.51c0,.41-.34.75-.75.75s-.75-.34-.75-.75v-5.51c0-.14-.11-.25-.25-.25h-5.51c-.41,0-.75-.34-.75-.75s.34-.75.75-.75h5.51c.96,0,1.75.79,1.75,1.75Zm-10,15.45c0,.41-.34.75-.75.75h-5.51c-.96,0-1.75-.79-1.75-1.75v-5.51c0-.41.34-.75.75-.75s.75.34.75.75v5.51c0,.14.11.25.25.25h5.51c.41,0,.75.34.75.75Zm8.25-7.26h-4.51c-.96,0-1.75.79-1.75,1.75v4.51c0,.96.79,1.75,1.75,1.75h4.51c.96,0,1.75-.79,1.75-1.75v-4.51c0-.96-.79-1.75-1.75-1.75Zm.25,6.26c0,.14-.11.25-.25.25h-4.51c-.14,0-.25-.11-.25-.25v-4.51c0-.14.11-.25.25-.25h4.51c.14,0,.25.11.25.25v4.51Zm-9.69-6.26h-2.26c-.69,0-1.25.56-1.25,1.25v2.26c0,.69.56,1.25,1.25,1.25h2.26c.69,0,1.25-.56,1.25-1.25v-2.26c0-.69-.56-1.25-1.25-1.25Zm-.25,3.26h-1.76v-1.76h1.76v1.76Zm6.99-5.18c.69,0,1.25-.56,1.25-1.25v-2.26c0-.69-.56-1.25-1.25-1.25h-2.26c-.69,0-1.25.56-1.25,1.25v2.26c0,.69.56,1.25,1.25,1.25h2.26Zm-2.01-3.26h1.76v1.76h-1.76v-1.76Zm3.99,9.38c0,.41-.34.75-.75.75h-1.73c-.41,0-.75-.34-.75-.75s.34-.75.75-.75h1.73c.41,0,.75.34.75.75ZM6.31,7.93v-1.73c0-.41.34-.75.75-.75s.75.34.75.75v1.73c0,.41-.34.75-.75.75s-.75-.34-.75-.75Z"/>
</svg>