<svg width="24" height="24" viewBox="0 0 24 24" fill="none" xmlns="http://www.w3.org/2000/svg">
<path d="M21.4212 10.4828C20.9612 9.94281 20.2912 9.62281 19.5812 9.62281H17.4213L17.7713 5.72281C17.7713 5.72281 17.7713 5.54281 17.7713 5.51281C17.7313 4.87281 17.4512 4.27281 16.9812 3.83281C16.5112 3.39281 15.9013 3.14281 15.2413 3.13281C14.6413 3.13281 14.0613 3.34281 13.6013 3.71281C13.1413 4.09281 12.8113 4.62281 12.7013 5.17281C12.7013 5.20281 12.6813 5.26281 12.6813 5.28281C12.6013 5.82281 12.4613 6.34281 12.2513 6.82281C12.0113 7.37281 11.2812 9.04281 9.74125 9.58281C9.19125 9.77281 8.82125 10.3028 8.82125 10.8928V19.6628C8.82125 20.4228 9.44125 21.0428 10.2013 21.0428H17.3513C19.1313 21.0428 20.6512 19.7628 20.9612 18.0128L21.9312 12.4428C22.0512 11.7428 21.8612 11.0328 21.4012 10.4828H21.4212ZM5.87125 9.72281L2.69125 10.0928C2.31125 10.1328 2.03125 10.4528 2.03125 10.8428V19.1228C2.04125 19.6328 2.25125 20.1128 2.61125 20.4728C2.97125 20.8328 3.45125 21.0428 4.00125 21.0528H5.97125C6.34125 21.0528 6.69125 20.9128 6.95125 20.6428C7.21125 20.3828 7.36125 20.0328 7.36125 19.6628V11.1028C7.36125 10.3128 6.69125 9.64281 5.89125 9.72281H5.87125Z" fill="black"/>
</svg>
