<?xml version="1.0" encoding="utf-8"?>
<!-- Generator: Adobe Illustrator 27.7.0, SVG Export Plug-In . SVG Version: 6.00 Build 0)  -->
<svg version="1.1" id="Warstwa_1" xmlns="http://www.w3.org/2000/svg" xmlns:xlink="http://www.w3.org/1999/xlink" x="0px" y="0px"
	 viewBox="0 0 24 24" style="enable-background:new 0 0 24 24;" xml:space="preserve">
<style type="text/css">
	.st0{fill:#010101;}
</style>
<g id="Ikony">
	<path class="st0" d="M12,2C6.5,2,2,6.5,2,12s4.5,10,10,10s10-4.5,10-10S17.5,2,12,2z M7.9,10.2V8.7C7.9,8.3,8.3,8,8.7,8
		s0.8,0.3,0.8,0.8v1.5c0,0.4-0.3,0.8-0.8,0.8S7.9,10.7,7.9,10.2z M14.8,16.5c-0.1,0.1-0.3,0.2-0.5,0.2s-0.4-0.1-0.5-0.2
		c-0.5-0.5-1.1-0.8-1.8-0.8c-0.8,0-1.4,0.3-1.9,0.8c-0.3,0.3-0.8,0.3-1.1,0c-0.3-0.3-0.3-0.8,0-1.1c0.8-0.8,1.8-1.2,2.9-1.2
		c1.2,0,2.2,0.4,3,1.2C15.2,15.8,15.1,16.2,14.8,16.5L14.8,16.5z M16,10.2c0,0.4-0.3,0.8-0.8,0.8s-0.8-0.3-0.8-0.8V8.7
		c0-0.4,0.3-0.8,0.8-0.8S16,8.3,16,8.7V10.2z"/>
</g>
</svg>
