<?xml version="1.0" encoding="UTF-8"?>
<svg id="Ikony" xmlns="http://www.w3.org/2000/svg" viewBox="0 0 24 24">
  <defs>
    <style>
      .cls-1 {
        fill: #010101;
        stroke-width: 0px;
      }
    </style>
  </defs>
  <path class="cls-1" d="m2.7,8h18.6c.4,0,.7-.3.7-.8s-.3-.8-.8-.8H2.7c-.4.1-.7.4-.7.8s.3.8.7.8Z"/>
  <path class="cls-1" d="m21.3,16H2.7c-.4,0-.7.3-.7.8s.3.8.8.8h18.6c.4,0,.8-.3.8-.8s-.5-.8-.9-.8Z"/>
  <path class="cls-1" d="m2.7,12.8h18.6c.4,0,.8-.3.8-.8s-.3-.8-.8-.8H2.7c-.4,0-.7.4-.7.8s.3.8.7.8Z"/>
</svg>