<?xml version="1.0" encoding="UTF-8"?>
<svg id="Ikony" xmlns="http://www.w3.org/2000/svg" viewBox="0 0 24 24">
  <defs>
    <style>
      .cls-1 {
        fill: #010101;
      }
    </style>
  </defs>
  <path class="cls-1" d="m2.6,8v-2.64c0-1.52,1.24-2.75,2.75-2.75h2.64c.41,0,.75.34.75.75s-.34.75-.75.75h-2.64c-.69,0-1.25.56-1.25,1.25v2.64c0,.41-.34.75-.75.75s-.75-.34-.75-.75Zm5.4,11.9h-2.64c-.69,0-1.25-.56-1.25-1.25v-2.64c0-.41-.34-.75-.75-.75s-.75.34-.75.75v2.64c0,1.52,1.24,2.75,2.75,2.75h2.64c.41,0,.75-.34.75-.75s-.34-.75-.75-.75Zm12.65-4.65c-.41,0-.75.34-.75.75v2.64c0,.69-.56,1.25-1.25,1.25h-2.64c-.41,0-.75.34-.75.75s.34.75.75.75h2.64c1.52,0,2.75-1.24,2.75-2.75v-2.64c0-.41-.34-.75-.75-.75Zm-2-12.65h-2.64c-.41,0-.75.34-.75.75s.34.75.75.75h2.64c.69,0,1.25.56,1.25,1.25v2.64c0,.41.34.75.75.75s.75-.34.75-.75v-2.64c0-1.52-1.24-2.75-2.75-2.75ZM8,7.9c-.41,0-.75.34-.75.75v1.63c0,.41.34.75.75.75s.75-.34.75-.75v-1.63c0-.41-.34-.75-.75-.75Zm8,3.13c.41,0,.75-.34.75-.75v-1.63c0-.41-.34-.75-.75-.75s-.75.34-.75.75v1.63c0,.41.34.75.75.75Zm-4.5,2.99c.96,0,1.75-.79,1.75-1.75v-3.61c0-.41-.34-.75-.75-.75s-.75.34-.75.75v3.61c0,.14-.11.25-.25.25-.41,0-.75.34-.75.75s.34.75.75.75Zm4.46,1.95c.27-.31.25-.78-.06-1.06-.31-.27-.78-.25-1.06.06-.72.81-1.75,1.28-2.83,1.28-1.01,0-1.96-.39-2.67-1.11-.29-.29-.77-.29-1.06,0s-.29.77,0,1.06c1,1,2.32,1.55,3.74,1.55,1.51,0,2.95-.65,3.96-1.78Z"/>
</svg>