<svg width="24" height="24" viewBox="0 0 24 24" fill="none" xmlns="http://www.w3.org/2000/svg">
<path d="M5 3.58952C5 3.39229 5.14047 3.22303 5.33432 3.18669L14.6903 1.43243C15.8905 1.20739 17 2.12816 17 3.34929C17 3.70832 16.7089 3.99937 16.3499 3.99937H5.40985C5.1835 3.99937 5 3.81587 5 3.58952Z" fill="black"/>
<path fill-rule="evenodd" clip-rule="evenodd" d="M6 4.99937C5.44772 4.99937 5 5.44709 5 5.99937V19.9994C5 20.5517 5.44772 20.9994 6 20.9994H16C17.6569 20.9994 19 19.6562 19 17.9994V7.99937C19 6.34252 17.6569 4.99937 16 4.99937H6ZM14 10.9994C14 12.1039 13.1046 12.9994 12 12.9994C10.8954 12.9994 10 12.1039 10 10.9994C10 9.8948 10.8954 8.99937 12 8.99937C13.1046 8.99937 14 9.8948 14 10.9994ZM8 15.7494C8 15.3352 8.33579 14.9994 8.75 14.9994H15.25C15.6642 14.9994 16 15.3352 16 15.7494C16 16.1636 15.6642 16.4994 15.25 16.4994H8.75C8.33579 16.4994 8 16.1636 8 15.7494Z" fill="black"/>
</svg>
