<svg width="96" height="96" viewBox="0 0 96 96" fill="none" xmlns="http://www.w3.org/2000/svg">
<path fill-rule="evenodd" clip-rule="evenodd" d="M71.2 77L24.8 77C22.5103 77 20.9734 76.9977 19.7899 76.901C18.6414 76.8071 18.0923 76.6396 17.73 76.455C16.7892 75.9757 16.0243 75.2108 15.545 74.27C15.3604 73.9077 15.1929 73.3586 15.099 72.2101C15.0023 71.0266 15 69.4897 15 67.2L15 28.8C15 26.5103 15.0023 24.9734 15.099 23.7899C15.1929 22.6414 15.3604 22.0923 15.545 21.73C16.0243 20.7892 16.7892 20.0243 17.7301 19.545C18.0923 19.3604 18.6414 19.1929 19.7899 19.099C20.9734 19.0023 22.5103 19 24.8 19L71.2 19C73.4897 19 75.0266 19.0023 76.2101 19.099C77.3586 19.1929 77.9077 19.3604 78.27 19.545C79.2108 20.0243 79.9757 20.7892 80.455 21.7301C80.6396 22.0923 80.8071 22.6414 80.901 23.7899C80.9977 24.9734 81 26.5103 81 28.8L81 30L81 31.5C81 32.3284 81.6716 33 82.5 33C83.3284 33 84 32.3284 84 31.5L84 30L84 28.8C84 24.3196 84 22.0794 83.1281 20.3681C82.3611 18.8628 81.1372 17.6389 79.6319 16.872C77.9206 16 75.6804 16 71.2 16L24.8 16H24.8H24.7999C20.3196 16 18.0794 16 16.3681 16.8719C14.8628 17.6389 13.6389 18.8628 12.872 20.3681C12 22.0794 12 24.3196 12 28.8L12 67.2C12 71.6804 12 73.9206 12.8719 75.6319C13.6389 77.1372 14.8628 78.3611 16.3681 79.1281C18.0794 80 20.3196 80 24.8 80L71.2 80C75.6804 80 77.9206 80 79.6319 79.1281C81.1372 78.3611 82.3611 77.1372 83.1281 75.6319C84 73.9206 84 71.6804 84 67.2V66L84 64.5C84 63.6716 83.3284 63 82.5 63C81.6716 63 81 63.6716 81 64.5L81 66V67.2C81 69.4897 80.9977 71.0266 80.901 72.2101C80.8071 73.3586 80.6396 73.9077 80.455 74.27C79.9757 75.2108 79.2108 75.9757 78.27 76.455C77.9077 76.6396 77.3586 76.8071 76.2101 76.901C75.0266 76.9977 73.4897 77 71.2 77ZM77.4 39H64.6C62.8703 39 61.7535 39.0023 60.9035 39.0718C60.0885 39.1384 59.7864 39.2514 59.638 39.327C59.0735 39.6146 58.6146 40.0735 58.327 40.638C58.2514 40.7864 58.1384 41.0885 58.0718 41.9035C58.0023 42.7535 58 43.8703 58 45.6V50.4C58 52.1297 58.0023 53.2465 58.0718 54.0965C58.1384 54.9115 58.2514 55.2136 58.327 55.362C58.6146 55.9265 59.0735 56.3854 59.638 56.673C59.7864 56.7486 60.0885 56.8616 60.9035 56.9282C61.7535 56.9977 62.8703 57 64.6 57H77.4C79.1297 57 80.2465 56.9977 81.0965 56.9282C81.9115 56.8616 82.2136 56.7486 82.362 56.673C82.9265 56.3854 83.3854 55.9265 83.673 55.362C83.7486 55.2136 83.8616 54.9115 83.9282 54.0965C83.9977 53.2465 84 52.1297 84 50.4V45.6C84 43.8703 83.9977 42.7535 83.9282 41.9035C83.8616 41.0885 83.7486 40.7864 83.673 40.638C83.3854 40.0735 82.9265 39.6146 82.362 39.327C82.2136 39.2514 81.9115 39.1384 81.0965 39.0718C80.2465 39.0023 79.1297 39 77.4 39ZM55.654 39.2761C55 40.5595 55 42.2397 55 45.6V50.4C55 53.7603 55 55.4405 55.654 56.7239C56.2292 57.8529 57.1471 58.7708 58.2761 59.346C59.5595 60 61.2397 60 64.6 60H77.4C80.7603 60 82.4405 60 83.7239 59.346C84.8529 58.7708 85.7708 57.8529 86.346 56.7239C87 55.4405 87 53.7603 87 50.4V45.6C87 42.2397 87 40.5595 86.346 39.2761C85.7708 38.1471 84.8529 37.2292 83.7239 36.654C82.4405 36 80.7603 36 77.4 36H64.6C61.2397 36 59.5595 36 58.2761 36.654C57.1471 37.2292 56.2292 38.1471 55.654 39.2761ZM70 48C70 49.6569 68.6569 51 67 51C65.3431 51 64 49.6569 64 48C64 46.3431 65.3431 45 67 45C68.6569 45 70 46.3431 70 48ZM73 48C73 51.3137 70.3137 54 67 54C63.6863 54 61 51.3137 61 48C61 44.6863 63.6863 42 67 42C70.3137 42 73 44.6863 73 48Z" fill="black"/>
</svg>
