<?xml version="1.0" encoding="UTF-8"?>
<svg id="Ikony" xmlns="http://www.w3.org/2000/svg" viewBox="0 0 24 24">
  <path d="m20.07,17.78c0,2.33-1.9,4.24-4.24,4.24-.41,0-.75-.34-.75-.75s.34-.75.75-.75c1.51,0,2.74-1.23,2.74-2.74s-1.23-2.74-2.74-2.74c-1.38,0-2.51,1.02-2.7,2.35l.7-.7c.29-.29.77-.29,1.06,0s.29.77,0,1.06l-2.02,2.02c-.15.15-.34.22-.53.22s-.38-.07-.53-.22l-2.02-2.02c-.29-.29-.29-.77,0-1.06s.77-.29,1.06,0l.77.77c.16-2.19,1.98-3.92,4.2-3.92s4.24,1.9,4.24,4.24Zm-11.61,3.49c0,.41-.34.75-.75.75h-2c-.96,0-1.75-.79-1.75-1.75l.04-16.53c0-.96.79-1.75,1.75-1.75h6.44c.71,0,1.38.27,1.89.75l5.16,4.93c.51.49.8,1.16.8,1.86v1.98c-.01.41-.35.75-.76.75h0c-.41,0-.75-.34-.75-.75v-1.97s0-.01,0-.02c-.03,0-.06.02-.09.02h-4.44c-.96,0-1.75-.79-1.75-1.75V3.5s-.04-.01-.06-.01h-6.44c-.14,0-.25.11-.25.25l-.04,16.53c0,.14.11.25.25.25h2c.41,0,.75.34.75.75ZM13.74,4.51v3.27c0,.14.11.25.25.25h3.43l-3.68-3.52Z"/>
</svg>