<svg width="24" height="24" viewBox="0 0 24 24" fill="none" xmlns="http://www.w3.org/2000/svg">
<path d="M9.34871 8.54713L2.16482 6.62221C1.94229 6.56258 1.98037 6.23594 2.21065 6.22911L5.69441 6.12576C5.85377 6.12104 5.94381 5.94087 5.85192 5.81058L4.31961 3.63795C4.1971 3.46425 4.39429 3.24465 4.58012 3.34782L7.12914 4.76287C7.26115 4.83615 7.42365 4.74233 7.42619 4.59137L7.47522 1.67633C7.4788 1.46381 7.76757 1.40284 7.85674 1.59579L8.97214 4.00912C9.03903 4.15384 9.24008 4.16595 9.32385 4.0303L11.1552 1.06496C11.2763 0.868943 11.5782 0.999279 11.5186 1.22181L9.59366 8.40571C9.56507 8.5124 9.45541 8.57572 9.34871 8.54713Z" fill="black"/>
<path fill-rule="evenodd" clip-rule="evenodd" d="M17.908 8.25243C18.1236 8.31021 18.2748 8.50393 18.2785 8.72714L18.33 11.8468C18.3354 12.1789 18.0215 12.424 17.7006 12.338L5.66791 9.11382C5.30968 9.01784 4.93173 9.13246 4.6585 9.38322C4.44402 9.58008 4.22726 9.75414 4.02775 9.8851C3.63182 10.145 3.32617 10.5456 3.19395 11.0391L2.41749 13.9369C2.13161 15.0038 2.76477 16.1005 3.83171 16.3864L17.3547 20.0098C18.4216 20.2957 19.5183 19.6625 19.8042 18.5956L20.5806 15.6978C20.7128 15.2044 20.6485 14.7046 20.4355 14.2815C20.1078 13.6305 19.8418 12.5508 19.8298 11.822L19.7783 8.70237C19.7733 8.40194 19.7016 8.11486 19.5756 7.85736C19.3273 7.34961 18.8685 6.95689 18.2962 6.80354L12.026 5.12344L11.6378 6.57233L17.908 8.25243ZM17.2172 13.7614C17.884 13.94 18.2798 14.6255 18.1011 15.2923C17.9224 15.9591 17.237 16.3549 16.5702 16.1762C15.9033 15.9975 15.5076 15.3121 15.6863 14.6452C15.865 13.9784 16.5504 13.5827 17.2172 13.7614ZM5.54406 11.9276C5.72273 11.2608 6.40815 10.8651 7.07499 11.0438C7.74182 11.2224 8.13755 11.9079 7.95887 12.5747C7.78019 13.2415 7.09477 13.6373 6.42794 13.4586C5.76111 13.2799 5.36538 12.5945 5.54406 11.9276Z" fill="black"/>
<path d="M20.6623 12.6139L21.3571 12.8001C21.8905 12.943 22.4389 12.6264 22.5818 12.093C22.7248 11.5595 22.4082 11.0112 21.8747 10.8682L20.697 10.5527L20.6623 12.6139Z" fill="black"/>
<path d="M15.164 20.4581L14.9052 21.4241C14.7622 21.9575 15.0788 22.5059 15.6123 22.6488L16.5782 22.9076C17.1117 23.0506 17.66 22.734 17.803 22.2005L18.0618 21.2346L15.164 20.4581Z" fill="black"/>
<path d="M2.60696 17.0935L2.34814 18.0594C2.2052 18.5929 2.52178 19.1412 3.05525 19.2842L4.02117 19.543C4.55464 19.6859 5.10297 19.3693 5.24592 18.8359L5.50473 17.8699L2.60696 17.0935Z" fill="black"/>
</svg>
