<svg width="24" height="24" viewBox="0 0 24 24" fill="none" xmlns="http://www.w3.org/2000/svg">
<path d="M14.6556 2.89821C16.816 3.56441 18.6292 5.02209 19.7566 6.93264C18.6171 6.88078 17.4462 6.83938 16.2494 6.8092C16.0555 5.9603 15.8096 5.18016 15.5197 4.49144C15.2703 3.89931 14.9822 3.35995 14.6556 2.89821Z" fill="black"/>
<path d="M4.26924 6.88913C5.39843 4.99996 7.20045 3.55934 9.34437 2.89821C9.01781 3.35995 8.72966 3.89931 8.48035 4.49144C8.19293 5.17405 7.94887 5.94647 7.75576 6.78662C6.56835 6.81004 5.40451 6.84444 4.26924 6.88913Z" fill="black"/>
<path d="M3 11.5C3 12.5816 3.19078 13.6185 3.54052 14.5792C4.81478 14.6354 6.12893 14.6785 7.47552 14.7073C7.32865 13.6961 7.25 12.6169 7.25 11.5C7.25 10.3831 7.32865 9.30393 7.47552 8.2927C6.12894 8.32154 4.81478 8.36463 3.54052 8.42084C3.19078 9.38145 3 10.4184 3 11.5Z" fill="black"/>
<path d="M7.75576 16.2134C6.56835 16.19 5.40452 16.1556 4.26924 16.1109C5.39843 18 7.20045 19.4407 9.34437 20.1018C9.01781 19.64 8.72966 19.1007 8.48034 18.5086C8.19293 17.8259 7.94887 17.0535 7.75576 16.2134Z" fill="black"/>
<path d="M13.4901 19.1502C13.3377 19.3755 13.1819 19.5672 13.0254 19.7243C12.6398 20.1117 12.2939 20.25 12 20.25C11.7061 20.25 11.3602 20.1117 10.9745 19.7243C10.586 19.334 10.2017 18.7313 9.8628 17.9265C9.65142 17.4245 9.4635 16.8575 9.305 16.2375C10.0293 16.2458 10.7613 16.25 11.5 16.25C11.8677 16.25 12.2338 16.249 12.5982 16.2469C12.7435 17.2643 13.0472 18.2428 13.4901 19.1502Z" fill="black"/>
<path d="M14.5462 13.1049C14.2185 13.2231 14 13.534 14 13.8824V14.8642C14 17.9056 15.6686 20.7018 18.3452 22.1459C18.7539 22.3664 19.2461 22.3664 19.6548 22.1459C22.3314 20.7018 24 17.9056 24 14.8642V13.8831C24 13.5347 23.7815 13.2237 23.4538 13.1055L19.4239 11.6522C19.1499 11.5534 18.8501 11.5534 18.5761 11.6522L14.5462 13.1049Z" fill="black"/>
<path d="M20.9566 10.6102C20.8835 9.86613 20.7199 9.14863 20.4768 8.46891C19.2014 8.40457 17.8825 8.35353 16.528 8.31698C16.6384 9.08373 16.7096 9.88932 16.7372 10.7206L18.0674 10.2411C18.6702 10.0238 19.3298 10.0238 19.9326 10.2411L20.9566 10.6102Z" fill="black"/>
<path d="M15.2487 11.2572L14.0375 11.6938C13.115 12.0264 12.5 12.9018 12.5 13.8824V14.7474C12.1682 14.7491 11.8348 14.75 11.5 14.75C10.6559 14.75 9.82094 14.7444 8.9967 14.7336C8.83817 13.7351 8.75 12.6455 8.75 11.5C8.75 10.3545 8.83817 9.26486 8.9967 8.26642C9.82094 8.25555 10.6559 8.25 11.5 8.25C12.6882 8.25 13.8583 8.261 15.0058 8.28233C15.1516 9.20557 15.2372 10.2065 15.2487 11.2572Z" fill="black"/>
<path d="M14.1372 5.07353C14.3502 5.57936 14.5394 6.15111 14.6986 6.77666C13.6489 6.75905 12.5816 6.75 11.5 6.75C10.7613 6.75 10.0293 6.75422 9.305 6.76251C9.4635 6.14249 9.65142 5.57554 9.8628 5.07353C10.2017 4.26869 10.586 3.66596 10.9746 3.27568C11.3602 2.88827 11.7061 2.75 12 2.75C12.2939 2.75 12.6398 2.88827 13.0255 3.27568C13.414 3.66596 13.7983 4.26869 14.1372 5.07353Z" fill="black"/>
</svg>
