<?xml version="1.0" encoding="UTF-8"?>
<svg id="Ikony" xmlns="http://www.w3.org/2000/svg" viewBox="0 0 24 24">
  <defs>
    <style>
      .cls-1 {
        fill: #010101;
        stroke-width: 0px;
      }
    </style>
  </defs>
  <path class="cls-1" d="m12,2C6.5,2,2,6.5,2,12s4.5,10,10,10,10-4.5,10-10S17.5,2,12,2Zm0,18.5c-4.7,0-8.5-3.8-8.5-8.5S7.3,3.5,12,3.5s8.5,3.8,8.5,8.5-3.8,8.5-8.5,8.5Z"/>
  <path class="cls-1" d="m16.3,11.2H7.7c-.4,0-.8.3-.8.8s.3.8.8.8h8.6c.4,0,.8-.3.8-.8s-.4-.8-.8-.8Z"/>
</svg>