<?xml version="1.0" encoding="UTF-8"?>
<svg id="Ikony" xmlns="http://www.w3.org/2000/svg" viewBox="0 0 24 24">
  <path d="m13.09,7.29c-.28-.28-.78-.28-1.06,0l-7.88,7.89c-.2.2-.34.46-.39.73l-.64,3.43c-.08.43.05.88.36,1.18.25.25.58.38.93.38.08,0,.17,0,.25-.02l3.43-.64c.28-.05.53-.18.73-.39l7.89-7.88c.14-.14.22-.33.22-.53s-.08-.39-.22-.53l-3.62-3.62Zm-5.31,11.48l-3.14.59.57-3.12,7.35-7.36,2.56,2.56-7.34,7.33Zm12.91-11.84l-3.61-3.61c-.29-.29-.77-.29-1.06,0l-2.14,2.14c-.29.29-.29.77,0,1.06l3.61,3.61c.15.15.34.22.53.22s.38-.07.53-.22l2.14-2.14c.29-.29.29-.77,0-1.06Zm-2.67,1.61l-2.55-2.55,1.08-1.08,2.55,2.55-1.08,1.08Z"/>
</svg>