<?xml version="1.0" encoding="UTF-8"?>
<svg id="Ikony" xmlns="http://www.w3.org/2000/svg" viewBox="0 0 24 24">
  <path d="m17,15.45H7.76V6.45s9.23,0,9.23,0c.2,0,.39-.08.53-.22s.22-.33.22-.53v-1.95c0-.96-.79-1.75-1.76-1.75h-7.99c-.47,0-.91.19-1.24.52-.33.33-.51.77-.51,1.24v12.37s0,.05,0,.07,0,.05,0,.07v3.98c0,.96.79,1.75,1.75,1.75h7.99c.96,0,1.75-.79,1.75-1.75v-4.05c0-.41-.34-.75-.76-.75ZM7.75,3.75c0-.09.05-.15.07-.18s.09-.07.18-.07h7.99c.14,0,.25.11.25.25v1.2s-8.49,0-8.49,0v-1.2Zm8.25,16.74h-7.99c-.14,0-.25-.11-.25-.25v-3.3s8.48,0,8.48,0v3.3c0,.14-.11.25-.24.25Zm-3.05-1.9c0,.52-.43.95-.95.95s-.95-.43-.95-.95.43-.95.95-.95.95.43.95.95Zm7.3-9.67v.88c0,.41-.34.75-.75.75s-.75-.34-.75-.75v-.43h-.43c-.41,0-.75-.34-.75-.75s.34-.75.75-.75h.88c.58,0,1.05.47,1.05,1.05Zm-5,3.5v.43h.43c.41,0,.75.34.75.75s-.34.75-.75.75h-.88c-.58,0-1.05-.47-1.05-1.05v-.88c0-.41.34-.75.75-.75s.75.34.75.75Zm4.99,0v.88c0,.58-.47,1.05-1.05,1.05h-.88c-.41,0-.75-.34-.75-.75s.34-.75.75-.75h.43v-.43c0-.41.34-.75.75-.75s.75.34.75.75Zm-3.8-3.82c0,.41-.34.75-.75.75h-.43v.43c0,.41-.34.75-.75.75s-.75-.34-.75-.75v-.88c0-.58.47-1.05,1.05-1.05h.88c.41,0,.75.34.75.75Z"/>
</svg>