<?xml version="1.0" encoding="UTF-8"?>
<svg id="Ikony" xmlns="http://www.w3.org/2000/svg" viewBox="0 0 24 24">
  <defs>
    <style>
      .cls-1 {
        fill: #010101;
      }
    </style>
  </defs>
  <path class="cls-1" d="m21.87,19.51L12.89,3.52c-.19-.34-.54-.52-.89-.52s-.7.17-.89.52L2.13,19.51c-.38.67.11,1.49.89,1.49h17.96c.78,0,1.27-.82.89-1.49Zm-18.01,0L12,4.99l8.14,14.51H3.86Zm8.15-9.98c.41,0,.75.34.75.75v3.57c0,.41-.34.75-.75.75s-.75-.34-.75-.75v-3.57c0-.41.34-.75.75-.75Zm.95,7.07c0,.52-.43.95-.95.95s-.95-.43-.95-.95.43-.95.95-.95.95.43.95.95Z"/>
</svg>