<?xml version="1.0" encoding="UTF-8"?>
<svg id="Ikony" xmlns="http://www.w3.org/2000/svg" viewBox="0 0 24 24">
  <defs>
    <style>
      .cls-1 {
        fill: #010101;
      }
    </style>
  </defs>
  <path class="cls-1" d="m13.4,13.8c-.14.23-.38.38-.65.38s-.52-.15-.65-.38l-1.46-2.52-.4.7c-.14.23-.38.37-.65.37h-5.34c.21.28.44.55.68.81l6.68,6.58c.11.1.25.16.39.16s.28-.06.39-.16l6.68-6.58c.24-.26.47-.53.68-.81h-5.52l-.83,1.45Z"/>
  <path class="cls-1" d="m20.88,8.01s-.01-.03-.01-.05c-.46-1.82-1.92-3.27-3.75-3.71-.44-.1-.87-.15-1.29-.15-1.51,0-2.88.65-3.83,1.68-.95-1.03-2.32-1.68-3.83-1.68-.42,0-.85.05-1.29.15-1.83.44-3.29,1.89-3.75,3.71,0,.02-.01.04-.01.05-.24.98-.1,1.94.27,2.83h5.77l.83-1.44c.14-.24.38-.38.65-.38s.52.14.65.38l1.46,2.52.4-.7c.13-.23.38-.38.65-.38h6.81c.37-.89.51-1.85.27-2.83Z"/>
</svg>