<svg width="96" height="96" viewBox="0 0 96 96" fill="none" xmlns="http://www.w3.org/2000/svg">
<path d="M80 23H16C11.0294 23 7 27.0294 7 32V64C7 68.9706 11.0294 73 16 73H43.9124C44.3245 74.033 44.7985 75.0345 45.3299 76H16C9.37258 76 4 70.6274 4 64V32C4 25.3726 9.37258 20 16 20H80C86.6274 20 92 25.3726 92 32V48.8506C91.1229 47.428 90.1175 46.0928 89 44.8613V32C89 27.0294 84.9706 23 80 23Z" fill="black"/>
<path fill-rule="evenodd" clip-rule="evenodd" d="M27 46C31.9706 46 36 41.9706 36 37C36 32.0294 31.9706 28 27 28C22.0294 28 18 32.0294 18 37C18 41.9706 22.0294 46 27 46ZM27 43C30.3137 43 33 40.3137 33 37C33 33.6863 30.3137 31 27 31C23.6863 31 21 33.6863 21 37C21 40.3137 23.6863 43 27 43Z" fill="black"/>
<path fill-rule="evenodd" clip-rule="evenodd" d="M24 49C17.3726 49 12 54.3726 12 61V64C12 66.2091 13.7909 68 16 68H38C40.2091 68 42 66.2091 42 64V61C42 54.3726 36.6274 49 30 49H24ZM24 52C19.0294 52 15 56.0294 15 61V64C15 64.5523 15.4477 65 16 65H38C38.5523 65 39 64.5523 39 64V61C39 56.0294 34.9706 52 30 52H24Z" fill="black"/>
<path fill-rule="evenodd" clip-rule="evenodd" d="M78.5459 52.7452C76.9838 51.1831 74.4512 51.1831 72.8891 52.7452L69.0707 56.5635C69.0317 56.6026 68.9683 56.6026 68.9293 56.5635L65.1109 52.7452C63.5488 51.1831 61.0162 51.1831 59.4541 52.7452L58.747 53.4523C57.1849 55.0144 57.1849 57.547 58.747 59.1091L62.5653 62.9275C62.6044 62.9665 62.6044 63.0299 62.5653 63.0689L58.747 66.8873C57.1849 68.4494 57.1849 70.9821 58.747 72.5442L59.4541 73.2513C61.0162 74.8134 63.5488 74.8134 65.1109 73.2513L68.9293 69.4329C68.9683 69.3938 69.0317 69.3938 69.0707 69.4329L72.8891 73.2513C74.4512 74.8134 76.9838 74.8134 78.5459 73.2513L79.2531 72.5442C80.8151 70.9821 80.8151 68.4494 79.2531 66.8873L75.4347 63.0689C75.3956 63.0299 75.3956 62.9665 75.4347 62.9275L79.2531 59.1091C80.8151 57.547 80.8151 55.0144 79.2531 53.4523L78.5459 52.7452ZM75.0104 54.8665C75.4009 54.476 76.0341 54.476 76.4246 54.8665L77.1317 55.5736C77.5223 55.9641 77.5223 56.5973 77.1317 56.9878L73.3134 60.8062C72.1027 62.0168 72.1027 63.9796 73.3134 65.1902L77.1317 69.0086C77.5223 69.3991 77.5223 70.0323 77.1317 70.4228L76.4246 71.1299C76.0341 71.5205 75.4009 71.5205 75.0104 71.1299L71.192 67.3116C69.9814 66.1009 68.0186 66.1009 66.808 67.3116L62.9896 71.1299C62.5991 71.5205 61.9659 71.5205 61.5754 71.1299L60.8683 70.4228C60.4777 70.0323 60.4777 69.3991 60.8683 69.0086L64.6866 65.1902C65.8973 63.9796 65.8973 62.0168 64.6866 60.8062L60.8683 56.9878C60.4777 56.5973 60.4777 55.9641 60.8683 55.5736L61.5754 54.8665C61.9659 54.476 62.5991 54.476 62.9896 54.8665L66.808 58.6849C68.0186 59.8955 69.9814 59.8955 71.192 58.6849L75.0104 54.8665Z" fill="black"/>
<path fill-rule="evenodd" clip-rule="evenodd" d="M93 63C93 76.2548 82.2548 87 69 87C55.7452 87 45 76.2548 45 63C45 49.7452 55.7452 39 69 39C82.2548 39 93 49.7452 93 63ZM90 63C90 74.598 80.598 84 69 84C57.402 84 48 74.598 48 63C48 51.402 57.402 42 69 42C80.598 42 90 51.402 90 63Z" fill="black"/>
</svg>
