<?xml version="1.0" encoding="UTF-8"?>
<svg id="Ikony" xmlns="http://www.w3.org/2000/svg" viewBox="0 0 24 24">
  <defs>
    <style>
      .cls-1 {
        fill: #010101;
      }
    </style>
  </defs>
  <path class="cls-1" d="m15.4,15.13c-.74,0-1.49.28-2.06.83l-5.63-3.25c.06-.32.06-.65,0-.98l5.76-3.33c.56.47,1.24.72,1.93.72.77,0,1.54-.29,2.12-.88,1.17-1.17,1.17-3.07,0-4.24-.59-.59-1.35-.88-2.12-.88s-1.54.29-2.12.88c-.86.86-1.08,2.11-.68,3.17l-5.48,3.17c-.08-.1-.15-.2-.24-.29-.59-.59-1.35-.88-2.12-.88s-1.54.29-2.12.88c-1.17,1.17-1.17,3.07,0,4.24.59.59,1.35.88,2.12.88s1.54-.29,2.12-.88c.07-.07.12-.15.19-.23l5.49,3.17c-.32,1.03-.09,2.2.73,3.01.59.59,1.35.88,2.12.88s1.54-.29,2.12-.88c1.17-1.17,1.17-3.07,0-4.24-.59-.59-1.35-.88-2.12-.88Zm-1.06-10.06c.28-.28.66-.44,1.06-.44s.78.16,1.06.44c.58.58.58,1.54,0,2.12-.28.28-.66.44-1.06.44s-.78-.16-1.06-.44c-.58-.58-.58-1.54,0-2.12ZM5.82,13.24c-.28.28-.66.44-1.06.44s-.78-.16-1.06-.44c-.58-.58-.58-1.54,0-2.12.28-.28.66-.44,1.06-.44s.78.16,1.06.44c.58.58.58,1.54,0,2.12Zm10.65,5.95c-.28.28-.66.44-1.06.44s-.78-.16-1.06-.44c-.58-.58-.58-1.54,0-2.12.28-.28.66-.44,1.06-.44s.78.16,1.06.44c.58.58.58,1.54,0,2.12Z"/>
</svg>