<?xml version="1.0" encoding="UTF-8"?>
<svg id="Warstwa_5" data-name="Warstwa 5" xmlns="http://www.w3.org/2000/svg" viewBox="0 0 24 24">
  <defs>
    <style>
      .cls-1 {
        fill: #010101;
      }
    </style>
  </defs>
  <path class="cls-1" d="m12,4.38c.09,0,.18.03.26.07l6.92,4.26s.04.02.06.03c.16.09.26.26.26.44v9.82c0,.28-.22.5-.5.5h-3.02c-.28,0-.5-.22-.5-.5v-4c0-.83-.67-1.5-1.5-1.5h-3.98c-.83,0-1.5.67-1.5,1.5v4c0,.28-.22.5-.5.5h-3c-.28,0-.5-.22-.5-.5v-9.82c0-.18.1-.35.26-.44.02-.01.04-.02.06-.03l6.92-4.26c.08-.05.17-.07.26-.07m0-1.5c-.36,0-.73.1-1.05.3l-6.92,4.26c-.63.35-1.03,1.02-1.03,1.75v9.82c0,1.1.9,2,2,2h3c1.1,0,2-.9,2-2v-4h3.98v4c0,1.1.9,2,2,2h3.02c1.1,0,2-.9,2-2v-9.82c0-.73-.39-1.4-1.03-1.75l-6.92-4.26c-.32-.2-.68-.3-1.05-.3h0Z"/>
</svg>