<?xml version="1.0" encoding="UTF-8"?>
<svg id="Ikony" xmlns="http://www.w3.org/2000/svg" viewBox="0 0 24 24">
  <defs>
    <style>
      .cls-1 {
        fill: #010101;
      }
    </style>
  </defs>
  <path class="cls-1" d="m4.85,8.97h14.3c.89,0,1.26-1.14.53-1.66l-7.15-5.14c-.16-.11-.35-.17-.53-.17s-.38.06-.53.17l-7.15,5.14c-.72.52-.36,1.66.53,1.66Zm7.15-5.33l5.34,3.83H6.66l5.34-3.83Zm8.07,15.66c0,.41-.34.75-.75.75H4.68c-.41,0-.75-.34-.75-.75s.34-.75.75-.75h14.64c.41,0,.75.34.75.75Zm-12.8-4.36c-.41,0-.75-.34-.75-.75v-3.41c0-.41.34-.75.75-.75s.75.34.75.75v3.41c0,.41-.34.75-.75.75Zm9.43,0c-.41,0-.75-.34-.75-.75v-3.41c0-.41.34-.75.75-.75s.75.34.75.75v3.41c0,.41-.34.75-.75.75Zm-6.41,0c-.41,0-.75-.34-.75-.75v-3.41c0-.41.34-.75.75-.75s.75.34.75.75v3.41c0,.41-.34.75-.75.75Zm3.39,0c-.41,0-.75-.34-.75-.75v-3.41c0-.41.34-.75.75-.75s.75.34.75.75v3.41c0,.41-.34.75-.75.75Zm-7.78,1.02h12.2c.41,0,.75.34.75.75s-.34.75-.75.75H5.9c-.41,0-.75-.34-.75-.75s.34-.75.75-.75Z"/>
</svg>