<?xml version="1.0" encoding="UTF-8"?>
<svg id="Ikony" xmlns="http://www.w3.org/2000/svg" viewBox="0 0 24 24">
  <defs>
    <style>
      .cls-1 {
        fill: #010101;
      }
    </style>
  </defs>
  <path class="cls-1" d="m12,2C6.48,2,2,6.48,2,12s4.48,10,10,10,10-4.48,10-10S17.52,2,12,2Zm0,18.5c-4.69,0-8.5-3.81-8.5-8.5S7.31,3.5,12,3.5s8.5,3.81,8.5,8.5-3.81,8.5-8.5,8.5Zm2.36-11.06c.31,1.18-.24,2.38-1.33,2.91-.21.1-.34.34-.34.6v.33c0,.41-.34.75-.75.75s-.75-.34-.75-.75v-.33c0-.84.47-1.6,1.19-1.95.36-.17.68-.62.53-1.18-.08-.33-.36-.6-.69-.69-.32-.09-.64-.02-.89.17-.25.19-.39.48-.39.79,0,.41-.34.75-.75.75s-.75-.34-.75-.75c0-.78.35-1.5.97-1.98.62-.48,1.41-.64,2.19-.44.85.22,1.54.91,1.76,1.76Zm-1.41,6.22c0,.52-.43.95-.95.95s-.95-.43-.95-.95.43-.95.95-.95.95.43.95.95Z"/>
</svg>