<?xml version="1.0" encoding="UTF-8"?>
<svg id="Ikony" xmlns="http://www.w3.org/2000/svg" viewBox="0 0 24 24">
  <defs>
    <style>
      .cls-1 {
        fill: #010101;
      }
    </style>
  </defs>
  <path class="cls-1" d="m16.09,8.11c.05.06.12.09.21.09s.16-.03.21-.09l1.65-1.65c.11-.11.11-.3,0-.43l-.71-.71c-.05-.05-.14-.09-.21-.09-.08,0-.17.04-.22.09l-1.65,1.65c-.05.05-.09.14-.09.21,0,.1.05.18.09.22l.72.71Z"/>
  <path class="cls-1" d="m16.51,15.89c-.06-.06-.13-.09-.22-.09-.08,0-.15.03-.21.09l-.71.71c-.06.06-.09.13-.09.21s.03.16.09.22l1.65,1.65c.06.06.13.09.22.09.08,0,.15-.03.21-.09l.71-.71c.05-.06.09-.13.09-.21s-.04-.16-.09-.22l-1.65-1.65Z"/>
  <path class="cls-1" d="m20.13,11.2h-2.34c-.17,0-.3.14-.3.3v1c0,.17.14.31.3.31h2.34c.17,0,.3-.15.3-.31v-1c0-.17-.15-.3-.3-.3Z"/>
  <path class="cls-1" d="m11.83,3h-.58c-.28,0-.5.22-.5.5v1.63l-1.27-.7c-.07-.04-.18-.07-.27-.07-.21,0-.4.11-.5.3l-.22.37c-.14.28-.04.63.23.79l2.03,1.11v3.66l-3.17-1.82.04-2.32c0-.15-.05-.3-.17-.41-.1-.11-.24-.17-.39-.17h-.41c-.19,0-.33.05-.44.15-.1.11-.16.24-.17.4l-.02,1.45-1.35-.78c-.1-.06-.2-.09-.29-.09-.2,0-.39.12-.5.29l-.22.37c-.07.14-.09.31-.05.45.03.14.14.27.27.34l1.37.79-1.28.77c-.27.16-.36.51-.2.78l.23.37c.08.14.21.22.37.26.03.02.07.03.12.03.11,0,.2-.04.29-.09l2.03-1.23,3.17,1.85-3.22,1.86-1.97-1.21c-.11-.05-.21-.08-.3-.08-.05,0-.11,0-.14.02-.16.04-.27.12-.35.26l-.22.37c-.17.27-.08.63.19.78l1.23.74-1.35.79c-.13.08-.22.19-.26.35-.04.14-.02.29.05.42l.22.39c.11.18.29.29.5.29.08,0,.19-.03.28-.08l1.38-.79.02,1.47c.01.13.04.29.18.42.1.09.23.15.41.16h.43c.14-.01.29-.08.39-.18.12-.12.17-.26.17-.42l-.04-2.36,3.17-1.82v3.7l-2.03,1.13c-.13.07-.23.19-.27.33-.04.16-.03.3.04.44l.22.38c.07.14.2.23.33.27.06.02.12.03.17.03.09,0,.19-.02.27-.07l1.27-.71v1.64c0,.28.22.5.5.5h.58c.28,0,.5-.22.5-.5V3.5c0-.28-.22-.5-.5-.5Z"/>
</svg>