<svg width="96" height="96" viewBox="0 0 96 96" fill="none" xmlns="http://www.w3.org/2000/svg">
<g clip-path="url(#clip0_8545_315)">
<path fill-rule="evenodd" clip-rule="evenodd" d="M67.2 85C69.4897 85 71.0266 84.9977 72.2101 84.901C73.3586 84.8071 73.9077 84.6396 74.2699 84.455C75.2108 83.9757 75.9757 83.2108 76.455 82.27C76.6396 81.9077 76.8071 81.3586 76.901 80.2101C76.9977 79.0266 77 77.4897 77 75.2V37.3019C77 35.2024 76.9807 34.6416 76.8618 34.1465C76.849 34.093 76.8353 34.0397 76.8207 33.9868C75.6841 33.9995 74.4192 33.9995 73 33.9995C66.468 33.9994 63.202 33.9995 60.6925 32.7619C58.3233 31.5936 56.4059 29.6761 55.2375 27.3069C54 24.7975 54 21.5315 54 14.9995C54 13.5805 54 12.3156 54.0127 11.1791C53.9599 11.1646 53.9068 11.1509 53.8535 11.1382C53.3584 11.0193 52.7976 11 50.6981 11L28.8 11C26.5103 11 24.9734 11.0023 23.7899 11.099C22.6414 11.1929 22.0923 11.3604 21.7301 11.545C20.7892 12.0243 20.0243 12.7892 19.545 13.73C19.3604 14.0923 19.1929 14.6414 19.099 15.7899C19.0023 16.9734 19 18.5103 19 20.8L19 49.5C19 50.3284 18.3284 51 17.5 51C16.6716 51 16 50.3284 16 49.5L16 20.8C16 16.3196 16 14.0794 16.872 12.3681C17.6389 10.8628 18.8628 9.63893 20.3681 8.87195C22.0794 8 24.3196 8 28.8 8H50.6981C52.6548 8 53.6332 8 54.5539 8.22104C55.3701 8.41702 56.1505 8.74025 56.8663 9.17888C57.6736 9.67361 58.3654 10.3654 59.749 11.749L76.251 28.251C77.6346 29.6346 78.3264 30.3264 78.8211 31.1337C79.2598 31.8495 79.583 32.6299 79.779 33.4461C80 34.3668 80 35.3452 80 37.3019V75.2C80 79.6804 80 81.9206 79.1281 83.6319C78.3611 85.1372 77.1372 86.3611 75.6319 87.1281C73.9206 88 71.6804 88 67.2 88H54.5C53.6716 88 53 87.3284 53 86.5C53 85.6716 53.6716 85 54.5 85H67.2ZM73 30.9995C73.6183 30.9995 74.2016 30.9994 74.7532 30.9983C74.5701 30.8135 74.3636 30.6062 74.1296 30.3723L57.6277 13.8704C57.3936 13.6362 57.1861 13.4295 57.0011 13.2463C57.0001 13.7979 57 14.3812 57 14.9995C57 18.3135 57.0022 20.6237 57.1453 22.424C57.2857 24.1907 57.5475 25.2082 57.9281 25.98C58.8044 27.7569 60.2425 29.195 62.0194 30.0713C62.7912 30.4519 63.8087 30.7138 65.5755 30.8542C67.3757 30.9972 69.6859 30.9995 73 30.9995Z" fill="black"/>
<path d="M37.9824 62.8665C37.3564 62.3239 36.4091 62.3916 35.8665 63.0176C35.3239 63.6437 35.3916 64.591 36.0176 65.1336L40.4789 69H24C23.1716 69 22.5 69.6716 22.5 70.5C22.5 71.3284 23.1716 72 24 72H40.479L36.0176 75.8665C35.3916 76.409 35.3239 77.3564 35.8665 77.9824C36.4091 78.6085 37.3564 78.6761 37.9824 78.1336L44.6105 72.3892C45.7607 71.3924 45.7607 69.6077 44.6105 68.6108L37.9824 62.8665Z" fill="black"/>
<path fill-rule="evenodd" clip-rule="evenodd" d="M34 92C46.1503 92 56 82.1503 56 70C56 57.8497 46.1503 48 34 48C21.8497 48 12 57.8497 12 70C12 82.1503 21.8497 92 34 92ZM34 89C44.4934 89 53 80.4934 53 70C53 59.5066 44.4934 51 34 51C23.5066 51 15 59.5066 15 70C15 80.4934 23.5066 89 34 89Z" fill="black"/>
</g>
<defs>
<clipPath id="clip0_8545_315">
<rect width="96" height="96" fill="white"/>
</clipPath>
</defs>
</svg>
