<?xml version="1.0" encoding="UTF-8"?>
<svg id="Ikony" xmlns="http://www.w3.org/2000/svg" viewBox="0 0 24 24">
  <path d="m5.5,14.25h-1.75c-.41,0-.75-.34-.75-.75s.34-.75.75-.75h1.75v-1.75c0-.41.34-.75.75-.75s.75.34.75.75v1.75h1.75c.41,0,.75.34.75.75s-.34.75-.75.75h-1.75v1.75c0,.41-.34.75-.75.75s-.75-.34-.75-.75v-1.75Zm14.5-4.72l-.04,10.74c0,.96-.79,1.75-1.75,1.75H5.68c-.96,0-1.75-.79-1.75-1.75v-1.35c0-.41.34-.75.75-.75s.75.34.75.75v1.35c0,.14.11.25.25.25h12.53c.14,0,.25-.11.25-.25l.04-10.74s0-.01,0-.02c-.03,0-.06.02-.09.02h-4.44c-.96,0-1.75-.79-1.75-1.75V3.5s-.04-.01-.06-.01h-6.44c-.14,0-.25.11-.25.25v4.73c0,.41-.34.75-.75.75s-.75-.34-.75-.75V3.74c0-.96.79-1.75,1.75-1.75h6.44c.71,0,1.38.27,1.89.75l5.16,4.93c.51.49.8,1.16.8,1.86Zm-6.03-1.51h3.43l-3.68-3.52v3.27c0,.14.11.25.25.25Z"/>
</svg>