<?xml version="1.0" encoding="UTF-8"?>
<svg id="Warstwa_5" data-name="Warstwa 5" xmlns="http://www.w3.org/2000/svg" viewBox="0 0 24 24">
  <defs>
    <style>
      .cls-1 {
        fill: #010101;
      }
    </style>
  </defs>
  <path class="cls-1" d="m18.83,2.91H5.17c-1.25,0-2.26,1.01-2.26,2.26v13.66c0,1.24,1.01,2.26,2.26,2.26h13.65c1.25,0,2.26-1.01,2.26-2.26V5.17c0-1.25-1.01-2.26-2.26-2.26Zm-10.06,12.36c0,.41-.34.75-.75.75s-.75-.34-.75-.75v-6.54c0-.41.34-.75.75-.75s.75.34.75.75v6.54Zm4,1.96c0,.41-.34.75-.75.75s-.75-.34-.75-.75V6.72c0-.41.34-.75.75-.75s.75.34.75.75v10.51Zm4-1.96c0,.41-.34.75-.75.75s-.75-.34-.75-.75v-6.54c0-.41.34-.75.75-.75s.75.34.75.75v6.54Z"/>
</svg>