<svg width="96" height="96" viewBox="0 0 96 96" fill="none" xmlns="http://www.w3.org/2000/svg">
<path d="M23.9591 11.3378C23.3733 10.752 22.4236 10.752 21.8378 11.3378C21.252 11.9236 21.252 12.8733 21.8378 13.4591L26.0804 17.7017C26.6662 18.2875 27.616 18.2875 28.2017 17.7017C28.7875 17.116 28.7875 16.1662 28.2017 15.5804L23.9591 11.3378Z" fill="black"/>
<path d="M12.5 35.9998C11.6716 35.9998 11 36.6713 11 37.4998C11 38.3282 11.6716 38.9998 12.5 38.9998H18.5C19.3284 38.9998 20 38.3282 20 37.4998C20 36.6713 19.3284 35.9998 18.5 35.9998H12.5Z" fill="black"/>
<path d="M77.5 35.9998C76.6716 35.9998 76 36.6713 76 37.4998C76 38.3282 76.6716 38.9998 77.5 38.9998H83.5C84.3284 38.9998 85 38.3282 85 37.4998C85 36.6713 84.3284 35.9998 83.5 35.9998H77.5Z" fill="black"/>
<path d="M67.7987 57.2987C68.3845 56.7129 69.3342 56.7129 69.92 57.2987L74.1627 61.5414C74.7485 62.1271 74.7485 63.0769 74.1627 63.6627C73.5769 64.2485 72.6271 64.2485 72.0414 63.6627L67.7987 59.42C67.2129 58.8343 67.2129 57.8845 67.7987 57.2987Z" fill="black"/>
<path d="M28.2013 57.2987C27.6155 56.7129 26.6658 56.7129 26.08 57.2987L21.8373 61.5414C21.2515 62.1271 21.2515 63.0769 21.8373 63.6627C22.4231 64.2485 23.3729 64.2485 23.9586 63.6627L28.2013 59.42C28.7871 58.8343 28.7871 57.8845 28.2013 57.2987Z" fill="black"/>
<path d="M72.0409 11.3378C72.6267 10.752 73.5764 10.752 74.1622 11.3378C74.748 11.9236 74.748 12.8733 74.1622 13.4591L69.9196 17.7017C69.3338 18.2875 68.384 18.2875 67.7983 17.7017C67.2125 17.116 67.2125 16.1662 67.7983 15.5804L72.0409 11.3378Z" fill="black"/>
<path d="M46.5 26C46.5 25.1716 47.1716 24.5 48 24.5C55.4558 24.5 61.5 30.5442 61.5 38C61.5 38.8284 60.8284 39.5 60 39.5C59.1716 39.5 58.5 38.8284 58.5 38C58.5 32.201 53.799 27.5 48 27.5C47.1716 27.5 46.5 26.8284 46.5 26Z" fill="black"/>
<path fill-rule="evenodd" clip-rule="evenodd" d="M57.3627 66.2996L58.0442 64.8126C58.4629 63.899 58.6723 63.4423 58.9699 62.9057C59.1235 62.6288 59.2085 62.47 59.263 62.3682C59.3117 62.2771 59.3361 62.2316 59.3633 62.1879C59.3906 62.1442 59.4207 62.1022 59.481 62.0185C59.5485 61.9247 59.6537 61.7785 59.8348 61.5186C60.1855 61.0153 62.3208 58.4032 66.5912 53.179C69.972 49.0432 72 43.7584 72 38C72 24.7452 61.2548 14 48 14C34.7452 14 24 24.7452 24 38C24 43.7584 26.028 49.0432 29.4088 53.179C33.6789 58.4028 35.8145 61.0153 36.1653 61.5186C36.3463 61.7785 36.4515 61.9247 36.519 62.0184C36.5793 62.1022 36.6094 62.1442 36.6367 62.1879C36.6639 62.2316 36.6883 62.2771 36.737 62.3681C36.7915 62.4699 36.8768 62.6294 37.0301 62.9057C37.3277 63.4423 37.5371 63.899 37.9557 64.8125L38.6373 66.2996C37.6315 67.2142 37 68.5334 37 70C37 70.8711 37.2228 71.6901 37.6144 72.4033C38.0715 73.2356 38.3 73.6517 38.3303 73.8005C38.3383 73.8398 38.345 73.8705 38.3504 73.8953C38.3619 73.9475 38.3677 73.9739 38.3677 74C38.3677 74.0261 38.362 74.0523 38.3505 74.1045L38.3424 74.1418C38.3402 74.1519 38.3379 74.1628 38.3354 74.1746C38.3338 74.1825 38.3321 74.1908 38.3303 74.1995C38.3 74.3483 38.0715 74.7644 37.6145 75.5965C37.2228 76.3097 37 77.1289 37 78C37 80.7614 39.2386 83 42 83H54C56.7614 83 59 80.7614 59 78C59 77.1289 58.7772 76.3099 58.3856 75.5966C57.9287 74.7647 57.7 74.3483 57.6697 74.1995L57.6628 74.1661C57.6577 74.142 57.6533 74.1218 57.6495 74.1045C57.6381 74.0522 57.6323 74.0261 57.6323 74C57.6323 73.9739 57.6381 73.9478 57.6495 73.8955C57.6549 73.8707 57.6617 73.8399 57.6697 73.8005C57.7 73.6517 57.9285 73.2356 58.3855 72.4034C58.7772 71.6902 59 70.8711 59 70C59 68.5334 58.3685 67.2142 57.3627 66.2996ZM64.2685 51.2803C67.2273 47.6607 69 43.0414 69 38C69 26.402 59.598 17 48 17C36.402 17 27 26.402 27 38C27 43.0414 28.7727 47.6607 31.7315 51.2803L32.295 51.9697C36.1251 56.6549 38.2085 59.2035 38.6266 59.8034C38.7872 60.0339 38.8815 60.1654 38.9433 60.2513L38.9577 60.2712C39.0043 60.3356 39.0977 60.4647 39.1824 60.6006C39.2671 60.7366 39.342 60.8773 39.3793 60.9474L39.3909 60.9691C39.4408 61.0623 39.5173 61.2049 39.6536 61.4506C40.0075 62.0886 40.2612 62.6422 40.6497 63.4901L41.3603 65.0405C41.5698 65.0138 41.7833 65 42 65H54C54.2167 65 54.4302 65.0138 54.6397 65.0405L55.3503 63.4901C55.7388 62.6423 55.9926 62.0885 56.3464 61.4506C56.4827 61.2049 56.5592 61.0623 56.6091 60.9691L56.6206 60.9475C56.6579 60.8774 56.7328 60.7366 56.8176 60.6006C56.9023 60.4647 56.9957 60.3356 57.0423 60.2712L57.0567 60.2512C57.1185 60.1654 57.2128 60.0339 57.3735 59.8034C57.7915 59.2035 59.8745 56.6554 63.704 51.9709L64.2685 51.2803ZM40 70C40 68.8954 40.8954 68 42 68H54C55.1046 68 56 68.8954 56 70C56 70.3536 55.9108 70.6774 55.756 70.9592L55.7387 70.9908C55.5251 71.3798 55.3404 71.7161 55.2069 71.9724C55.1384 72.104 55.0621 72.2548 54.9944 72.4052L54.9927 72.409C54.9475 72.5094 54.808 72.8193 54.73 73.2019L54.7223 73.2386L54.7218 73.2406C54.7198 73.2499 54.7112 73.2889 54.7054 73.3167L54.7039 73.3237C54.6895 73.3918 54.6323 73.6621 54.6323 74C54.6323 74.3378 54.6894 74.6079 54.7039 74.6762L54.7054 74.6833C54.7111 74.7106 54.7195 74.7487 54.7217 74.7589L54.7223 74.7614L54.73 74.7981C54.808 75.1807 54.9475 75.4906 54.9927 75.591L54.9944 75.5948C55.0621 75.7452 55.1384 75.896 55.2069 76.0276C55.3404 76.2839 55.5249 76.62 55.7385 77.0089L55.756 77.0408C55.9108 77.3226 56 77.6464 56 78C56 79.1046 55.1046 80 54 80H42C40.8954 80 40 79.1046 40 78C40 77.6464 40.0892 77.3226 40.244 77.0408L40.2615 77.0089C40.475 76.6201 40.6597 76.2838 40.7931 76.0276C40.8616 75.896 40.9379 75.7452 41.0056 75.5948L41.0073 75.591C41.0526 75.4905 41.192 75.1807 41.27 74.7981L41.2777 74.7614L41.2781 74.7596C41.2801 74.7505 41.2888 74.7113 41.2946 74.6833L41.2961 74.6763C41.3105 74.6082 41.3677 74.3379 41.3677 74C41.3677 73.6621 41.3105 73.3918 41.2961 73.3237L41.2946 73.3167C41.2912 73.3003 41.2868 73.2799 41.2833 73.2641C41.2809 73.253 41.279 73.2442 41.2781 73.2404L41.2777 73.2386L41.27 73.2019C41.192 72.8193 41.0526 72.5094 41.0073 72.409L41.0056 72.4052C40.9379 72.2548 40.8616 72.104 40.7931 71.9724C40.6596 71.7161 40.4751 71.38 40.2614 70.991L40.244 70.9592C40.0892 70.6774 40 70.3536 40 70Z" fill="black"/>
<path d="M40.1719 82.6562C40.9342 86.2804 44.1496 89.0012 48.0005 89.0012C51.8513 89.0012 55.0667 86.2804 55.8291 82.6562C55.2627 82.8789 54.6459 83.0012 54.0005 83.0012H52.5844C51.8129 84.7671 50.0508 86.0012 48.0005 86.0012C45.9501 86.0012 44.1881 84.7671 43.4165 83.0012H42.0005C41.3551 83.0012 40.7382 82.8789 40.1719 82.6562Z" fill="black"/>
</svg>
