<?xml version="1.0" encoding="UTF-8"?>
<svg id="Ikony" xmlns="http://www.w3.org/2000/svg" viewBox="0 0 24 24">
  <defs>
    <style>
      .cls-1 {
        fill: #010101;
      }
    </style>
  </defs>
  <path class="cls-1" d="m12.78,3.17h0,0m-.78,1.56l1.67,3.35c.31.62.91,1.06,1.6,1.16l3.7.53-2.67,2.57c-.51.49-.74,1.19-.62,1.89l.63,3.65-3.34-1.74c-.3-.16-.64-.24-.99-.24s-.68.08-.99.24l-3.34,1.74.63-3.65c.12-.69-.11-1.4-.62-1.89l-2.67-2.57,3.7-.53c.69-.1,1.29-.53,1.6-1.16l1.67-3.35m0-2.58c-.22,0-.45.12-.56.35l-2.45,4.91c-.09.18-.27.31-.47.34l-5.47.79c-.52.07-.72.7-.35,1.06l3.96,3.82c.15.14.22.35.18.55l-.93,5.39c-.07.4.25.73.62.73.1,0,.2-.02.29-.07l4.9-2.55c.09-.05.19-.07.29-.07s.2.02.29.07l4.9,2.55c.1.05.2.07.29.07.37,0,.69-.33.62-.73l-.93-5.39c-.04-.2.03-.41.18-.55l3.96-3.82c.37-.36.17-.99-.35-1.06l-5.47-.79c-.21-.03-.38-.16-.47-.34l-2.45-4.91c-.12-.23-.34-.35-.56-.35h0Z"/>
</svg>