<?xml version="1.0" encoding="UTF-8"?>
<svg id="Ikony" xmlns="http://www.w3.org/2000/svg" viewBox="0 0 64 64">
  <defs>
    <style>
      .cls-1 {
        fill: #010101;
        stroke-width: 0px;
      }
    </style>
  </defs>
  <path class="cls-1" d="m32,0C14.33,0,0,14.32,0,32s14.33,32,32,32,32-14.33,32-32S49.67,0,32,0Zm0,61c-15.99,0-29-13.01-29-29S16.01,3,32,3s29,13.01,29,29-13.01,29-29,29Z"/>
  <path class="cls-1" d="m42.8,21.2c-.59-.59-1.54-.59-2.12,0l-8.68,8.68-8.68-8.68c-.59-.59-1.54-.59-2.12,0-.58.59-.59,1.54,0,2.12l8.68,8.68-8.68,8.68c-.59.59-.59,1.54,0,2.12.29.29.68.44,1.06.44s.77-.15,1.06-.44l8.68-8.68,8.68,8.68c.29.29.68.44,1.06.44s.77-.15,1.06-.44c.59-.59.59-1.54,0-2.12l-8.68-8.68,8.68-8.68c.59-.59.59-1.54,0-2.12Z"/>
</svg>