<svg width="96" height="96" viewBox="0 0 96 96" fill="none" xmlns="http://www.w3.org/2000/svg">
<path fill-rule="evenodd" clip-rule="evenodd" d="M15.7899 76.901C16.9734 76.9977 18.5103 77 20.8 77L75.2 77C77.4897 77 79.0266 76.9977 80.2101 76.901C81.3586 76.8071 81.9077 76.6396 82.27 76.455C83.2108 75.9757 83.9757 75.2108 84.455 74.27C84.6396 73.9077 84.8071 73.3586 84.901 72.2101C84.9977 71.0266 85 69.4897 85 67.2L85 28.8C85 26.5103 84.9977 24.9734 84.901 23.7899C84.8071 22.6414 84.6396 22.0923 84.455 21.7301C83.9757 20.7892 83.2108 20.0243 82.27 19.545C81.9077 19.3604 81.3586 19.1929 80.2101 19.099C79.0266 19.0023 77.4897 19 75.2 19L20.8 19C18.5103 19 16.9734 19.0023 15.7899 19.099C14.6414 19.1929 14.0923 19.3604 13.7301 19.545C12.7892 20.0243 12.0243 20.7892 11.545 21.73C11.3604 22.0923 11.1929 22.6414 11.099 23.7899C11.0023 24.9734 11 26.5103 11 28.8L11 67.2C11 69.4897 11.0023 71.0266 11.099 72.2101C11.1929 73.3586 11.3604 73.9077 11.545 74.2699C12.0243 75.2108 12.7892 75.9757 13.73 76.455C14.0923 76.6396 14.6414 76.8071 15.7899 76.901ZM87.1281 75.6319C88 73.9206 88 71.6804 88 67.2L88 28.8C88 24.3196 88 22.0794 87.1281 20.3681C86.3611 18.8628 85.1372 17.6389 83.6319 16.872C81.9206 16 79.6804 16 75.2 16L20.8 16C16.3196 16 14.0794 16 12.3681 16.8719C10.8628 17.6389 9.63894 18.8628 8.87195 20.3681C8.00001 22.0794 8 24.3196 8 28.8L8 67.2C8 71.6804 8 73.9206 8.87195 75.6319C9.63893 77.1372 10.8628 78.3611 12.3681 79.128C14.0794 80 16.3196 80 20.8 80L75.2 80C79.6804 80 81.9206 80 83.6319 79.1281C85.1372 78.3611 86.3611 77.1372 87.1281 75.6319ZM52 29.5C52 28.6716 52.6716 28 53.5 28H74.5C75.3284 28 76 28.6716 76 29.5C76 30.3284 75.3284 31 74.5 31H53.5C52.6716 31 52 30.3284 52 29.5ZM53.5 43C52.6716 43 52 43.6716 52 44.5C52 45.3284 52.6716 46 53.5 46H74.5C75.3284 46 76 45.3284 76 44.5C76 43.6716 75.3284 43 74.5 43H53.5ZM34 41C36.7614 41 39 38.7614 39 36C39 33.2386 36.7614 31 34 31C31.2386 31 29 33.2386 29 36C29 38.7614 31.2386 41 34 41ZM34 44C38.4183 44 42 40.4183 42 36C42 31.5817 38.4183 28 34 28C29.5817 28 26 31.5817 26 36C26 40.4183 29.5817 44 34 44ZM30 51H38C44.0751 51 49 55.9249 49 62V64C49 64.5523 48.5523 65 48 65H20C19.4477 65 19 64.5523 19 64V62C19 55.9249 23.9249 51 30 51ZM16 62C16 54.268 22.268 48 30 48H38C45.732 48 52 54.268 52 62V64C52 66.2091 50.2091 68 48 68H20C17.7909 68 16 66.2091 16 64V62Z" fill="black"/>
</svg>
