<?xml version="1.0" encoding="UTF-8"?>
<svg id="Ikony" xmlns="http://www.w3.org/2000/svg" viewBox="0 0 24 24">
  <defs>
    <style>
      .cls-1 {
        fill: #010101;
      }
    </style>
  </defs>
  <path class="cls-1" d="m19.99,4H3.99c-1.1,0-2,.9-2,2v12c0,1.1.9,2,2,2h16c1.1,0,2-.9,2-2V6c0-1.1-.9-2-2-2Zm-.56,1.5l-6.83,6.83c-.33.34-.88.34-1.22,0l-6.83-6.83h14.88Zm.56,13H3.99c-.28,0-.5-.22-.5-.5V6.56l6.83,6.83c.46.46,1.07.69,1.67.69s1.21-.23,1.67-.69l6.83-6.83v11.44c0,.28-.22.5-.5.5Z"/>
</svg>