<?xml version="1.0" encoding="UTF-8"?>
<svg id="Ikony" xmlns="http://www.w3.org/2000/svg" viewBox="0 0 97 96">
  <defs>
    <style>
      .cls-1 {
        fill: #010101;
        stroke-width: 0px;
      }
    </style>
  </defs>
  <path class="cls-1" d="m90.57,52.55s0-.03,0-.04l-10.06-33.81c-.7-2.36-2.91-4.01-5.38-4.01H21.91c-2.46,0-4.67,1.66-5.38,4.01L6.44,52.5c-.04.14-.06.29-.06.43l.03,22.77c0,3.09,2.52,5.61,5.61,5.61h73c3.09,0,5.61-2.52,5.61-5.61v-22.78c0-.13-.02-.26-.06-.39ZM19.41,19.56c.33-1.1,1.36-1.86,2.5-1.86h53.21c1.15,0,2.18.76,2.5,1.86l9.49,31.88h-16.62c-1.17,0-2.21.65-2.73,1.7l-4.33,8.71-29.52-.02-4.15-8.66c-.5-1.05-1.58-1.73-2.74-1.73H9.89l9.52-31.88Zm65.61,58.76H12.02c-1.44,0-2.61-1.17-2.61-2.61l-.03-21.27,17.68.02,4.15,8.66c.5,1.05,1.58,1.73,2.74,1.73h29.48c1.17,0,2.21-.65,2.73-1.7l4.33-8.71h17.13v21.28c0,1.44-1.17,2.61-2.61,2.61Z"/>
</svg>