<?xml version="1.0" encoding="UTF-8"?>
<svg id="Ikony" xmlns="http://www.w3.org/2000/svg" viewBox="0 0 24 24">
  <defs>
    <style>
      .cls-1 {
        stroke-width: 0px;
      }
    </style>
  </defs>
  <path class="cls-1" d="M12.15,11.11l1.74-4.1c.17-.39.73-.38.88.02l1.44,3.96c.23.63.73,1.14,1.36,1.38l4.12,1.56c.4.15.41.71.02.88l-4.22,1.79c-.58.25-1.04.72-1.26,1.31l-1.46,3.81c-.15.39-.7.41-.87.02l-1.76-3.95c-.23-.52-.65-.94-1.17-1.17l-4.02-1.81c-.38-.17-.37-.71.02-.87l3.92-1.58c.57-.23,1.03-.68,1.27-1.24Z"/>
  <path class="cls-1" d="M4.41,7.05l.89-2.1c.09-.2.37-.19.45.01l.74,2.03c.12.32.37.58.7.7l2.11.8c.2.08.21.36,0,.45l-2.16.91c-.3.13-.53.37-.65.67l-.75,1.95c-.08.2-.36.21-.45.01l-.9-2.02c-.12-.27-.33-.48-.6-.6l-2.06-.93c-.19-.09-.19-.37,0-.45l2.01-.81c.29-.12.53-.35.65-.64Z"/>
  <path class="cls-1" d="M10.13,3.28l.51-1.19c.05-.11.21-.11.26,0l.42,1.15c.07.18.21.33.4.4l1.2.45c.12.04.12.21,0,.26l-1.23.52c-.17.07-.3.21-.37.38l-.42,1.11c-.04.11-.2.12-.25,0l-.51-1.15c-.07-.15-.19-.27-.34-.34l-1.17-.53c-.11-.05-.11-.21,0-.25l1.14-.46c.17-.07.3-.2.37-.36Z"/>
</svg>