<?xml version="1.0" encoding="UTF-8"?>
<svg id="Ikony" xmlns="http://www.w3.org/2000/svg" viewBox="0 0 24 24">
  <defs>
    <style>
      .cls-1, .cls-2 {
        stroke-width: 0px;
      }

      .cls-2 {
        fill: #010101;
      }
    </style>
  </defs>
  <path class="cls-2" d="m12.39,20.92h8.5c.23,0,.4-.2.4-.4v-1.59c0-.23-.2-.4-.4-.4h-8.49c-.23,0-.4.2-.4.4,0,0,0,1.59,0,1.59,0,.23.2.4.4.4Z"/>
  <path class="cls-2" d="m13.2,17.95h8.5c.23,0,.4-.2.4-.4v-1.59c0-.23-.2-.4-.4-.4h-8.49c-.23,0-.4.2-.4.4,0,0,0,1.59,0,1.59,0,.23.2.4.4.4Z"/>
  <path class="cls-2" d="m12.39,14.98h8.5c.23,0,.4-.2.4-.4v-1.59c0-.23-.2-.4-.4-.4h-8.49c-.23,0-.4.2-.4.4,0,0,0,1.59,0,1.59,0,.23.2.4.4.4Z"/>
  <path class="cls-2" d="m10.39,12h8.5c.23,0,.4-.2.4-.4v-1.59c0-.23-.2-.4-.4-.4h-8.49c-.23,0-.4.2-.4.4,0,0,0,1.59,0,1.59,0,.23.2.4.4.4Z"/>
  <path class="cls-2" d="m11.37,9.03h8.5c.23,0,.4-.2.4-.4v-1.59c0-.23-.2-.4-.4-.4h-8.49c-.23,0-.4.2-.4.4,0,0,0,1.59,0,1.59,0,.23.2.4.4.4Z"/>
  <path class="cls-2" d="m7.73,6.03h8.5c.23,0,.4-.2.4-.4v-1.59c0-.23-.2-.4-.4-.4H7.74c-.23,0-.4.2-.4.4,0,0,0,1.59,0,1.59,0,.23.2.4.4.4Z"/>
  <path class="cls-1" d="m6.63,11.46c-2.61,0-4.73,2.13-4.73,4.73s2.12,4.73,4.73,4.73,4.73-2.12,4.73-4.73-2.12-4.73-4.73-4.73Z"/>
</svg>