<?xml version="1.0" encoding="UTF-8"?>
<svg id="Ikony" xmlns="http://www.w3.org/2000/svg" viewBox="0 0 24 24">
  <defs>
    <style>
      .cls-1 {
        fill: #010101;
      }
    </style>
  </defs>
  <path class="cls-1" d="m5.21,6.97l3.41,3.41c-.35.72-.46,1.54-.3,2.33.4,2.03,2.37,3.36,4.4,2.96s3.36-2.37,2.96-4.4c-.29-1.5-1.46-2.66-2.96-2.96-.79-.15-1.61-.04-2.33.31l-3.41-3.42c-.48-.5-1.27-.51-1.77-.03,0,0,0,0,0,0l-.02.02c-.48.49-.48,1.28.02,1.77h0Zm6.79,3.77c.69,0,1.25.56,1.25,1.25s-.56,1.25-1.25,1.25-1.25-.56-1.25-1.25.56-1.25,1.25-1.25Z"/>
  <path class="cls-1" d="m17.28,3.51c-.58-.37-1.35-.21-1.73.37-.08.13-.14.28-.17.43-.11.51.12,1.03.56,1.31,3.53,2.17,4.63,6.79,2.46,10.32-2.17,3.53-6.79,4.63-10.32,2.46-2.22-1.37-3.57-3.79-3.57-6.39,0-.44.04-.88.12-1.31.12-.68-.34-1.33-1.02-1.45-.68-.12-1.33.34-1.45,1.02-.96,5.44,2.67,10.63,8.1,11.59,5.44.96,10.63-2.67,11.59-8.1.1-.58.15-1.16.15-1.74,0-3.46-1.79-6.67-4.72-8.49Z"/>
  <path class="cls-1" d="m12,4.5c.69,0,1.25-.56,1.25-1.25s-.56-1.25-1.25-1.25-1.25.56-1.25,1.25.56,1.25,1.25,1.25Z"/>
</svg>