<svg width="24" height="24" viewBox="0 0 24 24" fill="none" xmlns="http://www.w3.org/2000/svg">
<path fill-rule="evenodd" clip-rule="evenodd" d="M3.79688 10.2C3.79688 5.7 7.49687 2 11.9969 2C16.4969 2 20.1969 5.7 20.1969 10.2C20.1969 13.6 15.5969 19 13.2969 21.5C12.8969 21.9 12.4969 22.1 11.9969 22.1C11.4969 22.1 10.9969 21.9 10.6969 21.5C8.39687 19 3.79688 13.6 3.79688 10.2ZM11.9969 13C13.6537 13 14.9969 11.6569 14.9969 10C14.9969 8.34315 13.6537 7 11.9969 7C10.34 7 8.99689 8.34315 8.99689 10C8.99689 11.6569 10.34 13 11.9969 13Z" fill="black"/>
</svg>
