<?xml version="1.0" encoding="UTF-8"?>
<svg id="Ikony" xmlns="http://www.w3.org/2000/svg" viewBox="0 0 24 24">
  <defs>
    <style>
      .cls-1 {
        fill: #1d1d1b;
      }
    </style>
  </defs>
  <path class="cls-1" d="m16.65,6.48h-1.26c0-.05.02-.1.02-.15v-3.39c0-.52-.42-.94-.94-.94s-.94.42-.94.94v3.39c0,.05,0,.1.02.15h-3.15c0-.05.02-.1.02-.15v-3.39c0-.52-.42-.94-.94-.94s-.94.42-.94.94v3.39c0,.05,0,.1.02.15h-1.21c-.86,0-1.56.7-1.56,1.56v1.46c0,2.95,2.17,5.4,5,5.85h-.65c-.69,0-1.25.56-1.25,1.25s.56,1.25,1.25,1.25h.61v2.9c0,.69.56,1.25,1.25,1.25s1.25-.56,1.25-1.25v-2.9h.61c.69,0,1.25-.56,1.25-1.25s-.56-1.25-1.25-1.25h-.74c.08,0,.17,0,.25-.02,2.75-.51,4.85-2.92,4.85-5.82v-1.46c0-.86-.7-1.56-1.56-1.56Z"/>
</svg>