<?xml version="1.0" encoding="UTF-8"?>
<svg id="Ikony" xmlns="http://www.w3.org/2000/svg" viewBox="0 0 24 24">
  <defs>
    <style>
      .cls-1 {
        fill: #010101;
      }
    </style>
  </defs>
  <path class="cls-1" d="m16.19,20.39c0,.41-.34.75-.75.75H5.16c-1.19,0-2.15-.96-2.15-2.15v-.57c0-3.59,2.81-6.39,6.39-6.39h2.77c.41,0,.75.34.75.75s-.34.75-.75.75h-2.77c-2.74,0-4.89,2.15-4.89,4.89v.57c0,.36.29.65.65.65h10.28c.41,0,.75.34.75.75ZM7.55,6.41c0-2.46,1.99-4.45,4.45-4.45s4.45,1.99,4.45,4.45-1.99,4.45-4.45,4.45-4.45-1.99-4.45-4.45Zm1.5,0c0,1.62,1.32,2.95,2.95,2.95s2.95-1.32,2.95-2.95-1.32-2.95-2.95-2.95-2.95,1.32-2.95,2.95Zm11.19,8.11h-1.75v-1.75c0-.41-.34-.75-.75-.75s-.75.34-.75.75v1.75h-1.75c-.41,0-.75.34-.75.75s.34.75.75.75h1.75v1.75c0,.41.34.75.75.75s.75-.34.75-.75v-1.75h1.75c.41,0,.75-.34.75-.75s-.34-.75-.75-.75Z"/>
</svg>