<svg width="96" height="96" viewBox="0 0 96 96" fill="none" xmlns="http://www.w3.org/2000/svg">
<path fill-rule="evenodd" clip-rule="evenodd" d="M46.5 12.0393C31.7314 12.8165 19.9956 25.0377 19.9956 40V50.4633C19.9956 52.4227 19.2765 54.3139 17.9748 55.7783L11.8354 62.6851C7.24948 67.8443 10.9119 76 17.8147 76H32V78C32 84.6274 37.3726 90 44 90H52C58.6274 90 64 84.6274 64 78V76H78.1808C85.0836 76 88.7461 67.8443 84.1601 62.6851L78.0163 55.7733C76.7146 54.3089 75.9956 52.4177 75.9956 50.4584V40C75.9956 25.0407 64.2645 12.8214 49.5 12.0397V8C49.5 7.17157 48.8284 6.5 48 6.5C47.1716 6.5 46.5 7.17157 46.5 8V12.0393ZM78.1808 73C82.4951 73 84.7841 67.9027 81.9179 64.6782L75.7741 57.7664C73.9842 55.7528 72.9956 53.1525 72.9956 50.4584V40C72.9956 26.1929 61.8027 15 47.9956 15C34.1885 15 22.9956 26.1929 22.9956 40V50.4633C22.9956 53.1574 22.0069 55.7578 20.2171 57.7714L14.0777 64.6782C11.2114 67.9027 13.5005 73 17.8147 73H46.1852L46.2101 72.9999C47.3969 72.9948 48.5986 72.9948 49.7854 72.9999L49.8103 73H78.1808ZM35 76H46.1852L46.2231 75.9999C47.4013 75.9948 49.7724 75.9999 49.7724 75.9999C49.7724 75.9999 45.4405 75.9904 49.8103 76C54.1802 76.0096 61 76 61 76V78C61 82.9706 56.9706 87 52 87H44C39.0294 87 35 82.9706 35 78V76Z" fill="black"/>
</svg>
