<svg width="24" height="24" viewBox="0 0 24 24" fill="none" xmlns="http://www.w3.org/2000/svg">
<path fill-rule="evenodd" clip-rule="evenodd" d="M4 5C2.34315 5 1 6.34315 1 8V16C1 17.6569 2.34315 19 4 19H12.4104C11.8328 18.053 11.5 16.9404 11.5 15.75C11.5 12.2982 14.2982 9.5 17.75 9.5C19.9511 9.5 21.8865 10.6379 23 12.3575V8C23 6.34315 21.6569 5 20 5H4ZM6.75 11.5C7.99264 11.5 9 10.4926 9 9.25C9 8.00736 7.99264 7 6.75 7C5.50736 7 4.5 8.00736 4.5 9.25C4.5 10.4926 5.50736 11.5 6.75 11.5ZM3 16C3 14.3431 4.34315 13 6 13H7.5C9.15685 13 10.5 14.3431 10.5 16C10.5 16.5523 10.0523 17 9.5 17H4C3.44772 17 3 16.5523 3 16Z" fill="black"/>
<path fill-rule="evenodd" clip-rule="evenodd" d="M17.75 20.5C20.3734 20.5 22.5 18.3734 22.5 15.75C22.5 13.1266 20.3734 11 17.75 11C15.1266 11 13 13.1266 13 15.75C13 18.3734 15.1266 20.5 17.75 20.5ZM16.25 13.5C15.8358 13.5 15.5 13.8358 15.5 14.25V17.25C15.5 17.6642 15.8358 18 16.25 18C16.6642 18 17 17.6642 17 17.25V14.25C17 13.8358 16.6642 13.5 16.25 13.5ZM18.5 14.25C18.5 13.8358 18.8358 13.5 19.25 13.5C19.6642 13.5 20 13.8358 20 14.25V17.25C20 17.6642 19.6642 18 19.25 18C18.8358 18 18.5 17.6642 18.5 17.25V14.25Z" fill="black"/>
</svg>
