<svg width="24" height="24" viewBox="0 0 24 24" fill="none" xmlns="http://www.w3.org/2000/svg">
<path fill-rule="evenodd" clip-rule="evenodd" d="M7.48695 16.1817C7.05304 15.7908 6.45326 15.2506 5.33155 15.2511C4.21045 15.2516 3.61098 15.7911 3.17708 16.1817C3.17255 16.1857 3.16804 16.1898 3.16354 16.1938C2.76532 16.5522 2.53229 16.7511 1.99854 16.7511C1.58432 16.7511 1.24854 17.0869 1.24854 17.5011C1.24853 17.9153 1.58432 18.2511 1.99854 18.2511C3.12 18.2511 3.71957 17.7115 4.15363 17.3208C4.15805 17.3168 4.16247 17.3129 4.16686 17.3089C4.56522 16.9505 4.79833 16.7513 5.33218 16.7511C5.86551 16.7509 6.09832 16.9498 6.49668 17.3085L6.51012 17.3206C6.94403 17.7114 7.54381 18.2516 8.66552 18.2511L8.66489 16.7511C8.13156 16.7513 7.89875 16.5524 7.50039 16.1938L7.48695 16.1817Z" fill="black"/>
<path fill-rule="evenodd" clip-rule="evenodd" d="M14.1549 16.1817C13.721 15.7908 13.1212 15.2506 11.9995 15.2511C10.8784 15.2516 10.2789 15.7911 9.84505 16.1817C9.84052 16.1857 9.83601 16.1898 9.83151 16.1938C9.43329 16.5522 9.20026 16.7511 8.6665 16.7511L8.66552 18.2511C9.78698 18.2511 10.3875 17.7115 10.8216 17.3208C10.826 17.3168 10.8304 17.3129 10.8348 17.3089C11.2332 16.9505 11.4663 16.7513 12.0002 16.7511C12.5335 16.7509 12.7663 16.9498 13.1646 17.3085L13.1781 17.3206C13.612 17.7114 14.2118 18.2516 15.3335 18.2511L15.3329 16.7511C14.7995 16.7513 14.5667 16.5524 14.1684 16.1938L14.1549 16.1817Z" fill="black"/>
<path fill-rule="evenodd" clip-rule="evenodd" d="M20.819 16.1817C20.3851 15.7908 19.7853 15.2506 18.6636 15.2511C17.5425 15.2516 16.943 15.7911 16.5091 16.1817C16.5046 16.1857 16.5001 16.1898 16.4956 16.1938C16.0973 16.5522 15.8643 16.7511 15.3306 16.7511V18.2511C16.452 18.2511 17.0516 17.7115 17.4857 17.3208C17.4901 17.3168 17.4945 17.3129 17.4989 17.3089C17.8973 16.9505 18.1304 16.7513 18.6642 16.7511C19.1975 16.7509 19.4304 16.9498 19.8287 17.3085L19.8422 17.3206C20.2761 17.7114 20.8758 18.2516 21.9975 18.2511C22.4118 18.2509 22.7474 17.915 22.7472 17.5008C22.7471 17.0866 22.4111 16.7509 21.9969 16.7511C21.4636 16.7513 21.2308 16.5524 20.8324 16.1938L20.819 16.1817Z" fill="black"/>
<path fill-rule="evenodd" clip-rule="evenodd" d="M7.48695 19.6817C7.05304 19.2908 6.45326 18.7506 5.33155 18.7511C4.21045 18.7516 3.61098 19.2911 3.17708 19.6817C3.17255 19.6857 3.16804 19.6898 3.16354 19.6938C2.76532 20.0522 2.53229 20.2511 1.99854 20.2511C1.58432 20.2511 1.24854 20.5869 1.24854 21.0011C1.24853 21.4153 1.58432 21.7511 1.99854 21.7511C3.12 21.7511 3.71957 21.2115 4.15363 20.8208C4.15805 20.8168 4.16247 20.8129 4.16686 20.8089C4.56522 20.4505 4.79833 20.2513 5.33218 20.2511C5.86551 20.2509 6.09832 20.4498 6.49668 20.8085L6.51012 20.8206C6.94403 21.2114 7.54381 21.7516 8.66552 21.7511L8.66489 20.2511C8.13156 20.2513 7.89875 20.0524 7.50039 19.6938L7.48695 19.6817Z" fill="black"/>
<path fill-rule="evenodd" clip-rule="evenodd" d="M14.1549 19.6817C13.721 19.2908 13.1212 18.7506 11.9995 18.7511C10.8784 18.7516 10.2789 19.2911 9.84505 19.6817C9.84052 19.6857 9.83601 19.6898 9.83151 19.6938C9.43329 20.0522 9.20026 20.2511 8.6665 20.2511L8.66552 21.7511C9.78698 21.7511 10.3875 21.2115 10.8216 20.8208C10.826 20.8168 10.8304 20.8129 10.8348 20.8089C11.2332 20.4505 11.4663 20.2513 12.0002 20.2511C12.5335 20.2509 12.7663 20.4498 13.1646 20.8085L13.1781 20.8206C13.612 21.2114 14.2118 21.7516 15.3335 21.7511L15.3329 20.2511C14.7995 20.2513 14.5667 20.0524 14.1684 19.6938L14.1549 19.6817Z" fill="black"/>
<path fill-rule="evenodd" clip-rule="evenodd" d="M20.819 19.6817C20.3851 19.2908 19.7853 18.7506 18.6636 18.7511C17.5425 18.7516 16.943 19.2911 16.5091 19.6817C16.5046 19.6857 16.5001 19.6898 16.4956 19.6938C16.0973 20.0522 15.8643 20.2511 15.3306 20.2511V21.7511C16.452 21.7511 17.0516 21.2115 17.4857 20.8208C17.4901 20.8168 17.4945 20.8129 17.4989 20.8089C17.8973 20.4505 18.1304 20.2513 18.6642 20.2511C19.1975 20.2509 19.4304 20.4498 19.8287 20.8085L19.8422 20.8206C20.2761 21.2114 20.8758 21.7516 21.9975 21.7511C22.4118 21.7509 22.7474 21.415 22.7472 21.0008C22.7471 20.5866 22.4111 20.2509 21.9969 20.2511C21.4636 20.2513 21.2308 20.0524 20.8324 19.6938L20.819 19.6817Z" fill="black"/>
<path fill-rule="evenodd" clip-rule="evenodd" d="M9.90339 4.64942L7.49834 8.95393C6.84225 10.1282 6.5142 10.7153 6.56952 11.196C6.61779 11.6154 6.84055 11.9951 7.18314 12.2418C7.57581 12.5245 8.24837 12.5245 9.59349 12.5245H14.4036C15.7487 12.5245 16.4213 12.5245 16.8139 12.2418C17.1565 11.9951 17.3793 11.6154 17.4275 11.196C17.4829 10.7153 17.1548 10.1282 16.4987 8.95394L14.0937 4.64942C13.4091 3.42422 13.0669 2.81162 12.6163 2.60799C12.2236 2.43047 11.7735 2.43047 11.3807 2.60799C10.9302 2.81162 10.5879 3.42422 9.90339 4.64942ZM11.271 5.29072C11.2588 5.05251 11.4486 4.85267 11.6872 4.85267H12.3099C12.5484 4.85267 12.7383 5.05252 12.726 5.29072L12.5813 8.10738C12.57 8.3289 12.387 8.50267 12.1652 8.50267H11.8318C11.61 8.50267 11.4271 8.3289 11.4157 8.10738L11.271 5.29072ZM12.8735 10.1769C12.8735 10.6601 12.4818 11.0519 11.9985 11.0519C11.5153 11.0519 11.1235 10.6601 11.1235 10.1769C11.1235 9.69364 11.5153 9.30189 11.9985 9.30189C12.4818 9.30189 12.8735 9.69364 12.8735 10.1769Z" fill="black"/>
</svg>
