<?xml version="1.0" encoding="UTF-8"?>
<svg id="Ikony" xmlns="http://www.w3.org/2000/svg" viewBox="0 0 20 20">
  <defs>
    <style>
      .cls-1 {
        fill: #010101;
      }

      .cls-2 {
        fill: #fff;
        opacity: 0;
      }
    </style>
  </defs>
  <rect class="cls-2" width="19.97" height="19.97"/>
  <g>
    <path class="cls-1" d="m10.24,10.5c.19,0,.38-.07.53-.22l4.67-4.67v3c0,.41.34.75.75.75s.75-.34.75-.75V3.8c0-.41-.34-.75-.75-.75h-4.81c-.41,0-.75.34-.75.75s.34.75.75.75h3l-4.67,4.67c-.29.29-.29.77,0,1.06.15.15.34.22.53.22Z"/>
    <path class="cls-1" d="m16.25,12.1c-.41,0-.75.34-.75.75v2.07c0,.32-.26.58-.58.58H5.08c-.32,0-.58-.26-.58-.58V5.08c0-.32.26-.58.58-.58h1.99c.41,0,.75-.34.75-.75s-.34-.75-.75-.75h-1.99c-1.14,0-2.08.93-2.08,2.08v9.85c0,1.14.93,2.08,2.08,2.08h9.85c1.14,0,2.08-.93,2.08-2.08v-2.07c0-.41-.34-.75-.75-.75Z"/>
  </g>
</svg>