<?xml version="1.0" encoding="UTF-8"?>
<svg id="Ikony" xmlns="http://www.w3.org/2000/svg" viewBox="0 0 96 96">
  <defs>
    <style>
      .cls-1 {
        fill: #010101;
        stroke-width: 0px;
      }
    </style>
  </defs>
  <path class="cls-1" d="m79,20.56c-.38-1.58-1.73-2.81-3.34-3.06-12.43-2.17-21.28-6.75-25.43-9.28-1.37-.87-3.03-.88-4.4-.01-4.17,2.54-13.01,7.12-25.42,9.29-1.64.25-2.98,1.44-3.41,3.05-5.07,19.86-1.48,38.43,10.12,52.3,7.67,9.13,16.51,13.89,18.97,15.09.59.32,1.27.5,1.92.5s1.26-.15,1.89-.47c2.53-1.24,11.37-6,19.04-15.13,11.6-13.87,15.18-32.44,10.08-52.28Zm-12.38,50.35c-7.29,8.67-15.67,13.19-18.07,14.37-.29.14-.45.16-.56.16-.14,0-.33-.05-.53-.16-2.39-1.18-10.77-5.69-18.06-14.36-10.96-13.1-14.33-30.73-9.51-49.61.12-.43.5-.77.99-.85,12.93-2.26,22.15-7.04,26.52-9.7.21-.13.41-.2.59-.2.21,0,.41.07.65.22,4.35,2.65,13.58,7.43,26.53,9.69.45.07.82.39.91.79v.03c4.87,18.89,1.51,36.51-9.46,49.62Z"/>
  <path class="cls-1" d="m58.85,45.19h-2.62v-5.45c0-4.67-3.52-8.53-8.02-8.8-2.38-.14-4.65.68-6.38,2.31-1.71,1.61-2.69,3.88-2.69,6.22v5.72h-2.33c-1.98,0-3.58,1.61-3.58,3.59v11.4c0,1.98,1.61,3.58,3.58,3.58h22.04c1.98,0,3.59-1.61,3.59-3.58v-11.4c0-1.98-1.61-3.59-3.59-3.59Zm-16.71-5.72c0-1.54.62-2.98,1.74-4.04,1.12-1.06,2.59-1.59,4.14-1.5,2.91.18,5.2,2.73,5.2,5.81v5.45h-11.08v-5.72Zm17.29,20.71c0,.32-.26.58-.59.58h-22.04c-.32,0-.58-.26-.58-.58v-11.4c0-.32.26-.59.58-.59h22.04c.32,0,.59.26.59.59v11.4Z"/>
</svg>