<svg width="40" height="40" viewBox="0 0 40 40" fill="none" xmlns="http://www.w3.org/2000/svg">
<g clip-path="url(#clip0_9558_159)">
<path d="M31.0729 15.1679C31.0412 15.1604 31.0172 15.1524 30.9997 15.1455C30.994 9.04964 25.9271 3.88726 19.6825 4.00187C13.472 4.11587 8.79991 8.9645 8.79258 14.9181C8.78517 15.1623 8.74432 15.2983 8.71171 15.358C8.69817 15.3828 8.69556 15.3833 8.66826 15.3885C8.66284 15.3896 8.65646 15.3908 8.64883 15.3924C8.21437 15.4857 7.6343 15.6197 7.08858 15.7796C6.50195 15.9514 5.95059 16.1781 5.41705 16.4726C1.83071 18.4527 -0.467177 22.4306 0.080504 26.876C0.66087 31.5868 4.56714 35.4089 9.39032 35.9348C15.7698 36.627 21.1847 31.7249 21.1847 25.5734V18.7405L23.7591 21.3761C24.1474 21.7736 24.7885 21.785 25.191 21.4016C25.5936 21.0182 25.6051 20.3851 25.2168 19.9876L21.5691 16.2532C20.7065 15.3702 19.2937 15.3702 18.4311 16.2532L14.7834 19.9876C14.3951 20.3851 14.4066 21.0182 14.8092 21.4016C15.2117 21.785 15.8528 21.7736 16.241 21.3761L19.1594 18.3885V25.5734C19.1594 30.5382 14.7878 34.5084 9.61163 33.9468C5.71958 33.5222 2.55743 30.4206 2.09099 26.6345C1.62273 22.8337 3.71619 19.4613 6.90425 17.9638C7.35482 17.7533 8.29886 17.5142 9.07892 17.3468C9.74791 17.2033 10.2191 16.8112 10.4942 16.3076C10.7445 15.8493 10.8075 15.3484 10.8176 14.9576L10.8179 14.9449V14.9322C10.8179 10.0474 14.6234 6.09508 19.7202 6.00153C24.7844 5.90857 28.9744 10.1238 28.9744 15.1558C28.9744 15.8852 29.3214 16.4557 29.8518 16.7998C30.3266 17.1078 30.879 17.1939 31.3219 17.1939C35.0793 17.1939 38.104 20.2556 37.9704 23.9768C37.8448 27.4887 34.7846 30.2793 31.1393 30.2793H26.2122C25.653 30.2793 25.1996 30.727 25.1996 31.2793C25.1996 31.8316 25.653 32.2793 26.2122 32.2793H31.1393C35.8037 32.2793 39.8278 28.7052 39.9944 24.0476C40.1691 19.1839 36.215 15.1939 31.3219 15.1939C31.2245 15.1939 31.1397 15.1838 31.0729 15.1679Z" fill="black"/>
</g>
<defs>
<clipPath id="clip0_9558_159">
<rect width="40" height="40" fill="white"/>
</clipPath>
</defs>
</svg>
