<?xml version="1.0" encoding="UTF-8"?>
<svg id="Ikony" xmlns="http://www.w3.org/2000/svg" viewBox="0 0 24 24">
  <defs>
    <style>
      .cls-1 {
        fill: #010101;
      }
    </style>
  </defs>
  <path class="cls-1" d="m11.17,17.37c2.71.27,5.17-1.66,5.54-4.38.24-1.81-.49-3.52-1.8-4.61h0c-.41-.34-.81-.71-1.14-1.13-1.53-1.99-1.15-3.72-.97-4.27.03-.1-.02-.14-.12-.1-3.29,1.45-4.05,3.7-4.09,5.38v.02s.03,1.01.49,2.11c.15.35-.09.75-.47.8-.26.04-.52-.1-.63-.34-.16-.35-.36-.86-.39-1.3,0-.09-.12-.12-.17-.05-.42.63-.71,1.37-.81,2.17-.36,2.8,1.74,5.42,4.54,5.7Z"/>
  <rect class="cls-1" x="4" y="18.87" width="16" height="2.27" rx="1.12" ry="1.12"/>
</svg>