<svg width="24" height="24" viewBox="0 0 24 24" fill="none" xmlns="http://www.w3.org/2000/svg">
<path fill-rule="evenodd" clip-rule="evenodd" d="M4 4.5C2.61929 4.5 1.5 5.61929 1.5 7V17C1.5 18.3807 2.61929 19.5 4 19.5H15.0108C13.4293 17.9891 12.5 15.8773 12.5 13.6289V12.8435C12.5 11.9324 13.0713 11.1193 13.9283 10.8103L17.1522 9.64815C17.7001 9.45062 18.2999 9.45062 18.8478 9.64815L22.0717 10.8108C22.224 10.8657 22.3673 10.9366 22.5 11.0211V7C22.5 5.61929 21.3807 4.5 20 4.5H4ZM7.75 11.5C8.99264 11.5 10 10.4926 10 9.25C10 8.00736 8.99264 7 7.75 7C6.50736 7 5.5 8.00736 5.5 9.25C5.5 10.4926 6.50736 11.5 7.75 11.5ZM7 13C5.34315 13 4 14.3431 4 16C4 16.5523 4.44772 17 5 17H10.5C11.0523 17 11.5 16.5523 11.5 16C11.5 14.3431 10.1569 13 8.5 13H7Z" fill="black"/>
<path d="M18.5003 19.4666C18.5082 19.4626 18.516 19.4584 18.5238 19.4542C20.6651 18.2989 22 16.062 22 13.6289V12.8439C22 12.5652 21.8252 12.3164 21.563 12.2219L18.3391 11.0593C18.1199 10.9802 17.8801 10.9802 17.6609 11.0593L14.437 12.2214C14.1748 12.3159 14 12.5647 14 12.8435V13.6289C14 16.062 15.3349 18.2989 17.4762 19.4542C17.4938 19.4638 17.5117 19.4728 17.5298 19.4813C17.5436 19.4878 17.5576 19.4941 17.5717 19.5C17.8697 19.6256 18.2097 19.6145 18.5003 19.4666Z" fill="black"/>
</svg>
