<svg width="96" height="96" viewBox="0 0 96 96" fill="none" xmlns="http://www.w3.org/2000/svg">
<path fill-rule="evenodd" clip-rule="evenodd" d="M47.5312 42C52.5018 42 56.5312 37.9706 56.5312 33C56.5312 28.0294 52.5018 24 47.5312 24C42.5607 24 38.5312 28.0294 38.5312 33C38.5312 37.9706 42.5607 42 47.5312 42ZM47.5312 45C54.1587 45 59.5312 39.6274 59.5312 33C59.5312 26.3726 54.1587 21 47.5312 21C40.9038 21 35.5312 26.3726 35.5312 33C35.5312 39.6274 40.9038 45 47.5312 45Z" fill="black"/>
<path d="M73.3919 66C73.7263 66 74.0385 66.1671 74.224 66.4453L84.8906 82.4453C85.3337 83.1099 84.8573 84 84.0586 84H11.0067C10.208 84 9.73164 83.1099 10.1747 82.4453L20.8413 66.4453C21.0268 66.1671 21.339 66 21.6734 66H30.0312C30.8597 66 31.5312 65.3284 31.5312 64.5C31.5312 63.6716 30.8597 63 30.0312 63H21.6734C20.336 63 19.0871 63.6684 18.3452 64.7812L7.67852 80.7812C5.90638 83.4394 7.81194 87 11.0067 87H84.0586C87.2534 87 89.1589 83.4394 87.3868 80.7812L76.7201 64.7812C75.9783 63.6684 74.7293 63 73.3919 63H65.0312C64.2028 63 63.5312 63.6716 63.5312 64.5C63.5312 65.3284 64.2028 66 65.0312 66H73.3919Z" fill="black"/>
<path fill-rule="evenodd" clip-rule="evenodd" d="M66.9224 39.8669C67.9989 37.0145 68.5312 34.6929 68.5312 33C68.5312 21.402 59.1292 12 47.5312 12C35.9333 12 26.5312 21.402 26.5312 33C26.5312 34.6929 27.0636 37.0145 28.1401 39.8669C29.1993 42.6736 30.7047 45.7877 32.4629 49.0005C35.9784 55.4246 40.388 62.0332 43.9142 67.0267C45.7214 69.586 49.3411 69.586 51.1483 67.0267C54.6745 62.0332 59.0841 55.4246 62.5996 49.0005C64.3578 45.7877 65.8632 42.6736 66.9224 39.8669ZM53.5989 68.7572C60.7089 58.6886 71.5312 41.9008 71.5312 33C71.5312 19.7452 60.7861 9 47.5312 9C34.2764 9 23.5312 19.7452 23.5312 33C23.5312 41.9008 34.3536 58.6886 41.4636 68.7572C44.4661 73.0092 50.5964 73.0092 53.5989 68.7572Z" fill="black"/>
</svg>
