<svg width="96" height="96" viewBox="0 0 96 96" fill="none" xmlns="http://www.w3.org/2000/svg">
<path d="M16 23H80C84.9706 23 89 27.0294 89 32V37.7765L90.8393 38.4387C91.2494 38.5863 91.6375 38.7729 92 38.9935V32C92 25.3726 86.6274 20 80 20H16C9.37258 20 4 25.3726 4 32V64C4 70.6274 9.37258 76 16 76H60.3374C59.2783 75.055 58.2782 74.053 57.3409 73H16C11.0294 73 7 68.9706 7 64V32C7 27.0294 11.0294 23 16 23Z" fill="black"/>
<path fill-rule="evenodd" clip-rule="evenodd" d="M61.5092 73C62.6378 74.0762 63.8458 75.0794 65.1274 76C66.3056 76.8463 67.5461 77.6228 68.8443 78.322C70.5226 79.226 72.544 79.226 74.2224 78.322C79.9583 75.2327 84.5669 70.6342 87.6629 65.1711C90.1607 60.7634 91.6739 55.793 92 50.5985C92.0443 49.8932 92.0667 49.1838 92.0667 48.471V44.4489C92.0667 44.2211 92.0438 43.9972 92 43.7798C91.769 42.6341 90.9548 41.6686 89.8235 41.2615L73.2742 35.3037C72.149 34.8988 70.9176 34.8988 69.7925 35.3037L53.2432 41.259C51.8972 41.7433 51 43.0182 51 44.4464V48.471C51 57.8648 54.8898 66.688 61.5092 73ZM66.1181 73C58.551 67.2056 54 58.1711 54 48.471V44.4464C54 44.2861 54.1009 44.1386 54.259 44.0818L70.8083 38.1265C71.2767 37.9579 71.7896 37.9578 72.258 38.1263L88.8073 44.0841C88.9654 44.141 89.0667 44.2886 89.0667 44.4489V48.471C89.0667 59.8335 82.8219 70.2829 72.7998 75.6808C72.0095 76.1064 71.0571 76.1064 70.2669 75.6808C70.1975 75.6434 70.1285 75.6058 70.0595 75.568C69.8813 75.4703 69.7044 75.371 69.5287 75.2701C68.3337 74.584 67.1953 73.8248 66.1181 73Z" fill="black"/>
<path fill-rule="evenodd" clip-rule="evenodd" d="M36 37C36 41.9706 31.9706 46 27 46C22.0294 46 18 41.9706 18 37C18 32.0294 22.0294 28 27 28C31.9706 28 36 32.0294 36 37ZM33 37C33 40.3137 30.3137 43 27 43C23.6863 43 21 40.3137 21 37C21 33.6863 23.6863 31 27 31C30.3137 31 33 33.6863 33 37Z" fill="black"/>
<path fill-rule="evenodd" clip-rule="evenodd" d="M12 61C12 54.3726 17.3726 49 24 49H30C36.6274 49 42 54.3726 42 61V64C42 66.2091 40.2091 68 38 68H16C13.7909 68 12 66.2091 12 64V61ZM15 61C15 56.0294 19.0294 52 24 52H30C34.9706 52 39 56.0294 39 61V64C39 64.5523 38.5523 65 38 65H16C15.4477 65 15 64.5523 15 64V61Z" fill="black"/>
</svg>
