<?xml version="1.0" encoding="UTF-8"?>
<svg id="Warstwa_5" data-name="Warstwa 5" xmlns="http://www.w3.org/2000/svg" viewBox="0 0 20 20">
  <defs>
    <style>
      .cls-1 {
        fill: #010101;
      }
    </style>
  </defs>
  <path class="cls-1" d="m18.23,16.26L10.74,2.93c-.16-.29-.45-.43-.74-.43s-.58.14-.74.43L1.77,16.26c-.31.56.09,1.24.74,1.24h14.96c.65,0,1.06-.68.74-1.24Zm-14.59-.26l6.36-11.33,6.36,11.33H3.64Zm6.36-8.19c.41,0,.75.34.75.75v2.98c0,.41-.34.75-.75.75s-.75-.34-.75-.75v-2.98c0-.41.34-.75.75-.75Zm.92,6.02c0,.51-.41.92-.92.92s-.92-.41-.92-.92.41-.92.92-.92.92.41.92.92Z"/>
</svg>