<?xml version="1.0" encoding="UTF-8"?>
<svg id="Ikony" xmlns="http://www.w3.org/2000/svg" viewBox="0 0 24 24">
  <defs>
    <style>
      .cls-1 {
        fill: #010101;
      }
    </style>
  </defs>
  <path class="cls-1" d="m18.11,18.81c0,.41-.34.75-.75.75H6.95l-1.63,1.62c-.36.36-.85.57-1.36.58h-.04c-.52,0-1.01-.2-1.38-.57-.38-.38-.59-.88-.59-1.41v-10.73c0-1.24,1.01-2.25,2.25-2.25h.98c.41,0,.75.34.75.75s-.34.75-.75.75h-.98c-.41,0-.75.34-.75.75v10.73c0,.13.05.25.14.34.09.09.19.11.34.14.13,0,.24-.05.33-.14l1.69-1.68c.24-.24.57-.38.91-.38h10.5c.41,0,.75.34.75.75Zm-1.07-9.98c-.52,0-.95.43-.95.95s.43.95.95.95.95-.43.95-.95-.43-.95-.95-.95Zm-4.15,0c-.52,0-.95.43-.95.95s.43.95.95.95.95-.43.95-.95-.43-.95-.95-.95Zm9.16-2.33v9.62c0,.72-.44,1.33-1.11,1.57-.19.06-.38.1-.56.1-.49,0-.96-.22-1.29-.63l-1.09-1.35h-7.31c-1.52,0-2.75-1.23-2.75-2.75v-6.15c0-1.74,1.42-3.15,3.15-3.15h8.21c1.52,0,2.75,1.23,2.75,2.75Zm-1.5,0c0-.69-.56-1.25-1.25-1.25h-8.21c-.91,0-1.65.74-1.65,1.65v6.15c0,.69.56,1.25,1.25,1.25h7.67c.23,0,.44.1.58.28l1.31,1.64s.07.09.18.05c.11-.04.11-.13.11-.16V6.5Z"/>
</svg>