<svg width="24" height="24" viewBox="0 0 24 24" fill="none" xmlns="http://www.w3.org/2000/svg">
<path fill-rule="evenodd" clip-rule="evenodd" d="M21.6962 14.456C21.8946 13.6702 22 12.8474 22 12C22 6.47715 17.5228 2 12 2C6.47715 2 2 6.47715 2 12C2 17.5228 6.47715 22 12 22C12.8474 22 13.6702 21.8946 14.456 21.6962C14.1627 21.0235 14 20.2807 14 19.5C14 19.409 14.0022 19.3185 14.0066 19.2286C13.7593 19.2971 13.5069 19.3532 13.25 19.3963V16.6672C13.25 15.3744 14.3632 14.3272 15.501 13.7134C16.04 13.4226 16.5274 13.25 17.1398 13.25H19.3963C19.3532 13.5069 19.2971 13.7593 19.2286 14.0066C19.3185 14.0022 19.409 14 19.5 14C20.2807 14 21.0235 14.1627 21.6962 14.456ZM10.75 16.6672V19.3963C7.60937 18.8694 5.1306 16.3906 4.6037 13.25H6.86016C7.47265 13.25 7.95997 13.4226 8.49902 13.7134C9.63683 14.3272 10.75 15.3744 10.75 16.6672ZM12 4.5C8.28375 4.5 5.1988 7.20286 4.6037 10.75H5.86262C6.75221 10.75 7.58028 10.2932 8.36337 9.86119L8.46276 9.8064C9.36772 9.30819 10.6184 9 12 9C13.3816 9 14.6323 9.30819 15.5372 9.8064L15.6366 9.86118C16.4197 10.2932 17.2478 10.75 18.1374 10.75H19.3963C18.8012 7.20286 15.7162 4.5 12 4.5Z" fill="black"/>
<path fill-rule="evenodd" clip-rule="evenodd" d="M21.4 15.4196C20.8228 15.1504 20.179 15 19.5 15C19.2813 15 19.0662 15.0156 18.8558 15.0458C16.8861 15.3281 15.3281 16.8861 15.0458 18.8558C15.0156 19.0662 15 19.2813 15 19.5C15 20.179 15.1504 20.8228 15.4196 21.4C16.1359 22.9357 17.6937 24 19.5 24C21.9853 24 24 21.9853 24 19.5C24 17.6937 22.9357 16.1359 21.4 15.4196ZM21.9297 17.7558C22.0709 17.5185 21.993 17.2116 21.7557 17.0704C21.5184 16.9292 21.2116 17.0071 21.0704 17.2444L18.9619 20.7876L17.9069 19.3102C17.7465 19.0855 17.4342 19.0334 17.2095 19.1938C16.9848 19.3543 16.9327 19.6666 17.0931 19.8913L18.3744 21.6856C18.6915 22.1298 19.3472 22.0958 19.623 21.6323L21.9297 17.7558Z" fill="black"/>
</svg>
