<?xml version="1.0" encoding="UTF-8"?>
<svg id="Ikony" xmlns="http://www.w3.org/2000/svg" viewBox="0 0 24 24">
  <path d="m19.66,3.44H4.34c-.74,0-1.34.6-1.34,1.34v11.09c0,.74.6,1.34,1.34,1.34h10.48l3.24,3.24c.23.23.6.07.6-.25v-2.98h1c.74,0,1.34-.6,1.34-1.34V4.78c0-.74-.6-1.34-1.34-1.34h0Zm-7.66,2.58c1.07,0,1.93.87,1.93,1.95s-.87,1.95-1.93,1.95-1.93-.87-1.93-1.95.87-1.95,1.93-1.95Zm-3.61,7.85c.24-1.79,1.76-3.17,3.61-3.17s3.36,1.38,3.61,3.17c.03.26-.17.5-.43.5h-6.34c-.26,0-.47-.23-.43-.5h0Z"/>
</svg>