<?xml version="1.0" encoding="UTF-8"?>
<svg id="Ikony" xmlns="http://www.w3.org/2000/svg" viewBox="0 0 24 24">
  <defs>
    <style>
      .cls-1 {
        fill: #010101;
      }
    </style>
  </defs>
  <path class="cls-1" d="m15.78,6.24c0-1.04.85-1.89,1.89-1.89s1.89.85,1.89,1.89-.85,1.89-1.89,1.89-1.89-.85-1.89-1.89Zm-9.52,1.89c1.04,0,1.89-.85,1.89-1.89s-.85-1.89-1.89-1.89-1.89.85-1.89,1.89.85,1.89,1.89,1.89Zm5.72-.86c1.18,0,2.13-.95,2.13-2.13s-.95-2.13-2.13-2.13-2.13.95-2.13,2.13.95,2.13,2.13,2.13Zm3.8,2.99h-.03c0-1.27-1.03-2.29-2.29-2.29h-2.91c-1.27,0-2.29,1.03-2.29,2.29v5.07c0,.94.57,1.78,1.4,2.13v3.52h4.72v-3.55c.81-.35,1.4-1.16,1.4-2.13v-5.04Zm-8.82,5.04v-5.04c0-.54.13-1.05.35-1.54h-2.29c-1.11,0-2.02.91-2.02,2.02v4.45c0,.84.51,1.54,1.24,1.86v3.36c0,.31.25.56.56.56h3.56v-2.85c-.86-.67-1.4-1.7-1.4-2.83Zm12-6.58h-2.27c.22.46.35.97.35,1.54v5.07c0,1.13-.54,2.19-1.4,2.83v2.82h3.56c.31,0,.56-.25.56-.56v-3.36c.73-.3,1.24-1.03,1.24-1.86v-4.45c-.03-1.11-.92-2.02-2.05-2.02Z"/>
</svg>