<svg width="96" height="96" viewBox="0 0 96 96" fill="none" xmlns="http://www.w3.org/2000/svg">
<path fill-rule="evenodd" clip-rule="evenodd" d="M37 15H59C61.7614 15 64 17.2386 64 20V25H32V20C32 17.2386 34.2386 15 37 15ZM29 25V20C29 15.5817 32.5817 12 37 12H59C63.4183 12 67 15.5817 67 20V25H77.3333C82.1198 25 86 28.8802 86 33.6667C86 33.778 85.9989 33.8891 85.9969 34H86V40V41V64.8C86 71.5206 86 74.8809 84.6921 77.4479C83.5416 79.7058 81.7058 81.5416 79.4479 82.6921C76.8809 84 73.5206 84 66.8 84H29.2C22.4794 84 19.1191 84 16.5521 82.6921C14.2942 81.5416 12.4584 79.7058 11.3079 77.4479C10 74.8809 10 71.5206 10 64.8V41V40V34H10.0031C10.0011 33.8891 10 33.778 10 33.6667C10 28.8802 13.8802 25 18.6667 25H29ZM13 43.4165V44V64.8C13 68.2098 13.0023 70.5868 13.1535 72.4373C13.3019 74.2528 13.5784 75.2958 13.9809 76.0859C14.8438 77.7794 16.2206 79.1562 17.9141 80.0191C18.7042 80.4216 19.7472 80.6981 21.5627 80.8465C23.4132 80.9977 25.7902 81 29.2 81H66.8C70.2098 81 72.5868 80.9977 74.4373 80.8465C76.2528 80.6981 77.2958 80.4216 78.0859 80.0191C79.7794 79.1562 81.1562 77.7794 82.0191 76.0859C82.4216 75.2958 82.6981 74.2528 82.8465 72.4373C82.9977 70.5868 83 68.2098 83 64.8V44V43.4165C79.8801 47.9942 74.6244 51 68.6667 51H62V54C62 58.4183 58.4183 62 54 62H42C37.5817 62 34 58.4183 34 54V51H27.3333C21.3756 51 16.1199 47.9942 13 43.4165ZM37 51H59V54C59 56.7614 56.7614 59 54 59H42C39.2386 59 37 56.7614 37 54V51ZM68.6667 48H62H34H27.3333C19.4173 48 13 41.5827 13 33.6667C13 30.5371 15.5371 28 18.6667 28H29H67H77.3333C80.4629 28 83 30.5371 83 33.6667C83 41.5827 76.5827 48 68.6667 48Z" fill="black"/>
</svg>
