<svg width="96" height="96" viewBox="0 0 96 96" fill="none" xmlns="http://www.w3.org/2000/svg">
<path fill-rule="evenodd" clip-rule="evenodd" d="M77 20.8C77 18.5103 76.9977 16.9734 76.901 15.7899C76.8071 14.6414 76.6396 14.0923 76.455 13.73C75.9757 12.7892 75.2108 12.0243 74.27 11.545C73.9077 11.3604 73.3586 11.1929 72.2101 11.099C71.0266 11.0023 69.4897 11 67.2 11L28.8 11C26.5103 11 24.9734 11.0023 23.7899 11.099C22.6414 11.1929 22.0923 11.3604 21.7301 11.545C20.7892 12.0243 20.0243 12.7892 19.545 13.73C19.3604 14.0923 19.1929 14.6414 19.099 15.7899C19.0023 16.9734 19 18.5103 19 20.8L19 27L19 21.5C19 22.3284 18.3284 23 17.5 23C16.6716 23 16 22.3284 16 21.5V21L16 20.8C16 16.3196 16 14.0794 16.872 12.3681C17.6389 10.8628 18.8628 9.63893 20.3681 8.87195C22.0794 8 24.3196 8 28.8 8H67.2C71.6804 8 73.9206 8 75.6319 8.87195C77.1372 9.63894 78.3611 10.8628 79.1281 12.3681C80 14.0794 80 16.3196 80 20.8V75.2C80 79.6804 80 81.9206 79.1281 83.6319C78.3611 85.1372 77.1372 86.3611 75.6319 87.1281C73.9206 88 71.6804 88 67.2 88H28.8C24.3196 88 22.0794 88 20.3681 87.1281C18.8628 86.3611 17.6389 85.1372 16.8719 83.6319C16 81.9206 16 79.6804 16 75.2V72V71.5C16 70.6716 16.6716 70 17.5 70C18.3284 70 19 70.6716 19 71.5L19 66L19 75.2C19 77.4897 19.0023 79.0266 19.099 80.2101C19.1929 81.3586 19.3604 81.9077 19.545 82.27C20.0243 83.2108 20.7892 83.9757 21.73 84.455C22.0923 84.6396 22.6414 84.8071 23.7899 84.901C24.9734 84.9977 26.5103 85 28.8 85H67.2C69.4897 85 71.0266 84.9977 72.2101 84.901C73.3586 84.8071 73.9077 84.6396 74.27 84.455C75.2108 83.9757 75.9757 83.2108 76.455 82.27C76.6396 81.9077 76.8071 81.3586 76.901 80.2101C76.9977 79.0266 77 77.4897 77 75.2V20.8ZM19 63H21.5C22.3284 63 23 63.6716 23 64.5C23 65.3284 22.3284 66 21.5 66H19H13.5C12.6716 66 12 65.3284 12 64.5C12 63.6716 12.6716 63 13.5 63H19ZM19 57.5L19 63L19 35.5L19 30H21.5C22.3284 30 23 29.3284 23 28.5C23 27.6716 22.3284 27 21.5 27H19H13.5C12.6716 27 12 27.6716 12 28.5C12 29.3284 12.6716 30 13.5 30H19L19 35.4976C18.9987 34.6703 18.3276 34 17.5 34C16.6716 34 16 34.6716 16 35.5L16 57.5C16 58.3284 16.6716 59 17.5 59C18.3284 59 19 58.3284 19 57.5ZM54 36C54 38.7614 51.7614 41 49 41C46.2386 41 44 38.7614 44 36C44 33.2386 46.2386 31 49 31C51.7614 31 54 33.2386 54 36ZM57 36C57 40.4183 53.4183 44 49 44C44.5817 44 41 40.4183 41 36C41 31.5817 44.5817 28 49 28C53.4183 28 57 31.5817 57 36ZM35 60C35 55.0294 39.0294 51 44 51H54C58.9706 51 63 55.0294 63 60V62C63 62.5523 62.5523 63 62 63H36C35.4477 63 35 62.5523 35 62V60ZM32 60C32 53.3726 37.3726 48 44 48H54C60.6274 48 66 53.3726 66 60V62C66 64.2091 64.2091 66 62 66H36C33.7909 66 32 64.2091 32 62V60Z" fill="black"/>
</svg>
