<?xml version="1.0" encoding="UTF-8"?>
<svg id="Ikony" xmlns="http://www.w3.org/2000/svg" viewBox="0 0 24 24">
  <defs>
    <style>
      .cls-1 {
        fill: #010101;
      }
    </style>
  </defs>
  <path class="cls-1" d="m17.21,2.01H6.81c-1.66,0-3,1.34-3,3v10.89c0,1.38,1.12,2.5,2.5,2.5h.29l-1.42,2.46c-.21.36-.08.82.27,1.02.12.07.25.1.37.1.26,0,.51-.13.65-.38l.4-.7h10.25l.41.72c.14.24.39.38.65.38.13,0,.26-.03.37-.1.36-.21.48-.67.27-1.02l-1.43-2.48h.3c1.38,0,2.5-1.12,2.5-2.5V5.01c0-1.66-1.32-3-2.98-3ZM7.58,14.61c0-.69.56-1.25,1.25-1.25s1.25.56,1.25,1.25-.56,1.25-1.25,1.25-1.25-.56-1.25-1.25Zm8.68,4.8H7.75l.59-1.02h7.34l.59,1.02h-.01Zm-1.08-3.55c-.69,0-1.25-.56-1.25-1.25s.56-1.25,1.25-1.25,1.25.56,1.25,1.25-.56,1.25-1.25,1.25Zm3.49-5.21c0,.55-.45,1-1,1H6.34c-.55,0-1-.45-1-1v-3.68c0-.55.45-1,1-1h11.33c.55,0,1,.45,1,1v3.68Z"/>
</svg>