<?xml version="1.0" encoding="UTF-8"?>
<svg id="Warstwa_1" data-name="Warstwa 1" xmlns="http://www.w3.org/2000/svg" viewBox="0 0 24 24">
  <defs>
    <style>
      .cls-1 {
        fill: #010101;
        stroke-width: 0px;
      }
    </style>
  </defs>
  <g id="Ikony">
    <path class="cls-1" d="m12,2C6.5,2,2,6.5,2,12s4.5,10,10,10,10-4.5,10-10S17.5,2,12,2Zm.8,13.3c0,.4-.3.8-.8.8s-.8-.3-.8-.8v-3.6c0-.4.3-.8.8-.8s.8.3.8.8c0,0,0,3.6,0,3.6Zm-.8-5.4c-.5,0-.9-.4-.9-.9s.4-1,.9-1,.9.4.9.9-.4,1-.9,1Z"/>
  </g>
</svg>