<?xml version="1.0" encoding="utf-8"?>
<!-- Generator: Adobe Illustrator 27.7.0, SVG Export Plug-In . SVG Version: 6.00 Build 0)  -->
<svg version="1.1" id="Warstwa_1" xmlns="http://www.w3.org/2000/svg" xmlns:xlink="http://www.w3.org/1999/xlink" x="0px" y="0px"
	 viewBox="0 0 24 24" style="enable-background:new 0 0 24 24;" xml:space="preserve">
<style type="text/css">
	.st0{fill:#010101;}
</style>
<g id="Ikony">
	<path class="st0" d="M12,2C6.5,2,2,6.5,2,12s4.5,10,10,10s10-4.5,10-10S17.5,2,12,2z M14.5,8.7c0-0.4,0.3-0.8,0.8-0.8
		S16,8.3,16,8.7v1.5c0,0.4-0.3,0.8-0.8,0.8s-0.8-0.3-0.8-0.8V8.7z M7.9,8.7C7.9,8.3,8.3,8,8.7,8s0.8,0.3,0.8,0.8v1.5
		c0,0.4-0.3,0.8-0.8,0.8s-0.8-0.3-0.8-0.8V8.7z M16.9,16.6c-0.3,0.3-0.8,0.3-1.1,0l-0.4-0.4c-0.3-0.3-0.8-0.3-1,0l-0.7,0.7
		c-0.4,0.4-1,0.6-1.6,0.6s-1.1-0.2-1.6-0.6l-0.7-0.7c-0.3-0.3-0.8-0.3-1,0l-0.4,0.4c-0.3,0.3-0.8,0.3-1.1,0s-0.3-0.8,0-1.1l0.4-0.4
		c0.9-0.9,2.3-0.9,3.2,0l0.7,0.7c0.3,0.3,0.8,0.3,1,0l0.7-0.7c0.8-0.8,2.3-0.8,3.2,0l0.4,0.4C17.2,15.8,17.2,16.3,16.9,16.6
		L16.9,16.6z"/>
</g>
</svg>
