<svg width="24" height="24" viewBox="0 0 24 24" fill="none" xmlns="http://www.w3.org/2000/svg">
<path fill-rule="evenodd" clip-rule="evenodd" d="M4 4.5C2.61929 4.5 1.5 5.61929 1.5 7V17C1.5 18.3807 2.61929 19.5 4 19.5H13.6674C12.6326 18.3848 12 16.8913 12 15.25C12 11.7982 14.7982 9 18.25 9C19.8913 9 21.3848 9.63265 22.5 10.6674V7C22.5 5.61929 21.3807 4.5 20 4.5H4ZM7.75 11.5C8.99264 11.5 10 10.4926 10 9.25C10 8.00736 8.99264 7 7.75 7C6.50736 7 5.5 8.00736 5.5 9.25C5.5 10.4926 6.50736 11.5 7.75 11.5ZM7 13C5.34315 13 4 14.3431 4 16C4 16.5523 4.44772 17 5 17H10.5C11.0523 17 11.5 16.5523 11.5 16C11.5 14.3431 10.1569 13 8.5 13H7Z" fill="black"/>
<path fill-rule="evenodd" clip-rule="evenodd" d="M23 15.25C23 17.8734 20.8734 20 18.25 20C15.6266 20 13.5 17.8734 13.5 15.25C13.5 12.6266 15.6266 10.5 18.25 10.5C20.8734 10.5 23 12.6266 23 15.25ZM20.6336 12.8555C20.2776 12.6437 19.8174 12.7605 19.6055 13.1165L17.6929 16.3307L16.8604 15.1648C16.6197 14.8277 16.1513 14.7496 15.8142 14.9903C15.4771 15.231 15.399 15.6994 15.6397 16.0365L16.9209 17.8308C17.3444 18.4238 18.221 18.3765 18.5878 17.7601L20.8946 13.8835C21.1064 13.5276 20.9895 13.0673 20.6336 12.8555Z" fill="black"/>
</svg>
