<svg width="24" height="24" viewBox="0 0 24 24" fill="none" xmlns="http://www.w3.org/2000/svg">
<path fill-rule="evenodd" clip-rule="evenodd" d="M9 22C11.7614 22 14 19.7614 14 17C14 14.2386 11.7614 12 9 12C6.23858 12 4 14.2386 4 17C4 19.7614 6.23858 22 9 22ZM8.96967 14.4697C9.26256 14.1768 9.73744 14.1768 10.0303 14.4697L11.8536 16.2929C12.2441 16.6834 12.2441 17.3166 11.8536 17.7071L10.0303 19.5303C9.73744 19.8232 9.26256 19.8232 8.96967 19.5303C8.67678 19.2374 8.67678 18.7626 8.96967 18.4697L9.68934 17.75H6.75C6.33579 17.75 6 17.4142 6 17C6 16.5858 6.33579 16.25 6.75 16.25H9.68934L8.96967 15.5303C8.67678 15.2374 8.67678 14.7626 8.96967 14.4697Z" fill="black"/>
<path fill-rule="evenodd" clip-rule="evenodd" d="M19.095 17V18.228C19.095 19.308 18.222 20.181 17.142 20.181H14.6698C15.1985 19.2407 15.5 18.1556 15.5 17C15.5 13.4101 12.5899 10.5 9 10.5C7.91787 10.5 6.89751 10.7644 6 11.2322V4.953C6 3.873 6.873 3 7.953 3H14.397V6.42C14.397 7.131 14.973 7.698 15.675 7.698H19.095V16H19.1V17H19.095ZM19.0448 16L19 15.9875V16H19.0448Z" fill="black"/>
<path d="M15.531 3.198V6.033C15.531 6.321 15.765 6.564 16.062 6.564H18.897L15.531 3.198Z" fill="black"/>
</svg>
