<?xml version="1.0" encoding="UTF-8"?>
<svg id="Ikony" xmlns="http://www.w3.org/2000/svg" viewBox="0 0 24 24">
  <defs>
    <style>
      .cls-1 {
        stroke-width: 0px;
      }
    </style>
  </defs>
  <path class="cls-1" d="M16.44,15.14c-.29-.29-.77-.29-1.06,0l-3.58,3.58c-.15.15-.25.34-.29.54l-.29,1.56c-.06.33.04.67.28.9.19.19.45.29.71.29.06,0,.12,0,.19-.02l1.56-.29c.21-.04.4-.14.54-.29l3.58-3.58c.14-.14.22-.33.22-.53s-.08-.39-.22-.53l-1.64-1.64ZM13.54,20.26l-.71.13.13-.71,2.95-2.95.58.58-2.95,2.95Z"/>
  <path class="cls-1" d="M19.89,14.97l-1.64-1.64c-.29-.29-.77-.29-1.06,0-.29.29-.29.77,0,1.06l1.64,1.64c.15.15.34.22.53.22s.38-.07.53-.22c.29-.29.29-.77,0-1.06Z"/>
  <path class="cls-1" d="M8.08,20.51h-2.65c-.14,0-.25-.11-.25-.25l.04-16.53c0-.14.11-.25.25-.25h6.65s.04.01.06.01v4.27c0,.96.79,1.75,1.75,1.75h4.44s.06-.01.09-.02c0,0,0,0,0,.01l-.03,1.8c0,.41.33.75.74.76.4-.02.76-.33.76-.74l.03-1.81c0-.69-.29-1.37-.8-1.86l-5.16-4.93c-.51-.49-1.18-.76-1.89-.76h-6.65c-.96,0-1.75.79-1.75,1.75l-.04,16.53c0,.96.79,1.75,1.75,1.75h2.65c.41,0,.75-.34.75-.75s-.34-.75-.75-.75ZM17.37,8.02h-3.43c-.14,0-.25-.11-.25-.25v-3.27l3.68,3.52Z"/>
</svg>