<svg width="96" height="96" viewBox="0 0 96 96" fill="none" xmlns="http://www.w3.org/2000/svg">
<path fill-rule="evenodd" clip-rule="evenodd" d="M34 60C31.2386 60 29 62.2386 29 65V67C29 69.7614 31.2386 72 34 72H62C64.7614 72 67 69.7614 67 67V65C67 62.2386 64.7614 60 62 60H34ZM32 65C32 63.8954 32.8954 63 34 63H62C63.1046 63 64 63.8954 64 65V67C64 68.1046 63.1046 69 62 69H34C32.8954 69 32 68.1046 32 67V65Z" fill="black"/>
<path fill-rule="evenodd" clip-rule="evenodd" d="M48 55C53.5228 55 58 50.5228 58 45C58 39.4772 53.5228 35 48 35C42.4772 35 38 39.4772 38 45C38 50.5228 42.4772 55 48 55ZM48 52C51.866 52 55 48.866 55 45C55 41.134 51.866 38 48 38C44.134 38 41 41.134 41 45C41 48.866 44.134 52 48 52Z" fill="black"/>
<path fill-rule="evenodd" clip-rule="evenodd" d="M21.7864 20.2434L57.42 8.36549C64.1008 6.13856 71 11.1112 71 18.1534C71 18.9341 70.8336 19.6843 70.5304 20.3651C71.3805 20.5354 72.2006 20.7947 72.9939 21.1989C75.0637 22.2535 76.7465 23.9363 77.8011 26.0061C78.4885 27.3552 78.7569 28.7818 78.8811 30.3013C79.0001 31.7582 79.0001 33.5415 79 35.678V72.3218C79.0001 74.4583 79.0001 76.2418 78.8811 77.6987C78.7569 79.2182 78.4885 80.6449 77.8011 81.9939C76.7465 84.0637 75.0637 85.7465 72.9939 86.8011C71.6449 87.4885 70.2182 87.7569 68.6987 87.8811C67.2418 88.0001 65.4584 88.0001 63.3218 88H26.2951C25.2652 88.0001 24.3193 88.0002 23.5285 87.9355C22.676 87.8659 21.7433 87.7064 20.8221 87.2371C19.5049 86.5659 18.4341 85.4951 17.763 84.1779C17.2936 83.2567 17.1341 82.324 17.0645 81.4715C16.9999 80.6808 16.9999 79.7348 17 78.7049V29.2951C17 28.9819 17 28.6765 17.0018 28.3808C17.0006 28.3277 17 28.2744 17 28.2209V26.8841C17 23.8711 18.928 21.1962 21.7864 20.2434ZM32.0033 20L63.3218 20C64.7384 20 65.9997 20 67.1136 20.0346C67.6621 19.5816 68 18.8985 68 18.1534C68 13.1589 63.1069 9.63214 58.3687 11.2115L32.0033 20ZM57.3372 23H26.4C24.1598 23 23.0397 23 22.184 23.436C21.4314 23.8195 20.8195 24.4314 20.436 25.184C20 26.0397 20 27.1598 20 29.4V78.6C20 80.8402 20 81.9603 20.436 82.816C20.8195 83.5686 21.4314 84.1805 22.184 84.564C23.0397 85 24.1598 85 26.4 85H63.2C67.6804 85 69.9206 85 71.6319 84.1281C73.1372 83.3611 74.3611 82.1372 75.1281 80.6319C76 78.9206 76 76.6804 76 72.2V35.8C76 31.3196 76 29.0794 75.1281 27.3681C74.3611 25.8628 73.1372 24.6389 71.6319 23.872C70.6593 23.3764 69.5159 23.1625 67.8875 23.0701C67.8868 23.0705 67.8861 23.0708 67.8854 23.0711C66.6489 23.0011 65.1329 23.0011 63.2 23.0011H57.3333L57.3372 23Z" fill="black"/>
</svg>
