<?xml version="1.0" encoding="UTF-8"?>
<svg id="Ikony" xmlns="http://www.w3.org/2000/svg" viewBox="0 0 24 24">
  <defs>
    <style>
      .cls-1 {
        fill: #010101;
        stroke-width: 0px;
      }
    </style>
  </defs>
  <path class="cls-1" d="m12,2C6.48,2,2,6.48,2,12s4.48,10,10,10,10-4.48,10-10S17.52,2,12,2Zm4.31,10.75h-3.56v3.56c0,.41-.34.75-.75.75s-.75-.34-.75-.75v-3.56h-3.56c-.41,0-.75-.34-.75-.75s.34-.75.75-.75h3.56v-3.56c0-.41.34-.75.75-.75s.75.34.75.75v3.56h3.56c.41,0,.75.34.75.75s-.34.75-.75.75Z"/>
</svg>