<svg width="96" height="96" viewBox="0 0 96 96" fill="none" xmlns="http://www.w3.org/2000/svg">
<path d="M47.9947 19.2921C55.0464 19.2921 61.7042 20.763 67.9681 23.7049C74.2327 26.6469 79.4619 30.8102 83.6559 36.195C83.9291 36.6124 84.0396 37.023 83.9875 37.4267C83.936 37.8298 83.741 38.1425 83.4025 38.365C83.101 38.6223 82.7202 38.7422 82.2603 38.7248C81.7998 38.7073 81.4375 38.4762 81.1736 38.0313C77.421 33.0285 72.6147 29.1604 66.7547 26.4272C60.8953 23.694 54.642 22.31 47.9947 22.2751C41.4048 22.31 35.2132 23.6831 29.4198 26.3945C23.6257 29.1059 18.8382 33.0026 15.0573 38.0846C14.7188 38.4665 14.3265 38.722 13.8805 38.8509C13.4344 38.9793 13.0464 38.9148 12.7165 38.6575C12.378 38.498 12.157 38.2182 12.0534 37.8183C11.9498 37.4189 11.997 37.0457 12.1949 36.6987C16.249 31.1731 21.4288 26.8908 27.7342 23.8517C34.0403 20.8119 40.7938 19.2921 47.9947 19.2921ZM47.9947 28.4103C56.9112 28.4103 64.5337 31.2647 70.8622 36.9734C77.1914 42.6822 80.356 49.67 80.356 57.9369C80.356 60.971 79.2227 63.5513 76.9562 65.6776C74.6896 67.804 71.917 68.8672 68.6382 68.8672C65.2552 68.8672 62.4047 67.8305 60.0866 65.7571C57.7686 63.6837 56.6096 61.1477 56.6096 58.149C56.6096 55.852 55.7657 53.9246 54.0778 52.3671C52.3893 50.8095 50.3615 50.0308 47.9947 50.0308C45.6278 50.0308 43.6001 50.8095 41.9116 52.3671C40.2237 53.9246 39.3798 55.852 39.3798 58.149C39.3798 64.5849 41.3148 69.9949 45.1848 74.3791C49.0547 78.7633 54.3764 81.6949 61.1496 83.174C61.6491 83.2986 61.9741 83.5207 62.1246 83.8403C62.275 84.1599 62.3502 84.497 62.3502 84.8515C62.1813 85.2963 61.9461 85.6141 61.6445 85.8047C61.3436 85.996 60.9019 86.0467 60.3192 85.957C52.9607 84.435 47.1046 81.1728 42.7509 76.1706C38.3973 71.169 36.2205 65.1618 36.2205 58.149C36.2205 55.0794 37.3537 52.4708 39.6203 50.3233C41.8869 48.1751 44.6783 47.101 47.9947 47.101C51.2741 47.101 54.0728 48.1486 56.3909 50.2438C58.7089 52.339 59.8679 54.9034 59.8679 57.9369C59.8679 60.1717 60.7214 62.0638 62.4284 63.6133C64.1354 65.1627 66.2054 65.9375 68.6382 65.9375C70.9675 65.9375 72.9691 65.1627 74.6431 63.6133C76.3171 62.0638 77.1541 60.1717 77.1541 57.9369C77.1541 50.5317 74.2954 44.3186 68.5778 39.2976C62.8596 34.2767 55.9986 31.7662 47.9947 31.7662C39.9162 31.7662 33.0367 34.3119 27.3561 39.4032C21.6755 44.4946 18.8352 50.7432 18.8352 58.149C18.8352 60.2754 19.0167 62.5074 19.3796 64.845C19.7425 67.1826 20.3859 69.5133 21.3097 71.8372C21.4792 72.3518 21.505 72.7692 21.3869 73.0894C21.2694 73.409 21.0042 73.6174 20.5911 73.7146C20.1582 73.9015 19.7135 73.9414 19.2569 73.8343C18.8009 73.7277 18.4697 73.3994 18.2632 72.8493C17.5459 70.8338 16.9521 68.5713 16.4816 66.0617C16.0111 63.5522 15.7759 60.9146 15.7759 58.149C15.7759 50.0329 18.9567 43.0476 25.3182 37.1931C31.6797 31.3379 39.2386 28.4103 47.9947 28.4103ZM47.9947 10C52.3127 10 56.5594 10.4962 60.7349 11.4887C64.9104 12.4818 68.9117 13.9303 72.7388 15.8343C73.2178 16.0567 73.4927 16.3698 73.5633 16.7735C73.6332 17.1766 73.6022 17.5071 73.4702 17.765C73.2353 18.0847 72.9321 18.3507 72.5606 18.5631C72.1892 18.7756 71.7682 18.7357 71.2977 18.4435C67.6686 16.7339 63.8837 15.4032 59.9431 14.4512C56.0025 13.4992 52.0197 13.0232 47.9947 13.0232C43.9413 13.0232 39.968 13.464 36.075 14.3456C32.1819 15.2272 28.4208 16.5891 24.7917 18.4314C24.275 18.7236 23.8547 18.8055 23.5307 18.6771C23.206 18.5482 22.9263 18.3105 22.6914 17.9641C22.5218 17.7417 22.4466 17.4043 22.4657 16.952C22.4842 16.4997 22.6999 16.1935 23.113 16.0333C26.8741 14.0048 30.8797 12.4921 35.1297 11.4953C39.3804 10.4984 43.6688 10 47.9947 10ZM47.9947 37.8491C54.0738 37.8491 59.2879 39.8001 63.6369 43.7021C67.9866 47.6041 70.1615 52.349 70.1615 57.9369C70.1615 58.3543 70.0179 58.7337 69.7309 59.0752C69.4439 59.4166 69.0796 59.5873 68.6382 59.5873C68.0925 59.5873 67.6669 59.4166 67.3614 59.0752C67.0559 58.7337 66.9031 58.3543 66.9031 57.9369C66.9031 53.0505 65.053 48.9691 61.3526 45.6926C57.6515 42.4168 53.1989 40.7789 47.9947 40.7789C42.7905 40.7789 38.3616 42.461 34.7081 45.8254C31.0546 49.1897 29.2278 53.2976 29.2278 58.149C29.2278 63.1494 30.0879 67.5464 31.8081 71.34C33.5276 75.1336 36.2782 78.8642 40.0598 82.532C40.3983 82.9139 40.5675 83.2821 40.5675 83.6366C40.5675 83.9917 40.4497 84.2939 40.2142 84.5431C39.9707 84.8982 39.5619 85.0736 38.9878 85.0692C38.4138 85.0655 37.939 84.8727 37.5636 84.4907C33.716 80.7252 30.8312 76.6992 28.9091 72.4128C26.9869 68.1258 26.0259 63.3712 26.0259 58.149C26.0259 52.5605 28.1489 47.7801 32.395 43.8077C36.6411 39.8353 41.841 37.8491 47.9947 37.8491ZM47.9947 56.3529C48.4368 56.3529 48.801 56.5058 49.0874 56.8117C49.3744 57.1176 49.5179 57.5104 49.5179 57.9902C49.5179 63.3918 51.4338 67.5776 55.2655 70.5475C59.0966 73.5175 63.6472 75.0024 68.9173 75.0024C69.56 75.0024 70.2839 74.9557 71.0889 74.8622C71.8932 74.7688 72.687 74.6909 73.4702 74.6286C73.9697 74.6286 74.3485 74.7641 74.6065 75.0351C74.8645 75.3062 74.9935 75.5703 74.9935 75.8276C74.9935 76.2799 74.8998 76.626 74.7124 76.8659C74.5243 77.1058 74.2465 77.2568 73.879 77.3191C72.9928 77.6032 72.0671 77.7764 71.1017 77.8387C70.1364 77.901 69.4082 77.9322 68.9173 77.9322C62.6317 77.9322 57.31 76.1519 52.9524 72.5913C48.5942 69.0308 46.415 64.1637 46.415 57.9902C46.415 57.5104 46.5609 57.1176 46.8525 56.8117C47.1435 56.5058 47.5242 56.3529 47.9947 56.3529Z" fill="black"/>
</svg>
