<svg width="24" height="24" viewBox="0 0 24 24" fill="none" xmlns="http://www.w3.org/2000/svg">
<path fill-rule="evenodd" clip-rule="evenodd" d="M4 5C2.34315 5 1 6.34315 1 8V16C1 17.6569 2.34315 19 4 19H12.4104C11.8328 18.053 11.5 16.9404 11.5 15.75C11.5 12.2982 14.2982 9.5 17.75 9.5C19.9511 9.5 21.8865 10.6379 23 12.3575V8C23 6.34315 21.6569 5 20 5H4ZM9 9.25C9 10.4926 7.99264 11.5 6.75 11.5C5.50736 11.5 4.5 10.4926 4.5 9.25C4.5 8.00736 5.50736 7 6.75 7C7.99264 7 9 8.00736 9 9.25ZM6 13C4.34315 13 3 14.3431 3 16C3 16.5523 3.44772 17 4 17H9.5C10.0523 17 10.5 16.5523 10.5 16C10.5 14.3431 9.15685 13 7.5 13H6Z" fill="black"/>
<path fill-rule="evenodd" clip-rule="evenodd" d="M17.75 20.5C20.3734 20.5 22.5 18.3734 22.5 15.75C22.5 13.1266 20.3734 11 17.75 11C15.1266 11 13 13.1266 13 15.75C13 18.3734 15.1266 20.5 17.75 20.5ZM15.8056 17.6962C16.0985 17.9891 16.5734 17.9891 16.8663 17.6962L17.75 16.8125L18.6322 17.6947C18.9251 17.9876 19.4 17.9876 19.6929 17.6947C19.9857 17.4018 19.9857 16.9269 19.6929 16.634L18.8107 15.7518L19.6947 14.8678C19.9876 14.5749 19.9876 14.1 19.6947 13.8071C19.4018 13.5143 18.9269 13.5143 18.634 13.8071L17.75 14.6912L16.8644 13.8056C16.5715 13.5127 16.0967 13.5127 15.8038 13.8056C15.5109 14.0985 15.5109 14.5734 15.8038 14.8663L16.6893 15.7518L15.8056 16.6356C15.5127 16.9285 15.5127 17.4033 15.8056 17.6962Z" fill="black"/>
</svg>
