<?xml version="1.0" encoding="UTF-8"?>
<svg id="Warstwa_5" data-name="Warstwa 5" xmlns="http://www.w3.org/2000/svg" viewBox="0 0 20 20">
  <defs>
    <style>
      .cls-1 {
        stroke-width: 0px;
      }
    </style>
  </defs>
  <path class="cls-1" d="m11.06,10.05l5.1-5.1c.29-.29.29-.77,0-1.06s-.77-.29-1.06,0l-5.1,5.1L4.9,3.89c-.29-.29-.77-.29-1.06,0s-.29.77,0,1.06l5.1,5.1-5.1,5.1c-.29.29-.29.77,0,1.06.15.15.34.22.53.22s.38-.07.53-.22l5.1-5.1,5.1,5.1c.15.15.34.22.53.22s.38-.07.53-.22c.29-.29.29-.77,0-1.06l-5.1-5.1Z"/>
</svg>