<?xml version="1.0" encoding="UTF-8"?>
<svg id="Ikony" xmlns="http://www.w3.org/2000/svg" viewBox="0 0 24 24">
  <defs>
    <style>
      .cls-1 {
        fill: #010101;
      }
    </style>
  </defs>
  <path class="cls-1" d="m19.78,9.35c-1.64-1.63-4.28-1.63-5.92,0-1.29,1.28-1.59,3.25-.76,4.86.61,1.18,2.14,3.47,3.04,4.79.33.48,1.03.48,1.36,0,.89-1.32,2.42-3.61,3.04-4.79.84-1.61.53-3.57-.76-4.86Zm-2.96,5.03c-1.23,0-2.23-1-2.23-2.24s1-2.24,2.23-2.24,2.23,1,2.23,2.24-1,2.24-2.23,2.24Zm-2.9,3.54c.07.11,0,.25-.14.25h-3.37v1.82c0,.56-.46,1.02-1.02,1.02h-.09c-.56,0-1.03-.46-1.03-1.03v-1.82h-3.74c-1.08,0-1.82-1.1-1.42-2.11L7.92,3.97c.51-1.28,2.33-1.28,2.84,0l1.96,4.91c-.14.11-.28.23-.42.36-1.29,1.28-1.59,3.25-.76,4.86.48.92,1.52,2.53,2.38,3.81Z"/>
</svg>