<?xml version="1.0" encoding="UTF-8"?>
<svg id="Ikony" xmlns="http://www.w3.org/2000/svg" viewBox="0 0 24 24">
  <defs>
    <style>
      .cls-1 {
        fill: #010101;
      }
    </style>
  </defs>
  <path class="cls-1" d="m16.99,12.95h0c-.41,0-.75.34-.75.75v1.75s-9.24,0-9.24,0c-.2,0-.39.08-.53.22-.14.14-.22.33-.22.53v4.05c0,.47.19.91.52,1.24.33.33.77.51,1.23.51h7.99c.47,0,.91-.18,1.24-.51.33-.33.51-.77.51-1.24v-6.55c0-.41-.34-.75-.76-.75Zm-.82,7.48s-.09.07-.18.07h-7.99s0,0,0,0c-.09,0-.15-.05-.18-.07-.03-.03-.07-.09-.07-.18v-3.3s8.48,0,8.48,0v3.3c0,.09-.04.15-.07.18Zm-3.23-1.83c0,.52-.43.95-.95.95s-.95-.43-.95-.95.43-.95.95-.95.95.43.95.95Zm-5.94-9.56h0c.41,0,.75-.34.75-.75v-1.84s9.24,0,9.24,0c.2,0,.39-.08.53-.22s.22-.33.22-.53v-1.95c0-.96-.79-1.75-1.76-1.75h-7.99c-.47,0-.91.19-1.24.52-.33.33-.51.77-.51,1.24v4.53c0,.41.34.75.76.75Zm.82-5.46s.09-.07.18-.07h7.99c.14,0,.25.11.25.25v1.2s-8.48,0-8.48,0v-1.2c0-.09.04-.15.07-.18Zm14.07,5.58l-1.96,1.96c-.15.15-.34.22-.53.22s-.38-.07-.53-.22c-.29-.29-.29-.77,0-1.06l.68-.68h-7.92c-.39,0-.7.32-.7.7v.33c0,.41-.34.75-.75.75s-.75-.34-.75-.75v-.33c0-1.22.99-2.2,2.2-2.2h7.92l-.68-.68c-.29-.29-.29-.77,0-1.06s.77-.29,1.06,0l1.96,1.96c.29.29.29.77,0,1.06ZM5.31,14.8c.29.29.29.77,0,1.06-.15.15-.34.22-.53.22s-.38-.07-.53-.22l-1.96-1.96c-.29-.29-.29-.77,0-1.06l1.96-1.96c.29-.29.77-.29,1.06,0s.29.77,0,1.06l-.68.68h7.92c.39,0,.7-.32.7-.7v-.33c0-.41.34-.75.75-.75s.75.34.75.75v.33c0,1.22-.99,2.2-2.2,2.2h-7.92l.68.68Z"/>
</svg>