<svg width="24" height="24" viewBox="0 0 24 24" fill="none" xmlns="http://www.w3.org/2000/svg">
<path fill-rule="evenodd" clip-rule="evenodd" d="M1 8C1 6.34315 2.34315 5 4 5H20C21.6569 5 23 6.34315 23 8V16C23 17.6569 21.6569 19 20 19H4C2.34315 19 1 17.6569 1 16V8ZM20.25 7.25C20.6642 7.25 21 7.58579 21 8C21 8.41421 20.6642 8.75 20.25 8.75H12.75C12.3358 8.75 12 8.41421 12 8C12 7.58579 12.3358 7.25 12.75 7.25L20.25 7.25ZM16.5 11C16.5 10.5858 16.1642 10.25 15.75 10.25H12.75C12.3358 10.25 12 10.5858 12 11C12 11.4142 12.3358 11.75 12.75 11.75H15.75C16.1642 11.75 16.5 11.4142 16.5 11ZM9 9.25C9 10.4926 7.99264 11.5 6.75 11.5C5.50736 11.5 4.5 10.4926 4.5 9.25C4.5 8.00736 5.50736 7 6.75 7C7.99264 7 9 8.00736 9 9.25ZM6 13C4.34315 13 3 14.3431 3 16C3 16.5523 3.44772 17 4 17H9.5C10.0523 17 10.5 16.5523 10.5 16C10.5 14.3431 9.15685 13 7.5 13H6Z" fill="black"/>
</svg>
