<?xml version="1.0" encoding="UTF-8"?>
<svg id="Ikony" xmlns="http://www.w3.org/2000/svg" viewBox="0 0 24 24">
  <defs>
    <style>
      .cls-1 {
        fill: #010101;
      }
    </style>
  </defs>
  <path class="cls-1" d="m16.99,14.45h0c-.41,0-.75.34-.75.75v.25s-8.49,0-8.49,0v-.26c0-.41-.34-.75-.75-.75h0c-.41,0-.75.34-.75.75v1s0,0,0,0,0,0,0,0v4.05c0,.96.79,1.75,1.75,1.75h7.99c.47,0,.91-.18,1.24-.52.33-.33.51-.77.51-1.24v-5.05c0-.41-.34-.75-.76-.75Zm-.82,5.98s-.09.07-.18.07h-7.99c-.14,0-.25-.11-.25-.25v-3.3s8.48,0,8.48,0v3.3c0,.09-.04.15-.07.18Zm-3.23-1.83c0,.52-.43.95-.95.95s-.95-.43-.95-.95.43-.95.95-.95.95.43.95.95ZM7.01,8h0c.42,0,.75-.34.75-.75v-.79s8.49,0,8.49,0v.8c0,.41.34.75.75.75h0c.41,0,.75-.34.75-.75v-1.53s0,0,0-.01,0,0,0-.02v-1.93c0-.96-.79-1.75-1.75-1.75h-7.99c-.96,0-1.75.79-1.75,1.76v3.49c0,.41.34.75.76.75Zm.99-4.49h7.99c.14,0,.25.11.25.25v1.2s-8.48,0-8.48,0v-1.19c0-.14.11-.25.25-.25Zm5.81,7.02l-.75.75.75.75c.29.29.29.77,0,1.06-.15.15-.34.22-.53.22s-.38-.07-.53-.22l-.75-.75-.75.75c-.15.15-.34.22-.53.22s-.38-.07-.53-.22c-.29-.29-.29-.77,0-1.06l.75-.75-.75-.75c-.29-.29-.29-.77,0-1.06s.77-.29,1.06,0l.75.75.75-.75c.29-.29.77-.29,1.06,0s.29.77,0,1.06Zm-7.81,1.81l-.75.75c-.15.15-.34.22-.53.22s-.38-.07-.53-.22c-.29-.29-.29-.77,0-1.06l.75-.75-.75-.75c-.29-.29-.29-.77,0-1.06s.77-.29,1.06,0l.75.75.75-.75c.29-.29.77-.29,1.06,0s.29.77,0,1.06l-.75.75.75.75c.29.29.29.77,0,1.06-.15.15-.34.22-.53.22s-.38-.07-.53-.22l-.75-.75Zm13.81-.31c.29.29.29.77,0,1.06-.15.15-.34.22-.53.22s-.38-.07-.53-.22l-.75-.75-.75.75c-.15.15-.34.22-.53.22s-.38-.07-.53-.22c-.29-.29-.29-.77,0-1.06l.75-.75-.75-.75c-.29-.29-.29-.77,0-1.06s.77-.29,1.06,0l.75.75.75-.75c.29-.29.77-.29,1.06,0s.29.77,0,1.06l-.75.75.75.75Z"/>
</svg>