<?xml version="1.0" encoding="UTF-8"?>
<svg id="Ikony" xmlns="http://www.w3.org/2000/svg" viewBox="0 0 24 24">
  <defs>
    <style>
      .cls-1 {
        fill: #010101;
        stroke-width: 0px;
      }
    </style>
  </defs>
  <path class="cls-1" d="M13.46,2.21v3.15c0,.32.26.59.59.59h3.15l-3.73-3.73Z"/>
  <path class="cls-1" d="M13.86,18l-1.96.29c-.29.04-.55-.22-.51-.51l.29-1.96c.01-.08.05-.16.11-.21l7.8-7.8c.16-.16.42-.15.59.02l1.66,1.66c.17.17.18.43.02.59l-7.8,7.8c-.06.06-.13.09-.21.11Z"/>
  <path class="cls-1" d="M15.06,18.8c-.11.11-.26.19-.41.22l-3.76.71c-.55.1-1.04-.38-.93-.93l.71-3.76c.03-.16.11-.3.22-.41l6.53-6.53v-.89h-3.8c-.78,0-1.42-.63-1.42-1.42V1.99h-7.16c-1.2,0-2.17.97-2.17,2.17v14.75c0,1.2.97,2.17,2.17,2.17h10.21c1.2,0,2.17-.97,2.17-2.17v-2.46l-2.36,2.36Z"/>
</svg>