<?xml version="1.0" encoding="UTF-8"?>
<svg id="Ikony" xmlns="http://www.w3.org/2000/svg" viewBox="0 0 24 24">
  <defs>
    <style>
      .cls-1 {
        fill: #010101;
      }
    </style>
  </defs>
  <path class="cls-1" d="m18.61,3.18c-.41,0-.75.34-.75.75s.34.75.75.75c.63,0,1.14.51,1.14,1.14v1.74H4.25v-1.74c0-.63.51-1.14,1.14-1.14.41,0,.75-.34.75-.75s-.34-.75-.75-.75c-1.46,0-2.64,1.18-2.64,2.64v13.22c0,1.46,1.18,2.64,2.64,2.64h13.22c1.46,0,2.64-1.18,2.64-2.64V5.82c0-1.46-1.18-2.64-2.64-2.64Zm0,17H5.39c-.63,0-1.14-.51-1.14-1.14v-9.99h15.5v9.99c0,.63-.51,1.14-1.14,1.14ZM7.47,4.58v-1.5c0-.41.34-.75.75-.75s.75.34.75.75v1.5c0,.41-.34.75-.75.75s-.75-.34-.75-.75Zm8,0v-1.5c0-.41.34-.75.75-.75s.75.34.75.75v1.5c0,.41-.34.75-.75.75s-.75-.34-.75-.75Zm-5.5-.77c0-.41.34-.75.75-.75h3c.41,0,.75.34.75.75s-.34.75-.75.75h-3c-.41,0-.75-.34-.75-.75Zm.17,8.38c0,.41-.34.75-.75.75h-3c-.41,0-.75-.34-.75-.75s.34-.75.75-.75h3c.41,0,.75.34.75.75Zm0,4c0,.41-.34.75-.75.75h-3c-.41,0-.75-.34-.75-.75s.34-.75.75-.75h3c.41,0,.75.34.75.75Zm8-4c0,.41-.34.75-.75.75h-3c-.41,0-.75-.34-.75-.75s.34-.75.75-.75h3c.41,0,.75.34.75.75Zm0,4c0,.41-.34.75-.75.75h-3c-.41,0-.75-.34-.75-.75s.34-.75.75-.75h3c.41,0,.75.34.75.75Z"/>
</svg>