<svg width="24" height="24" viewBox="0 0 24 24" fill="none" xmlns="http://www.w3.org/2000/svg">
<path d="M21.9 12.7L20.9 7.1C20.6 5.3 19.1 4.1 17.3 4.1H10.2C9.5 4 8.8 4.7 8.8 5.4V14.2C8.8 14.8 9.2 15.3 9.7 15.5C11.2 16 12 17.7 12.2 18.3C12.4 18.8 12.5 19.3 12.6 19.8V19.9C12.7 20.5 13 21 13.5 21.4C14 21.8 14.5 22 15.1 22C15.7 22 16.4 21.8 16.8 21.3C17.3 20.9 17.6 20.3 17.6 19.6L17.2 15.5H19.2H19.3C20 15.5 20.7 15.2 21.1 14.6C21.9 14.1 22.1 13.3 21.9 12.7ZM6 4H4C3.5 4 3 4.2 2.7 4.6C2.2 5 2 5.5 2 6V14.2C2 14.6 2.3 14.9 2.6 14.9L5.8 15.3H5.9C6.7 15.3 7.3 14.7 7.3 13.9V5.4C7.3 5 7.2 4.7 6.9 4.4C6.6 4.1 6.3 4 6 4Z" fill="black"/>
</svg>
