<svg width="24" height="24" viewBox="0 0 24 24" fill="none" xmlns="http://www.w3.org/2000/svg">
<path fill-rule="evenodd" clip-rule="evenodd" d="M24 4.5C24 6.98528 21.9853 9 19.5 9C17.622 9 16.0128 7.84963 15.3384 6.21512C15.3295 6.19351 15.3207 6.17181 15.3121 6.15004C15.1757 5.80414 15.081 5.43727 15.034 5.05562C15.0115 4.87356 15 4.68813 15 4.5C15 2.01472 17.0147 0 19.5 0C21.9853 0 24 2.01472 24 4.5ZM21.9297 2.75576C22.0709 2.51845 21.993 2.2116 21.7557 2.0704C21.5184 1.92919 21.2116 2.00709 21.0704 2.2444L18.9619 5.78764L17.9069 4.31018C17.7465 4.08545 17.4342 4.03336 17.2095 4.19383C16.9848 4.3543 16.9327 4.66657 17.0931 4.8913L18.3744 6.6856C18.6915 7.12976 19.3472 7.09583 19.623 6.63234L21.9297 2.75576Z" fill="black"/>
<path fill-rule="evenodd" clip-rule="evenodd" d="M7.50861 6.5C7.28537 6.5 7.08917 6.64799 7.02784 6.86264L6.1707 9.86264C6.07944 10.182 6.31927 10.5 6.65146 10.5H19.1086C19.4795 10.5 19.8149 10.7085 20.0139 11.0215C20.1701 11.2671 20.3345 11.4914 20.4933 11.6695C20.8085 12.023 21 12.4891 21 13V16C21 17.1045 20.1046 18 19 18H5C3.89543 18 3 17.1045 3 16V13C3 12.4891 3.19154 12.023 3.50671 11.6695C3.99177 11.1255 4.52818 10.1514 4.72841 9.45053L5.58556 6.45053C5.6681 6.16162 5.81173 5.9029 6 5.68677C6.37125 5.26058 6.91611 5 7.50861 5H13.5205C13.5636 5.52179 13.6734 6.02464 13.8414 6.5H7.50861ZM6.75 12C6.05964 12 5.5 12.5596 5.5 13.25C5.5 13.9404 6.05964 14.5 6.75 14.5C7.44036 14.5 8 13.9404 8 13.25C8 12.5596 7.44036 12 6.75 12ZM18.5 13.25C18.5 12.5596 17.9404 12 17.25 12C16.5596 12 16 12.5596 16 13.25C16 13.9404 16.5596 14.5 17.25 14.5C17.9404 14.5 18.5 13.9404 18.5 13.25Z" fill="black"/>
<path d="M3 10H3.71924L4.21924 8H3C2.44772 8 2 8.44772 2 9C2 9.55228 2.44772 10 3 10Z" fill="black"/>
<path d="M7 19V20C7 20.5523 6.55228 21 6 21H5C4.44772 21 4 20.5523 4 20V19H7Z" fill="black"/>
<path d="M20 20V19H17V20C17 20.5523 17.4477 21 18 21H19C19.5523 21 20 20.5523 20 20Z" fill="black"/>
</svg>
