<?xml version="1.0" encoding="UTF-8"?>
<svg id="Ikony" xmlns="http://www.w3.org/2000/svg" viewBox="0 0 24 24">
  <defs>
    <style>
      .cls-1 {
        fill: #010101;
      }
    </style>
  </defs>
  <path class="cls-1" d="m3.96,9.16h7.84c1.63,0,2.95-1.38,2.95-3.08s-1.32-3.08-2.95-3.08c-1,0-1.93.52-2.47,1.4-.29.46-.16,1.08.28,1.38s1.04.17,1.33-.29c.19-.31.52-.49.87-.49.57,0,1.03.48,1.03,1.08s-.46,1.08-1.03,1.08H3.96c-.53,0-.96.45-.96,1s.43,1,.96,1Z"/>
  <path class="cls-1" d="m13.44,14.84H3.96c-.53,0-.96.45-.96,1s.43,1,.96,1h9.48c.57,0,1.03.48,1.03,1.08s-.46,1.08-1.03,1.08c-.35,0-.67-.18-.87-.49-.29-.46-.88-.59-1.33-.29-.44.3-.57.92-.28,1.38.55.88,1.47,1.4,2.47,1.4,1.63,0,2.95-1.38,2.95-3.08s-1.32-3.08-2.95-3.08Z"/>
  <path class="cls-1" d="m18.05,6.85c-1,0-1.93.52-2.47,1.4-.29.46-.16,1.08.28,1.38.44.3,1.04.17,1.33-.29.19-.31.51-.49.87-.49.57,0,1.03.48,1.03,1.08s-.46,1.08-1.03,1.08H3.96c-.53,0-.96.45-.96,1s.43,1,.96,1h14.09c1.63,0,2.95-1.38,2.95-3.08s-1.32-3.08-2.95-3.08Z"/>
</svg>