<?xml version="1.0" encoding="UTF-8"?>
<svg id="Ikony" xmlns="http://www.w3.org/2000/svg" viewBox="0 0 24 24">
  <defs>
    <style>
      .cls-1 {
        fill: #010101;
      }
    </style>
  </defs>
  <path class="cls-1" d="m20.26,13.03c-.23,1.78-1.02,3.39-2.29,4.67-1.57,1.57-3.63,2.36-5.7,2.36s-4.13-.79-5.7-2.36l-1.15-1.15v2.47c0,.41-.34.75-.75.75s-.75-.34-.75-.75v-4.28c0-.1.02-.19.06-.29.08-.18.22-.33.41-.41.09-.04.19-.06.29-.06h4.28c.41,0,.75.34.75.75s-.34.75-.75.75h-2.47l1.15,1.15c2.56,2.56,6.72,2.56,9.27,0,1.04-1.04,1.68-2.35,1.87-3.8.05-.41.42-.7.84-.65.41.05.7.43.65.84Zm-15.78-1.15s.07,0,.1,0c.37,0,.69-.27.74-.65.2-1.43.84-2.72,1.86-3.74,1.24-1.24,2.89-1.92,4.64-1.92s3.4.68,4.64,1.92l1.07,1.07h-2.47c-.41,0-.75.34-.75.75s.34.75.75.75h4.28c.1,0,.19-.02.29-.06.18-.08.33-.22.41-.41.04-.09.06-.19.06-.29v-4.28c0-.41-.34-.75-.75-.75s-.75.34-.75.75v2.47l-1.07-1.07c-1.52-1.52-3.54-2.36-5.7-2.36s-4.18.84-5.7,2.36c-1.25,1.25-2.04,2.84-2.28,4.59-.06.41.23.79.64.85Z"/>
</svg>