<?xml version="1.0" encoding="UTF-8"?>
<svg id="Ikony" xmlns="http://www.w3.org/2000/svg" viewBox="0 0 24 24">
  <defs>
    <style>
      .cls-1 {
        fill: #010101;
      }
    </style>
  </defs>
  <path class="cls-1" d="m18.28,11.25h-1.09v-3.07c0-2.86-2.33-5.19-5.19-5.19s-5.19,2.33-5.19,5.19c0,.41.34.75.75.75s.75-.34.75-.75c0-2.03,1.65-3.69,3.69-3.69s3.69,1.65,3.69,3.69v3.07H5.7c-.96,0-1.74.78-1.74,1.74v6.28c0,.96.78,1.75,1.74,1.75h12.58c.96,0,1.74-.78,1.74-1.75v-6.28c0-.96-.78-1.74-1.74-1.74Zm.24,8.03c0,.13-.11.25-.24.25H5.7c-.13,0-.24-.11-.24-.25v-6.28c0-.13.11-.24.24-.24h12.58c.13,0,.24.11.24.24v6.28Z"/>
</svg>