<?xml version="1.0" encoding="UTF-8"?>
<svg id="Ikony" xmlns="http://www.w3.org/2000/svg" viewBox="0 0 24 24">
  <defs>
    <style>
      .cls-1 {
        fill: #010101;
      }
    </style>
  </defs>
  <path class="cls-1" d="m12,2C6.48,2,2,6.48,2,12s4.48,10,10,10,10-4.48,10-10S17.52,2,12,2Zm0,18.5c-4.69,0-8.5-3.81-8.5-8.5S7.31,3.5,12,3.5s8.5,3.81,8.5,8.5-3.81,8.5-8.5,8.5Zm3.62-11.01l-2.51,2.51,2.51,2.51c.29.29.29.77,0,1.06-.15.15-.34.22-.53.22s-.38-.07-.53-.22l-2.51-2.51-2.51,2.51c-.15.15-.34.22-.53.22s-.38-.07-.53-.22c-.29-.29-.29-.77,0-1.06l2.51-2.51-2.51-2.51c-.29-.29-.29-.77,0-1.06s.77-.29,1.06,0l2.51,2.51,2.51-2.51c.29-.29.77-.29,1.06,0s.29.77,0,1.06Z"/>
</svg>