<?xml version="1.0" encoding="UTF-8"?>
<svg id="Podpisy_do_ikon" data-name="Podpisy do ikon" xmlns="http://www.w3.org/2000/svg" viewBox="0 0 24 24">
  <defs>
    <style>
      .cls-1 {
        fill: #010202;
      }
    </style>
  </defs>
  <path class="cls-1" d="m3.55,13.94h16.86c.31,0,.53-.31.42-.6l-1.55-4.35c-.02-.06-.08-.11-.15-.11h-2.95c-.1,0-.17.08-.17.17v1.85s.03.07.07.07h.47c.29,0,.54.24.54.55,0,.29-.23.55-.54.55H7.4c-.29,0-.54-.25-.54-.55s.23-.55.54-.55h.48s.06-.02.06-.06v-1.86c0-.1-.08-.18-.18-.18h-2.68c-.21,0-.42.16-.5.35l-1.46,4.1c-.11.29.11.6.43.6Z"/>
  <path class="cls-1" d="m20.65,14.81H3.35c-.19,0-.35.16-.35.35v5.3c0,.29.22.53.53.53h16.94c.29,0,.53-.24.53-.53v-5.3c0-.2-.16-.35-.35-.35h0Z"/>
  <path class="cls-1" d="m9.19,10.95h5.58c.12,0,.22-.1.22-.22V3.68c.02-.36-.27-.63-.61-.63h-4.56c-.47,0-.85.38-.85.85v6.82c0,.12.1.22.22.22h0Zm1.15-4.51c.22-.22.55-.22.77,0l.47.47,1.26-1.26c.22-.22.55-.22.77,0,.24.24.24.57.02.79l-1.63,1.63c-.1.1-.24.16-.39.16s-.27-.06-.39-.16l-.86-.86c-.22-.22-.22-.55,0-.77Z"/>
</svg>