<?xml version="1.0" encoding="UTF-8"?>
<svg id="Ikony" xmlns="http://www.w3.org/2000/svg" viewBox="0 0 24 24">
  <defs>
    <style>
      .cls-1 {
        fill: #010101;
      }
    </style>
  </defs>
  <path class="cls-1" d="m13.69,13.75v-3.78c0-.94.76-1.7,1.7-1.7h4.48v-3.47c0-.99-.8-1.8-1.8-1.8H4.81c-1,0-1.81.81-1.81,1.8v14.39c0,1,.81,1.81,1.81,1.81h13.26c1,0,1.8-.81,1.8-1.81v-3.75h-4.48c-.94,0-1.7-.76-1.7-1.69Z"/>
  <path class="cls-1" d="m20.02,9.77h-3.84c-.54,0-.98.44-.98.98v2.18c0,.54.44.98.98.98h3.84c.54,0,.98-.44.98-.98v-2.18c0-.54-.44-.98-.98-.98Zm-2.72,2.84c-.42,0-.76-.35-.76-.77s.34-.76.76-.76.77.34.77.76-.34.77-.77.77Z"/>
</svg>