<?xml version="1.0" encoding="UTF-8"?>
<svg id="Ikony" xmlns="http://www.w3.org/2000/svg" viewBox="0 0 24 24">
  <defs>
    <style>
      .cls-1 {
        fill: #010101;
      }
    </style>
  </defs>
  <path class="cls-1" d="m19.44,5.17c-.07-.27-.28-.47-.55-.51-3.36-.59-5.69-1.88-6.54-2.4-.21-.14-.49-.14-.71,0-.42.26-1.22.71-2.33,1.17-1.11.46-2.53.94-4.21,1.23-.27.04-.48.24-.55.51-1.23,4.87-.4,9.42,2.47,12.87,1.79,2.14,3.86,3.33,4.67,3.73.1.05.2.08.31.08.1,0,.21-.03.3-.08.81-.4,2.89-1.59,4.67-3.73,2.88-3.45,3.71-8,2.47-12.87Zm-4.08,5.47l-3.79,3.79c-.14.14-.33.22-.53.22s-.39-.08-.53-.22l-1.88-1.88c-.29-.3-.29-.77,0-1.06.3-.3.77-.3,1.07,0l1.34,1.35,3.26-3.26c.29-.29.77-.29,1.06,0,.29.29.29.77,0,1.06Z"/>
</svg>