<svg width="96" height="96" viewBox="0 0 96 96" fill="none" xmlns="http://www.w3.org/2000/svg">
<path d="M46.4456 9.26677C47.3605 8.49743 48.692 8.48339 49.6229 9.23329L69.2295 25.0275C71.2785 25.1193 73.2681 25.4395 75.1734 25.9633L51.5049 6.89703C49.4569 5.24726 46.5276 5.27812 44.5148 6.97069L3.03463 41.8517C2.40059 42.3849 2.31882 43.3311 2.85199 43.9652C3.38517 44.5992 4.33139 44.681 4.96543 44.1478L12 38.2324V82C12 86.4183 15.5817 90 20 90H60.1327C59.2685 89.0186 58.4131 88.0176 57.5715 87H20C17.2386 87 15 84.7614 15 82V35.7097L46.4456 9.26677Z" fill="black"/>
<path fill-rule="evenodd" clip-rule="evenodd" d="M80 52C80 58.6274 74.6274 64 68 64C61.3726 64 56 58.6274 56 52C56 45.3726 61.3726 40 68 40C74.6274 40 80 45.3726 80 52ZM77 52C77 56.9706 72.9706 61 68 61C63.0294 61 59 56.9706 59 52C59 47.0294 63.0294 43 68 43C72.9706 43 77 47.0294 77 52Z" fill="black"/>
<path fill-rule="evenodd" clip-rule="evenodd" d="M74.0677 87.7572C81.1777 77.6886 92 60.9008 92 52C92 38.7452 81.2548 28 68 28C54.7452 28 44 38.7452 44 52C44 60.9008 54.8223 77.6886 61.9323 87.7572C64.9349 92.0092 71.0651 92.0092 74.0677 87.7572ZM87.3911 58.8669C88.4676 56.0145 89 53.6929 89 52C89 40.402 79.598 31 68 31C56.402 31 47 40.402 47 52C47 53.6929 47.5324 56.0145 48.6089 58.8669C49.6681 61.6736 51.1735 64.7877 52.9316 68.0005C56.4472 74.4247 60.8568 81.0332 64.3829 86.0267C66.1902 88.586 69.8098 88.586 71.6171 86.0267C75.1432 81.0332 79.5528 74.4247 83.0684 68.0005C84.8265 64.7877 86.3319 61.6736 87.3911 58.8669Z" fill="black"/>
</svg>
