<svg width="96" height="96" viewBox="0 0 96 96" fill="none" xmlns="http://www.w3.org/2000/svg">
<path d="M16 23H80C84.9706 23 89 27.0294 89 32V44.8613C90.1175 46.0928 91.1229 47.428 92 48.8506V32C92 25.3726 86.6274 20 80 20H16C9.37258 20 4 25.3726 4 32V64C4 70.6274 9.37258 76 16 76H45.3299C44.7985 75.0345 44.3245 74.033 43.9124 73H16C11.0294 73 7 68.9706 7 64V32C7 27.0294 11.0294 23 16 23Z" fill="black"/>
<path fill-rule="evenodd" clip-rule="evenodd" d="M27 46C31.9706 46 36 41.9706 36 37C36 32.0294 31.9706 28 27 28C22.0294 28 18 32.0294 18 37C18 41.9706 22.0294 46 27 46ZM27 43C30.3137 43 33 40.3137 33 37C33 33.6863 30.3137 31 27 31C23.6863 31 21 33.6863 21 37C21 40.3137 23.6863 43 27 43Z" fill="black"/>
<path fill-rule="evenodd" clip-rule="evenodd" d="M24 49C17.3726 49 12 54.3726 12 61V64C12 66.2091 13.7909 68 16 68H38C40.2091 68 42 66.2091 42 64V61C42 54.3726 36.6274 49 30 49H24ZM24 52C19.0294 52 15 56.0294 15 61V64C15 64.5523 15.4477 65 16 65H38C38.5523 65 39 64.5523 39 64V61C39 56.0294 34.9706 52 30 52H24Z" fill="black"/>
<path fill-rule="evenodd" clip-rule="evenodd" d="M62.5 51C60.2909 51 58.5 52.7909 58.5 55V71C58.5 73.2091 60.2909 75 62.5 75H63.5C65.7091 75 67.5 73.2091 67.5 71V55C67.5 52.7909 65.7091 51 63.5 51H62.5ZM63.5 54H62.5C61.9477 54 61.5 54.4477 61.5 55V71C61.5 71.5523 61.9477 72 62.5 72H63.5C64.0523 72 64.5 71.5523 64.5 71V55C64.5 54.4477 64.0523 54 63.5 54Z" fill="black"/>
<path fill-rule="evenodd" clip-rule="evenodd" d="M74.5 51C72.2909 51 70.5 52.7909 70.5 55V71C70.5 73.2091 72.2909 75 74.5 75H75.5C77.7091 75 79.5 73.2091 79.5 71V55C79.5 52.7909 77.7091 51 75.5 51H74.5ZM75.5 54H74.5C73.9477 54 73.5 54.4477 73.5 55V71C73.5 71.5523 73.9477 72 74.5 72H75.5C76.0523 72 76.5 71.5523 76.5 71V55C76.5 54.4477 76.0523 54 75.5 54Z" fill="black"/>
<path fill-rule="evenodd" clip-rule="evenodd" d="M69 87C82.2548 87 93 76.2548 93 63C93 49.7452 82.2548 39 69 39C55.7452 39 45 49.7452 45 63C45 76.2548 55.7452 87 69 87ZM69 84C80.598 84 90 74.598 90 63C90 51.402 80.598 42 69 42C57.402 42 48 51.402 48 63C48 74.598 57.402 84 69 84Z" fill="black"/>
</svg>
