<svg width="96" height="96" viewBox="0 0 96 96" fill="none" xmlns="http://www.w3.org/2000/svg">
<g clip-path="url(#clip0_2358_1224)">
<path fill-rule="evenodd" clip-rule="evenodd" d="M28.8 85H36H37H37.5C38.3284 85 39 85.6716 39 86.5C39 87.3284 38.3284 88 37.5 88H37H36H28.8C24.3196 88 22.0794 88 20.3681 87.1281C18.8628 86.3611 17.6389 85.1372 16.8719 83.6319C16 81.9206 16 79.6804 16 75.2L16 20.8C16 16.3196 16 14.0794 16.872 12.3681C17.6389 10.8628 18.8628 9.63893 20.3681 8.87195C22.0794 8 24.3196 8 28.8 8H50.6981C52.6548 8 53.6332 8 54.5539 8.22104C55.3701 8.41702 56.1505 8.74025 56.8663 9.17888C57.6736 9.67361 58.3654 10.3654 59.749 11.749L76.251 28.251C77.6346 29.6346 78.3264 30.3264 78.8211 31.1337C79.2598 31.8495 79.583 32.6299 79.779 33.4461C79.9883 34.3182 79.9994 35.242 80 37L80 38.5C80 39.3284 79.3284 40 78.5 40C77.6716 40 77 39.3284 77 38.5V37L76.9998 37C76.9978 35.1468 76.9748 34.617 76.8618 34.1465C76.849 34.093 76.8353 34.0397 76.8207 33.9868C75.6841 33.9995 74.4192 33.9995 73 33.9995C66.468 33.9995 63.202 33.9995 60.6925 32.7619C58.3233 31.5936 56.4059 29.6761 55.2375 27.3069C54 24.7975 54 21.5315 54 14.9995C54 13.5805 54 12.3156 54.0127 11.1791C53.9599 11.1646 53.9068 11.1509 53.8535 11.1382C53.3584 11.0193 52.7976 11 50.6981 11L28.8 11C26.5103 11 24.9734 11.0023 23.7899 11.099C22.6414 11.1929 22.0923 11.3604 21.7301 11.545C20.7892 12.0243 20.0243 12.7892 19.545 13.73C19.3604 14.0923 19.1929 14.6414 19.099 15.7899C19.0023 16.9734 19 18.5103 19 20.8L19 75.2C19 77.4897 19.0023 79.0266 19.099 80.2101C19.1929 81.3586 19.3604 81.9077 19.545 82.27C20.0243 83.2108 20.7892 83.9757 21.73 84.455C22.0923 84.6396 22.6414 84.8071 23.7899 84.901C24.9734 84.9977 26.5103 85 28.8 85ZM74.1296 30.3723C74.3636 30.6062 74.5701 30.8135 74.7532 30.9983C74.2016 30.9994 73.6183 30.9995 73 30.9995C69.6859 30.9995 67.3757 30.9972 65.5755 30.8542C63.8087 30.7138 62.7912 30.4519 62.0194 30.0713C60.2425 29.195 58.8044 27.7569 57.9281 25.98C57.5475 25.2082 57.2857 24.1907 57.1453 22.424C57.0022 20.6237 57 18.3135 57 14.9995C57 14.3812 57.0001 13.7979 57.0011 13.2463C57.1861 13.4295 57.3936 13.6362 57.6277 13.8704L74.1296 30.3723ZM77 72V75.2C77 77.4897 76.9977 79.0266 76.901 80.2101C76.8071 81.3586 76.6396 81.9077 76.455 82.27C75.9757 83.2108 75.2108 83.9757 74.2699 84.455C73.9077 84.6396 73.3586 84.8071 72.2101 84.901C71.0266 84.9977 69.4897 85 67.2 85H65H63.5C62.6716 85 62 85.6716 62 86.5C62 87.3284 62.6716 88 63.5 88H65H67.2C71.6804 88 73.9206 88 75.6319 87.1281C77.1372 86.3611 78.3611 85.1372 79.128 83.6319C80 81.9206 80 79.6804 80 75.2V72L80 70.5C80 69.6716 79.3284 69 78.5 69C77.6716 69 77 69.6716 77 70.5L77 72ZM85.391 54.5172L84.6839 55.2243L77.6128 48.1533L78.3199 47.4461C79.7717 45.9944 80.0996 45.7029 80.3555 45.5552C81.2837 45.0193 82.4273 45.0193 83.3555 45.5552C83.6113 45.7029 83.9392 45.9944 85.391 47.4461C86.8428 48.8979 87.1343 49.2259 87.282 49.4817C87.8179 50.4099 87.8179 51.5535 87.282 52.4817C87.1355 52.7354 86.8476 53.06 85.4269 54.4813C85.415 54.4932 85.403 54.5052 85.391 54.5172ZM88.2183 55.9303C89.0772 55.0623 89.5632 54.5305 89.8801 53.9817C90.9518 52.1253 90.9518 49.8381 89.8801 47.9817C89.4851 47.2976 88.8275 46.64 87.5124 45.3249L87.5123 45.3248L87.5123 45.3248L87.5122 45.3247L87.512 45.3245C86.197 44.0095 85.5395 43.352 84.8555 42.9571C82.9991 41.8853 80.7119 41.8853 78.8555 42.9571C78.3066 43.274 77.7748 43.7599 76.9068 44.6188L76.9057 44.6177L76.1986 45.3248L75.4915 46.0319L73.3702 48.1533L51.11 70.4135C50.9726 70.5508 50.904 70.6195 50.8426 70.694C50.788 70.7603 50.7378 70.83 50.6922 70.9027C50.6408 70.9846 50.5974 71.0714 50.5105 71.2451L43.7223 84.8216L43.7223 84.8217C42.4145 87.4373 41.7606 88.7451 41.9823 89.4998C42.1741 90.1525 42.6846 90.663 43.3374 90.8548C44.0921 91.0766 45.3999 90.4227 48.0156 89.1148L61.592 82.3266C61.7657 82.2398 61.8526 82.1963 61.9344 82.145C62.0071 82.0994 62.0768 82.0491 62.1431 81.9946C62.2176 81.9332 62.2863 81.8646 62.4236 81.7273L62.4237 81.7272L84.6839 59.467L86.8052 57.3456L87.5123 56.6385L87.5124 56.6385L88.2194 55.9314L88.2183 55.9303ZM82.5626 57.3456L60.3023 79.6059L60.2794 79.6288L60.2504 79.6433L55.6582 81.9394L50.8977 77.179L53.1938 72.5868L53.2084 72.5578L53.2313 72.5348L75.4915 50.2746L82.5626 57.3456ZM49.4835 80.0074L46.4056 86.1632C46.3115 86.3515 46.2223 86.5299 46.1379 86.6993C46.3072 86.6149 46.4857 86.5257 46.6739 86.4315L52.8297 83.3536L49.4835 80.0074Z" fill="black"/>
</g>
<defs>
<clipPath id="clip0_2358_1224">
<rect width="96" height="96" fill="white"/>
</clipPath>
</defs>
</svg>
