<?xml version="1.0" encoding="utf-8"?>
<!-- Generator: Adobe Illustrator 27.7.0, SVG Export Plug-In . SVG Version: 6.00 Build 0)  -->
<svg version="1.1" id="Warstwa_1" xmlns="http://www.w3.org/2000/svg" xmlns:xlink="http://www.w3.org/1999/xlink" x="0px" y="0px"
	 viewBox="0 0 24 24" style="enable-background:new 0 0 24 24;" xml:space="preserve">
<style type="text/css">
	.st0{fill:#010101;}
</style>
<g id="Ikony">
	<path class="st0" d="M12,2C6.5,2,2,6.5,2,12s4.5,10,10,10s10-4.5,10-10S17.5,2,12,2z M7.9,8.7C7.9,8.3,8.3,8,8.7,8s0.8,0.3,0.8,0.8
		v1.5c0,0.4-0.3,0.8-0.8,0.8s-0.8-0.3-0.8-0.8C7.9,10.2,7.9,8.7,7.9,8.7z M12,17.7L12,17.7c-2.3,0-4.1-1.8-4.1-4
		c0-0.4,0.3-0.8,0.8-0.8h6.5c0.4,0,0.8,0.3,0.8,0.8C16,16,14.2,17.7,12,17.7z M16,10.2c0,0.4-0.3,0.8-0.8,0.8s-0.8-0.3-0.8-0.8V8.7
		c0-0.4,0.3-0.8,0.8-0.8S16,8.3,16,8.7V10.2z"/>
</g>
</svg>
