<?xml version="1.0" encoding="UTF-8"?>
<svg id="Ikony" xmlns="http://www.w3.org/2000/svg" viewBox="0 0 24 24">
  <path d="m20.59,9.5h-.34c-.22,0-.41-.13-.49-.33l-.27-.65c-.08-.2-.04-.43.12-.58l.24-.24c.55-.55.55-1.45,0-2l-1.54-1.54c-.28-.28-.64-.41-1-.41s-.72.14-1,.41l-.24.24c-.1.1-.24.16-.38.16-.07,0-.14-.01-.2-.04l-.65-.27c-.2-.08-.33-.28-.33-.49v-.34c0-.78-.63-1.41-1.41-1.41h-2.18c-.78,0-1.41.63-1.41,1.41v.34c0,.22-.13.41-.33.49l-.65.27c-.07.03-.14.04-.2.04-.14,0-.27-.05-.38-.16l-.24-.24c-.28-.28-.64-.41-1-.41s-.72.14-1,.41l-1.54,1.54c-.55.55-.55,1.45,0,2l.24.24c.15.15.2.38.12.58l-.27.65c-.08.2-.28.33-.49.33h-.34c-.78,0-1.41.63-1.41,1.41v2.18c0,.78.63,1.41,1.41,1.41h.34c.22,0,.41.13.49.33l.27.65c.08.2.04.43-.12.58l-.24.24c-.55.55-.55,1.45,0,2l1.54,1.54c.28.28.64.41,1,.41s.72-.14,1-.41l.24-.24c.1-.1.24-.16.38-.16.07,0,.14.01.2.04l.65.27c.2.08.33.28.33.49v.34c0,.78.63,1.41,1.41,1.41h2.18c.78,0,1.41-.63,1.41-1.41v-.34c0-.22.13-.41.33-.49l.65-.27c.07-.03.14-.04.2-.04.14,0,.27.05.38.16l.24.24c.28.28.64.41,1,.41s.72-.14,1-.41l1.54-1.54c.55-.55.55-1.45,0-2l-.24-.24c-.15-.15-.2-.38-.12-.58l.27-.65c.08-.2.28-.33.49-.33h.34c.78,0,1.41-.63,1.41-1.41v-2.18c0-.78-.63-1.41-1.41-1.41Zm-.09,3.5h-.26c-.83,0-1.56.49-1.88,1.25l-.27.65c-.32.76-.14,1.63.44,2.22l.18.18-1.41,1.41-.18-.18c-.38-.38-.89-.6-1.44-.6-.27,0-.53.05-.78.15l-.65.27c-.76.32-1.25,1.05-1.25,1.88v.26h-2v-.26c0-.83-.49-1.56-1.25-1.88l-.65-.27c-.25-.1-.51-.15-.78-.15-.54,0-1.05.21-1.44.6l-.18.18-1.41-1.41.18-.18c.58-.58.76-1.45.44-2.22l-.27-.65c-.32-.76-1.05-1.25-1.88-1.25h-.26v-2h.26c.83,0,1.56-.49,1.88-1.25l.27-.65c.32-.76.14-1.63-.44-2.22l-.18-.18,1.41-1.41.18.18c.38.38.89.6,1.44.6.27,0,.53-.05.78-.15l.65-.27c.76-.32,1.25-1.05,1.25-1.88v-.26h2v.26c0,.83.49,1.56,1.25,1.88l.65.27c.25.1.51.15.78.15.54,0,1.05-.21,1.44-.6l.18-.18,1.41,1.41-.18.18c-.58.58-.76,1.45-.44,2.22l.27.65c.32.76,1.05,1.25,1.88,1.25h.26v2Zm-8.5-6c-2.76,0-5,2.24-5,5s2.24,5,5,5,5-2.24,5-5-2.24-5-5-5Zm0,8.5c-1.93,0-3.5-1.57-3.5-3.5s1.57-3.5,3.5-3.5,3.5,1.57,3.5,3.5-1.57,3.5-3.5,3.5Z"/>
</svg>