<?xml version="1.0" encoding="UTF-8"?>
<svg id="Ikony" xmlns="http://www.w3.org/2000/svg" viewBox="0 0 24 24">
  <path d="m16.97,4H7.04c-1.22,0-2.2.99-2.2,2.2v9.94c0,1.12.84,2.04,1.91,2.18v.97c0,.39.32.71.72.71h1.9c.39,0,.71-.32.71-.71v-.94h3.84v.94c0,.39.32.71.72.71h1.9c.39,0,.71-.32.71-.71v-.97c1.08-.14,1.92-1.06,1.92-2.18V6.2c0-1.22-.99-2.2-2.2-2.2Zm-7.42,11.33c-.1.4-.43.73-.82.82-.85.2-1.59-.53-1.4-1.39.1-.4.43-.72.83-.82.84-.2,1.59.54,1.39,1.39Zm7.17,0c-.1.4-.43.73-.82.82-.85.2-1.6-.53-1.4-1.39.1-.4.43-.72.83-.82.84-.2,1.59.54,1.39,1.39Zm.04-3.74c0,.44-.36.78-.78.78h-7.88c-.44,0-.78-.35-.78-.78v-4.41c0-.44.35-.78.78-.78h7.88c.43,0,.78.35.78.78v4.41Zm-13.75-1.23c-.41,0-.75-.34-.75-.75v-2.64c0-.41.34-.75.75-.75s.75.34.75.75v2.64c0,.41-.34.75-.75.75Zm18,0c-.41,0-.75-.34-.75-.75v-2.64c0-.41.34-.75.75-.75s.75.34.75.75v2.64c0,.41-.34.75-.75.75Z"/>
</svg>