<?xml version="1.0" encoding="UTF-8"?>
<svg id="Ikony" xmlns="http://www.w3.org/2000/svg" viewBox="0 0 24 24">
  <defs>
    <style>
      .cls-1 {
        fill: #010101;
        stroke-width: 0px;
      }
    </style>
  </defs>
  <path class="cls-1" d="m18.3,11.24h-1.09v-3.07c0-2.86-2.33-5.19-5.19-5.19s-5.19,2.33-5.19,5.19v3.07h-1.12c-.96,0-1.75.78-1.75,1.75v6.28c0,.96.78,1.75,1.75,1.75h12.58c.96,0,1.75-.78,1.75-1.75v-6.28c0-.96-.78-1.75-1.75-1.75Zm-9.97-3.07c0-2.03,1.65-3.69,3.69-3.69s3.69,1.65,3.69,3.69v3.07h-7.38v-3.07Zm10.21,11.1c0,.13-.11.25-.25.25H5.72c-.13,0-.25-.11-.25-.25v-6.28c0-.13.11-.25.25-.25h1.82s.03,0,.04,0,.03,0,.04,0h10.67c.13,0,.25.11.25.25v6.28Z"/>
</svg>