<?xml version="1.0" encoding="UTF-8"?>
<svg id="Ikony" xmlns="http://www.w3.org/2000/svg" viewBox="0 0 64 64">
  <defs>
    <style>
      .cls-1 {
        fill: #010101;
        isolation: isolate;
        opacity: .83;
        stroke-width: 0px;
      }
    </style>
  </defs>
  <path class="cls-1" d="m32,0C14.33,0,0,14.33,0,32s14.33,32,32,32,32-14.33,32-32S49.67,0,32,0Zm0,61c-15.99,0-29-13.01-29-29S16.01,3,32,3s29,13.01,29,29-13.01,29-29,29Z"/>
  <path class="cls-1" d="m32,34.59c.83,0,1.5-.67,1.5-1.5v-11.44c0-.83-.67-1.5-1.5-1.5s-1.5.67-1.5,1.5v11.44c0,.83.67,1.5,1.5,1.5Z"/>
  <path class="cls-1" d="m32,39.75c-1.18,0-2.14.96-2.14,2.14s.96,2.14,2.14,2.14,2.14-.96,2.14-2.14-.96-2.14-2.14-2.14Z"/>
</svg>