<?xml version="1.0" encoding="UTF-8"?>
<svg id="Ikony" xmlns="http://www.w3.org/2000/svg" viewBox="0 0 24 24">
  <path d="m19.8,17.32c.14.14.22.33.22.53s-.08.39-.22.53l-3.41,3.41c-.15.15-.34.22-.53.22s-.38-.07-.53-.22c-.29-.29-.29-.77,0-1.06l2.13-2.13h-3.96c-1.52,0-2.75-1.23-2.75-2.75v-2.51c0-.41.34-.75.75-.75s.75.34.75.75v2.51c0,.69.56,1.25,1.25,1.25h3.96l-2.13-2.13c-.29-.29-.29-.77,0-1.06s.77-.29,1.06,0l3.41,3.41Zm.34-7.79l-.03,1.81c0,.41-.34.74-.75.74h-.01c-.41,0-.75-.35-.74-.76l.03-1.8s0,0,0-.01c-.03,0-.06.02-.09.02h-4.44c-.96,0-1.75-.79-1.75-1.75V3.5s-.04-.01-.06-.01h-6.65c-.14,0-.25.11-.25.25l-.04,16.53c0,.14.11.25.25.25h6.4c.41,0,.75.34.75.75s-.34.75-.75.75h-6.4c-.96,0-1.75-.79-1.75-1.75l.04-16.53c0-.96.79-1.75,1.75-1.75h6.65c.71,0,1.38.27,1.89.76l5.16,4.93c.51.49.8,1.16.8,1.86Zm-6.04-1.51h3.43l-3.68-3.52v3.27c0,.14.11.25.25.25Z"/>
</svg>