<?xml version="1.0" encoding="UTF-8"?>
<svg id="Ikony" xmlns="http://www.w3.org/2000/svg" viewBox="0 0 24 24">
  <defs>
    <style>
      .cls-1 {
        fill: #1d1d1b;
        fill-rule: evenodd;
      }
    </style>
  </defs>
  <path class="cls-1" d="m9.57,20.53v-3.3s3.24-2.76,3.24-2.76l3.37,4.98c.43.64,1.43.33,1.43-.45l-1.33-8.07c3.35-3.73,5.32-7.01,4.56-7.78-.76-.77-4.02,1.22-7.72,4.6l-7.98-1.33c-.77,0-1.08,1-.44,1.44l4.92,3.39-2.79,3.33h-3.35c-.42,0-.63.51-.33.81l1.94,1.87-.11.59c-.14.76.53,1.42,1.29,1.28l.59-.11,1.92,1.83c.3.29.8.07.8-.34Z"/>
</svg>