<?xml version="1.0" encoding="utf-8"?>
<!-- Generator: Adobe Illustrator 27.7.0, SVG Export Plug-In . SVG Version: 6.00 Build 0)  -->
<svg version="1.1" id="Warstwa_1" xmlns="http://www.w3.org/2000/svg" xmlns:xlink="http://www.w3.org/1999/xlink" x="0px" y="0px"
	 viewBox="0 0 24 24" style="enable-background:new 0 0 24 24;" xml:space="preserve">
<style type="text/css">
	.st0{fill:#010101;}
</style>
<g id="Ikony">
	<path class="st0" d="M12,2C6.5,2,2,6.5,2,12s4.5,10,10,10s10-4.5,10-10S17.5,2,12,2z M8.7,8h0.9c0.4,0,0.8,0.3,0.8,0.8
		S10,9.5,9.5,9.5H8.7c-0.4,0-0.8-0.3-0.8-0.8S8.3,8,8.7,8z M15.2,17c-0.4,0-0.8-0.3-0.8-0.8c0-1.4-1.1-2.5-2.5-2.5
		c-1.5,0-2.6,1.1-2.6,2.5c0,0.4-0.3,0.8-0.8,0.8s-0.8-0.3-0.8-0.8c0-2.2,1.8-4,4-4s4.1,1.8,4.1,4C16,16.6,15.6,17,15.2,17z
		 M15.3,9.5h-0.9c-0.4,0-0.8-0.3-0.8-0.8S14.1,8,14.5,8h0.9c0.4,0,0.7,0.3,0.7,0.8S15.7,9.5,15.3,9.5z"/>
</g>
</svg>
