<?xml version="1.0" encoding="UTF-8"?>
<svg id="Ikony" xmlns="http://www.w3.org/2000/svg" viewBox="0 0 24 24">
  <defs>
    <style>
      .cls-1 {
        fill: #010101;
      }
    </style>
  </defs>
  <path class="cls-1" d="m17.59,16.29c.31.28.34.75.06,1.06-1.59,1.79-3.4,3.26-5.38,4.38-.38.21-.79.32-1.21.32-.45,0-.9-.12-1.29-.36-2-1.21-3.79-2.67-5.34-4.33-.98-1.05-1.52-2.45-1.52-3.94V4.66c0-.86.6-1.61,1.43-1.79,4.38-.94,8.87-.94,13.33,0,.41.09.67.48.58.89-.09.41-.49.66-.89.58-4.26-.9-8.54-.9-12.71,0-.14.03-.25.17-.25.32v8.76c0,1.1.4,2.14,1.12,2.91,1.46,1.56,3.14,2.93,5.02,4.07.3.18.69.19.99.02,1.84-1.04,3.52-2.41,5-4.08.28-.31.75-.34,1.06-.06Zm3.44-6.48c0,1.04-.41,2.01-1.14,2.75-.96.95-2.34,1.34-3.64,1.04l-3.82,3.81c-.37.37-.86.58-1.38.58-.24,0-.48-.04-.71-.13-.73-.28-1.21-.94-1.26-1.72l-.1-1.8c-.02-.3.09-.59.3-.8.2-.21.48-.33.78-.33h.37v-.34c0-.6.48-1.08,1.08-1.08h.74l1.09-1.08c-.29-1.29.09-2.66,1.04-3.61,1.52-1.51,3.99-1.51,5.51,0,.74.73,1.14,1.71,1.14,2.75Zm-1.5,0c0-.64-.25-1.24-.7-1.69-.93-.93-2.46-.93-3.39,0-.66.66-.88,1.64-.55,2.51l.17.45-2.18,2.17h-.94v1.42h-1.42l.07,1.36c0,.19.12.34.3.41.18.07.36.03.5-.1l4.48-4.46.45.17c.89.33,1.86.12,2.53-.55.45-.45.7-1.05.7-1.69Zm-2.33-1.06c-.52,0-.95.43-.95.95s.43.95.95.95.95-.43.95-.95-.43-.95-.95-.95Z"/>
</svg>