<?xml version="1.0" encoding="UTF-8"?>
<svg id="Ikony" xmlns="http://www.w3.org/2000/svg" viewBox="0 0 24 24">
  <defs>
    <style>
      .cls-1 {
        fill: #010101;
      }
    </style>
  </defs>
  <path class="cls-1" d="m18.53,17.47c.29.29.29.77,0,1.06-.15.15-.34.22-.53.22s-.38-.07-.53-.22l-5.47-5.47-5.47,5.47c-.15.15-.34.22-.53.22s-.38-.07-.53-.22c-.29-.29-.29-.77,0-1.06l5.47-5.47-5.47-5.47c-.29-.29-.29-.77,0-1.06s.77-.29,1.06,0l5.47,5.47,5.47-5.47c.29-.29.77-.29,1.06,0s.29.77,0,1.06l-5.47,5.47,5.47,5.47Z"/>
</svg>