<?xml version="1.0" encoding="UTF-8"?>
<svg id="Ikony" xmlns="http://www.w3.org/2000/svg" viewBox="0 0 24 24">
  <defs>
    <style>
      .cls-1 {
        fill: #010101;
      }
    </style>
  </defs>
  <path class="cls-1" d="m14.61,12h-5.22c-3.59,0-6.39,2.81-6.39,6.39v.57c0,1.19.96,2.15,2.15,2.15h13.71c1.19,0,2.15-.96,2.15-2.15v-.57c0-3.59-2.81-6.39-6.39-6.39Zm4.89,6.97c0,.36-.29.65-.65.65H5.15c-.36,0-.65-.29-.65-.65v-.57c0-2.74,2.15-4.89,4.89-4.89h5.22c2.74,0,4.89,2.15,4.89,4.89v.57Zm-7.52-8.07c2.46,0,4.45-1.99,4.45-4.45s-1.99-4.45-4.45-4.45-4.45,1.99-4.45,4.45,1.99,4.45,4.45,4.45Zm0-7.39c1.62,0,2.95,1.32,2.95,2.95s-1.32,2.95-2.95,2.95-2.95-1.32-2.95-2.95,1.32-2.95,2.95-2.95Z"/>
</svg>