<?xml version="1.0" encoding="UTF-8"?>
<svg id="Ikony" xmlns="http://www.w3.org/2000/svg" viewBox="0 0 24 24">
  <defs>
    <style>
      .cls-1 {
        fill: #010101;
      }
    </style>
  </defs>
  <path class="cls-1" d="m21.07,16.76v1.49c0,1.52-1.23,2.75-2.75,2.75H5.75c-1.52,0-2.75-1.23-2.75-2.75v-1.49c0-.41.34-.75.75-.75s.75.34.75.75v1.49c0,.69.56,1.25,1.25,1.25h12.56c.69,0,1.25-.56,1.25-1.25v-1.49c0-.41.34-.75.75-.75s.75.34.75.75Zm-9.6-.99c.14.14.33.22.53.22s.39-.08.53-.22l5.22-5.22c.29-.29.29-.77,0-1.06s-.77-.29-1.06,0l-3.94,3.94V3.76c0-.41-.34-.75-.75-.75s-.75.34-.75.75v9.66l-3.94-3.94c-.29-.29-.77-.29-1.06,0s-.29.77,0,1.06l5.22,5.22Z"/>
</svg>