<?xml version="1.0" encoding="UTF-8"?>
<svg id="Ikony" xmlns="http://www.w3.org/2000/svg" viewBox="0 0 24 24">
  <defs>
    <style>
      .cls-1 {
        fill: #010101;
      }
    </style>
  </defs>
  <path class="cls-1" d="m11.83,2.02C6.31,2.02,1.83,6.5,1.83,12.02s4.48,10,10,10,10-4.48,10-10S17.36,2.02,11.83,2.02Zm0,18.5c-4.69,0-8.5-3.81-8.5-8.5S7.15,3.52,11.83,3.52s8.5,3.81,8.5,8.5-3.81,8.5-8.5,8.5Zm4.75-8.5c0,.41-.34.75-.75.75h-4c-.2,0-.39-.08-.53-.22l-4-4c-.29-.29-.29-.77,0-1.06s.77-.29,1.06,0l3.78,3.78h3.69c.41,0,.75.34.75.75Z"/>
</svg>