<svg width="24" height="24" viewBox="0 0 24 24" fill="none" xmlns="http://www.w3.org/2000/svg">
<g clip-path="url(#clip0_999_33152)">
<path fill-rule="evenodd" clip-rule="evenodd" d="M7.20547 6C7.20547 4.34315 8.54861 3 10.2055 3H13.8055C15.4623 3 16.8055 4.34315 16.8055 6V6.59844H20.2563C20.3956 6.59844 20.4652 6.59844 20.5239 6.60422C21.0936 6.66033 21.5444 7.11108 21.6005 7.68082C21.6063 7.73949 21.6063 7.80914 21.6063 7.94844C21.6063 8.36634 21.6063 8.57529 21.5889 8.7513C21.4206 10.4605 20.0683 11.8128 18.3591 11.9811C18.1831 11.9984 17.9742 11.9984 17.5563 11.9984H6.45625C6.03834 11.9984 5.82939 11.9984 5.65339 11.9811C3.94419 11.8128 2.59193 10.4605 2.42358 8.7513C2.40625 8.57529 2.40625 8.36634 2.40625 7.94844C2.40625 7.80914 2.40625 7.73949 2.41203 7.68082C2.46814 7.11108 2.9189 6.66033 3.48863 6.60422C3.5473 6.59844 3.61695 6.59844 3.75625 6.59844H7.20547V6ZM9.00547 6.59844H15.0055V6C15.0055 5.33726 14.4682 4.8 13.8055 4.8H10.2055C9.54273 4.8 9.00547 5.33726 9.00547 6V6.59844ZM2.40937 15.2399V11.5749C3.2103 12.4826 4.34957 13.0841 5.63277 13.1851C5.82078 13.1999 6.04365 13.1999 6.48938 13.1999H9.00784C9.00831 13.7924 9.01589 14.1031 9.1386 14.344C9.25365 14.5698 9.43723 14.7533 9.66302 14.8684C9.91972 14.9992 10.2557 14.9992 10.9278 14.9992H13.0878C13.7599 14.9992 14.0959 14.9992 14.3526 14.8684C14.5784 14.7533 14.762 14.5698 14.877 14.344C14.9997 14.1031 15.0073 13.7924 15.0078 13.1999H17.5294C17.9751 13.1999 18.198 13.1999 18.386 13.1851C19.6692 13.0841 20.8085 12.4826 21.6094 11.5749V15.2399C21.6094 17.2561 21.6094 18.2642 21.217 19.0343C20.8719 19.7117 20.3211 20.2624 19.6437 20.6075C18.8737 20.9999 17.8656 20.9999 15.8494 20.9999H8.16937C6.15318 20.9999 5.14509 20.9999 4.37501 20.6075C3.69762 20.2624 3.14689 19.7117 2.80175 19.0343C2.40937 18.2642 2.40937 17.2561 2.40937 15.2399Z" fill="black"/>
</g>
<defs>
<clipPath id="clip0_999_33152">
<rect width="24" height="24" fill="white"/>
</clipPath>
</defs>
</svg>
