<?xml version="1.0" encoding="UTF-8"?>
<svg id="Ikony" xmlns="http://www.w3.org/2000/svg" viewBox="0 0 24 24">
  <defs>
    <style>
      .cls-1 {
        fill: rgba(255, 255, 255, 0);
      }

      .cls-1, .cls-2 {
        stroke-width: 0px;
      }

      .cls-2 {
        fill: #010101;
      }
    </style>
  </defs>
  <g>
    <path class="cls-2" d="M15.5,15.6c-.4-.1-.8.1-1,.4l-.7,2-1.7-5.5c-.1-.3-.3-.5-.5-.5l-5.5-1.7,12.4-4.6-.9,2.5c-.1.4.1.8.4,1,.4.1.8-.1,1-.4l1.5-4c.1-.3,0-.6-.2-.8-.2-.2-.5-.3-.8-.2L3.5,9.8c-.3-.1-.5.2-.5.5s.2.6.5.7l7.3,2.3,2.3,7.3c.1.3.4.5.7.5h0c.3,0,.6-.2.7-.5l1.5-4c.1-.4-.1-.8-.5-1Z"/>
    <path class="cls-2" d="M20.9,12.8c-.2-.9-.9-1.5-1.8-1.8-.8-.2-1.6,0-2.2.4-.6.5-1,1.2-1,2,0,.4.3.8.8.8s.8-.3.8-.8c0-.3.1-.6.4-.8s.6-.3.9-.2.6.4.7.7c.1.6-.2,1-.5,1.2-.7.3-1.2,1.1-1.2,2v.3c0,.4.3.8.8.8s.8-.3.8-.8v-.3c0-.3.1-.5.3-.6,1-.5,1.5-1.7,1.2-2.9Z"/>
    <path class="cls-2" d="M18.6,18c-.5,0-1,.4-1,1s.4,1,1,1c.5,0,.9-.4.9-1s-.4-1-.9-1Z"/>
  </g>
  <rect class="cls-1" width="24" height="24"/>
</svg>