<?xml version="1.0" encoding="UTF-8"?>
<svg id="Ikony" xmlns="http://www.w3.org/2000/svg" viewBox="0 0 24 24">
  <defs>
    <style>
      .cls-1 {
        fill: #010101;
        fill-rule: evenodd;
        stroke-width: 0px;
      }
    </style>
  </defs>
  <path class="cls-1" d="m13.02,14.92h-4.56l-1.27-1.38c-.14-.15-.33-.23-.53-.23h-3.65c-.57,0-1.02.46-1.02,1.02v6.7c0,.57.46,1.02,1.02,1.02h10.02c.57,0,1.02-.46,1.02-1.02v-5.09c0-.57-.46-1.02-1.02-1.02Z"/>
  <path class="cls-1" d="m18.43,1.95H6.78c-.88,0-1.59.71-1.59,1.59v7.58c.01.38.32.69.7.69h1.53c.29,0,.57.12.77.34l.94,1.02c.16.17.38.27.61.27h4.18c.84,0,1.52.67,1.52,1.51v4.92c0,.38.31.69.69.69h2.27c.88,0,1.6-.72,1.6-1.6V3.54c0-.88-.71-1.59-1.59-1.59Zm-4.22,7.61h-5.57c-.44,0-.8-.36-.8-.8s.36-.79.8-.79h5.57c.43,0,.79.35.79.79s-.36.8-.79.8Zm2.37-3.04h-7.95c-.44,0-.8-.36-.8-.79s.36-.8.8-.8h7.95c.44,0,.8.36.8.8s-.36.79-.8.79Z"/>
</svg>