<?xml version="1.0" encoding="UTF-8"?>
<svg id="Ikony" xmlns="http://www.w3.org/2000/svg" viewBox="0 0 24 24">
  <defs>
    <style>
      .cls-1 {
        fill: #1d1d1b;
      }
    </style>
  </defs>
  <path class="cls-1" d="m21.42,10.48c-.46-.54-1.13-.86-1.84-.86h-2.16l.35-3.9s0-.18,0-.21c-.04-.64-.32-1.24-.79-1.68-.47-.44-1.08-.69-1.74-.7-.6,0-1.18.21-1.64.58-.46.38-.79.91-.9,1.46,0,.03-.02.09-.02.11-.08.54-.22,1.06-.43,1.54-.24.55-.97,2.22-2.51,2.76-.55.19-.92.72-.92,1.31v8.77c0,.76.62,1.38,1.38,1.38h7.15c1.78,0,3.3-1.28,3.61-3.03l.97-5.57c.12-.7-.07-1.41-.53-1.96Zm-1.92,7.27c-.18,1.04-1.08,1.79-2.13,1.79h-7.04v-8.57c2.1-.78,3.01-2.86,3.32-3.56.26-.61.44-1.26.53-1.92.05-.25.18-.47.38-.63.19-.16.44-.24.69-.24.27,0,.52.11.71.29.19.18.31.43.32.67l-.43,4.72c-.02.21.05.42.19.57.14.16.34.24.55.24h2.98c.27,0,.52.12.69.32.17.21.24.47.2.74l-.97,5.57ZM5.87,9.72l-3.18.37c-.38.04-.66.36-.66.75v8.28c.01.51.22.99.58,1.35.36.36.84.57,1.39.58h1.97c.37,0,.72-.14.98-.41.26-.26.41-.61.41-.98v-8.56c0-.79-.67-1.46-1.47-1.38Zm-1.88,9.83c-.12,0-.24-.05-.33-.14s-.14-.2-.14-.33v-7.58l2.32-.27v8.31s-1.85,0-1.85,0Z"/>
</svg>