<?xml version="1.0" encoding="UTF-8"?>
<svg id="Ikony" xmlns="http://www.w3.org/2000/svg" viewBox="0 0 24 24">
  <path d="m19.67,5.22l1.1-1.11c.29-.29.29-.77,0-1.06s-.77-.29-1.06,0L2.9,19.88c-.29.29-.29.77,0,1.06.15.15.34.22.53.22s.38-.07.53-.22l5-5c.16.24.38.45.64.59.28.15.58.22.88.22.36,0,.72-.1,1.03-.31l4.35-2.89c.52-.34.83-.92.83-1.54,0-.62-.31-1.2-.83-1.55l-.85-.57,3.61-3.61c1.38,1.59,2.14,3.6,2.14,5.72,0,4.83-3.92,8.75-8.75,8.75-.41,0-.75.34-.75.75s.34.75.75.75c5.65,0,10.25-4.6,10.25-10.25,0-2.51-.92-4.9-2.58-6.78Zm-4.65,6.49c.14.09.16.23.16.3,0,.07-.02.21-.16.3l-4.35,2.89c-.16.11-.31.05-.37.02-.06-.03-.19-.12-.19-.32v-.12l3.81-3.81,1.1.73Zm-3.77-9.21c0-.41.34-.75.75-.75,1.64,0,3.21.38,4.66,1.12.37.19.52.64.33,1.01-.13.26-.4.41-.67.41-.11,0-.23-.03-.34-.08-1.24-.63-2.58-.95-3.98-.95-.41,0-.75-.34-.75-.75Zm-2.64,6.6c0-.69.38-1.31.98-1.64.61-.32,1.34-.29,1.91.09l.33.22c.34.23.44.7.21,1.04s-.7.44-1.04.21l-.33-.22c-.16-.11-.31-.05-.37-.02-.06.03-.19.12-.19.32v1.27c0,.41-.34.75-.75.75s-.75-.34-.75-.75v-1.27Zm-6.15,6.52c0-.41.34-.75.75-.75s.75.34.75.75-.34.75-.75.75-.75-.34-.75-.75Zm6.63,5.13c0,.41-.34.75-.75.75s-.75-.34-.75-.75.34-.75.75-.75.75.34.75.75Zm-6.42-7.99c-.41,0-.75-.34-.75-.75s.34-.75.75-.75.75.34.75.75-.34.75-.75.75Zm-.2-4.42c0-.41.34-.75.75-.75s.75.34.75.75-.34.75-.75.75-.75-.34-.75-.75Zm2.06-3.06c0-.41.34-.75.75-.75s.75.34.75.75-.34.75-.75.75-.75-.34-.75-.75Zm3.09-2.04c0-.41.34-.75.75-.75s.75.34.75.75-.34.75-.75.75-.75-.34-.75-.75Z"/>
</svg>