<?xml version="1.0" encoding="UTF-8"?>
<svg id="Ikony" xmlns="http://www.w3.org/2000/svg" viewBox="0 0 24 24">
  <defs>
    <style>
      .cls-1 {
        fill: #010101;
      }
    </style>
  </defs>
  <path class="cls-1" d="m19.44,5.15c-.06-.26-.28-.45-.54-.49-3.37-.59-5.69-1.88-6.54-2.4-.11-.07-.23-.11-.36-.11-.12,0-.24.04-.35.11-.85.52-3.18,1.81-6.54,2.4-.26.04-.48.23-.55.49-1.24,4.88-.41,9.43,2.47,12.89,1.79,2.14,3.86,3.33,4.67,3.73.09.05.2.08.3.08.11,0,.21-.03.31-.08.81-.4,2.88-1.59,4.67-3.73,2.88-3.46,3.71-8.01,2.46-12.89Zm-4.21,9.43c0,.47-.38.86-.86.86h-4.73c-.47,0-.86-.38-.86-.86v-2.58c0-.47.38-.86.86-.86h.12v-1.13c0-1.24,1-2.24,2.24-2.24s2.24,1,2.24,2.24v1.13h.12c.47,0,.86.38.86.86v2.58Z"/>
  <path class="cls-1" d="m12,9.05c-.52,0-.95.43-.95.95v1.13h1.9v-1.13c0-.52-.43-.95-.95-.95Z"/>
</svg>