<?xml version="1.0" encoding="UTF-8"?>
<svg id="Ikony" xmlns="http://www.w3.org/2000/svg" viewBox="0 0 24 24">
  <defs>
    <style>
      .cls-1 {
        fill: #1d1d1b;
        stroke-width: 0px;
      }
    </style>
  </defs>
  <path class="cls-1" d="m18.37,3.13H5.63c-2.07,0-3.74,1.67-3.74,3.74v10.25c0,2.07,1.67,3.74,3.74,3.74h12.73c2.07,0,3.74-1.67,3.74-3.74V6.88c0-2.07-1.67-3.74-3.74-3.74Zm1.23,3.89l-5.96,6.02c-.48.45-1.09.68-1.69.68s-1.19-.22-1.66-.66l-5.88-5.86c-.39-.38-.39-1.01,0-1.39.38-.38,1.01-.38,1.39,0l5.86,5.84c.15.14.43.14.6-.01l5.94-6c.38-.39,1.01-.39,1.39,0,.39.38.39,1.01,0,1.39Z"/>
</svg>