<svg width="24" height="24" viewBox="0 0 24 24" fill="none" xmlns="http://www.w3.org/2000/svg">
<path fill-rule="evenodd" clip-rule="evenodd" d="M20.25 9.50001H20.59C21.37 9.50001 22 10.13 22 10.91V13.09C22 13.87 21.37 14.5 20.59 14.5H20.25C20.04 14.5 19.84 14.63 19.76 14.83L19.49 15.48C19.41 15.68 19.46 15.91 19.61 16.06L19.85 16.3C20.4 16.85 20.4 17.75 19.85 18.3L18.31 19.84C18.03 20.11 17.67 20.25 17.31 20.25C16.95 20.25 16.59 20.12 16.31 19.84L16.07 19.6C15.96 19.49 15.83 19.44 15.69 19.44C15.63 19.44 15.56 19.45 15.49 19.48L14.84 19.75C14.64 19.83 14.51 20.02 14.51 20.24V20.58C14.51 21.36 13.88 21.99 13.1 21.99H10.92C10.14 21.99 9.51002 21.36 9.51002 20.58V20.24C9.51002 20.03 9.38002 19.83 9.18002 19.75L8.53002 19.48C8.47002 19.45 8.40002 19.44 8.33002 19.44C8.19002 19.44 8.05002 19.5 7.95002 19.6L7.71002 19.84C7.43002 20.11 7.07002 20.25 6.71002 20.25C6.35002 20.25 5.99002 20.12 5.71002 19.84L4.17002 18.3C3.62002 17.75 3.62002 16.85 4.17002 16.3L4.41002 16.06C4.57002 15.91 4.61002 15.68 4.53002 15.48L4.26002 14.83C4.18002 14.63 3.99002 14.5 3.77002 14.5H3.43002C2.65002 14.5 2.02002 13.87 2.02002 13.09V10.91C2.02002 10.13 2.65002 9.50001 3.43002 9.50001H3.77002C3.98002 9.50001 4.18002 9.37001 4.26002 9.17001L4.53002 8.52001C4.61002 8.32001 4.56002 8.09001 4.41002 7.94001L4.17002 7.70001C3.62002 7.15001 3.62002 6.25001 4.17002 5.70001L5.71002 4.16001C5.99002 3.89001 6.35002 3.75001 6.71002 3.75001C7.07002 3.75001 7.43002 3.88001 7.71002 4.16001L7.95002 4.40001C8.06002 4.51001 8.19002 4.56001 8.33002 4.56001C8.39002 4.56001 8.46002 4.55001 8.53002 4.52001L9.18002 4.25001C9.38002 4.17001 9.51002 3.98001 9.51002 3.76001V3.42001C9.51002 2.64001 10.14 2.01001 10.92 2.01001H13.1C13.88 2.01001 14.51 2.64001 14.51 3.42001V3.76001C14.51 3.97001 14.64 4.17001 14.84 4.25001L15.49 4.52001C15.55 4.55001 15.62 4.56001 15.69 4.56001C15.83 4.56001 15.97 4.50001 16.07 4.40001L16.31 4.16001C16.59 3.89001 16.95 3.75001 17.31 3.75001C17.67 3.75001 18.03 3.88001 18.31 4.16001L19.85 5.70001C20.4 6.25001 20.4 7.15001 19.85 7.70001L19.61 7.94001C19.45 8.09001 19.41 8.32001 19.49 8.52001L19.76 9.17001C19.84 9.37001 20.03 9.50001 20.25 9.50001ZM8.50002 12C8.50002 13.93 10.07 15.5 12 15.5C13.93 15.5 15.5 13.93 15.5 12C15.5 10.07 13.93 8.50001 12 8.50001C10.07 8.50001 8.50002 10.07 8.50002 12Z" fill="black"/>
</svg>
