<?xml version="1.0" encoding="UTF-8"?>
<svg id="Warstwa_5" data-name="Warstwa 5" xmlns="http://www.w3.org/2000/svg" viewBox="0 0 24 24">
  <defs>
    <style>
      .cls-1 {
        fill: #010101;
      }
    </style>
  </defs>
  <path class="cls-1" d="m12,2C6.48,2,2,6.48,2,12s4.48,10,10,10,10-4.48,10-10S17.52,2,12,2Zm-4,10.95c-.52,0-.95-.43-.95-.95s.43-.95.95-.95.95.43.95.95-.43.95-.95.95Zm4,0c-.52,0-.95-.43-.95-.95s.43-.95.95-.95.95.43.95.95-.43.95-.95.95Zm4,0c-.52,0-.95-.43-.95-.95s.43-.95.95-.95.95.43.95.95-.43.95-.95.95Z"/>
</svg>