<?xml version="1.0" encoding="UTF-8"?>
<svg id="Ikony" xmlns="http://www.w3.org/2000/svg" viewBox="0 0 24 24">
  <defs>
    <style>
      .cls-1 {
        fill: #010101;
        stroke-width: 0px;
      }
    </style>
  </defs>
  <path class="cls-1" d="m19.41,12.16v-.6c0-1.28-1.04-2.33-2.33-2.33-.33,0-.64.07-.92.19-.27-.98-1.17-1.71-2.24-1.71-.35,0-.68.08-.97.22-.31-.92-1.17-1.58-2.2-1.58-.3,0-.58.06-.84.16v-2.1c0-1.28-1.05-2.33-2.33-2.33s-2.33,1.05-2.33,2.33v7.75s0,.03,0,.05v2.94c0,3.91,3.18,7.09,7.09,7.09s7.09-3.18,7.09-7.09v-2.94s0-.03,0-.05Zm-7.08,8.58c-3.08,0-5.59-2.51-5.59-5.59v-2.89s0-.03,0-.05v-7.8c0-.46.37-.83.83-.83s.83.37.83.83v5.42s0,.03,0,.05v2.33c0,.41.34.75.75.75s.75-.34.75-.75v-3.53c0-.46.37-.83.83-.83s.83.37.83.83v3.53c0,.41.34.75.75.75,0,0,0,0,0,0s0,0,0,0c.41,0,.75-.34.75-.75v-2.17c0-.46.37-.83.83-.83s.83.37.83.83v2.14c0,.41.34.75.75.75s.75-.34.75-.75v-.62c0-.46.37-.83.83-.83s.83.37.83.83v.81s0,.03,0,.05v2.73c0,3.08-2.51,5.59-5.59,5.59Z"/>
</svg>